<svg width="129" height="128" viewBox="0 0 129 128" fill="none" xmlns="http://www.w3.org/2000/svg">
<path d="M45.1339 57.3613C42.5349 57.3613 39.6349 58.3623 39.0269 61.6573C38.9629 62.0083 39.1939 62.1743 39.4179 62.2243L42.0809 62.5443C42.3269 62.5303 42.4949 62.2643 42.5419 62.0113C42.7699 60.8773 43.7019 60.3423 44.7429 60.3423C45.3059 60.3423 45.9359 60.5353 46.2699 61.0523C46.6509 61.6283 46.6239 62.4113 46.6239 63.0763V63.4673C45.0419 63.6493 42.9579 63.7593 41.4769 64.4253C39.7679 65.1853 38.5649 66.7323 38.5649 69.0053C38.5649 71.9183 40.3499 73.3713 42.6479 73.3713C44.5879 73.3713 45.6609 72.9153 47.1569 71.3493C47.6539 72.0873 47.8129 72.4223 48.7189 73.1953C48.8196 73.2522 48.9355 73.276 49.0504 73.2633C49.1653 73.2505 49.2733 73.2019 49.3589 73.1243V73.1593C49.9039 72.6623 50.8939 71.7583 51.4529 71.2783C51.6749 71.0913 51.6269 70.7853 51.4529 70.5323C50.9529 69.8253 50.4239 69.2563 50.4239 67.9403V63.5743C50.4239 61.7243 50.5799 60.0183 49.2519 58.7463C48.2059 57.7153 46.4609 57.3613 45.1339 57.3613ZM80.9199 57.3613C78.3199 57.3613 75.4219 58.3623 74.8139 61.6573C74.7499 62.0083 74.9799 62.1743 75.2039 62.2243L77.8679 62.5443C78.1139 62.5303 78.2829 62.2643 78.3289 62.0113C78.5579 60.8773 79.4899 60.3423 80.5299 60.3423C81.0939 60.3423 81.7229 60.5353 82.0559 61.0523C82.4369 61.6283 82.3749 62.4113 82.3749 63.0763V63.4673C80.7929 63.6493 78.7449 63.7593 77.2629 64.4253C75.5519 65.1853 74.3529 66.7323 74.3529 69.0053C74.3529 71.9183 76.1379 73.3713 78.4349 73.3713C80.3729 73.3713 81.4459 72.9153 82.9439 71.3493C83.4389 72.0873 83.5999 72.4223 84.5069 73.1953C84.6074 73.2523 84.7232 73.2761 84.8379 73.2634C84.9527 73.2506 85.0605 73.202 85.1459 73.1243V73.1593C85.6919 72.6623 86.6829 71.7583 87.2409 71.2783C87.4629 71.0913 87.4119 70.7853 87.2409 70.5323C86.7409 69.8253 86.2109 69.2563 86.2109 67.9403V63.5743C86.2109 61.7243 86.3309 60.0183 85.0049 58.7463C83.9549 57.7153 82.2459 57.3613 80.9199 57.3613ZM60.7899 57.5033C59.1099 57.5033 57.8659 58.3513 57.2049 60.1663H57.1689V58.2843C57.1603 58.1555 57.1053 58.0342 57.0141 57.9428C56.9229 57.8515 56.8017 57.7962 56.6729 57.7873H54.1159C53.9751 57.7891 53.8406 57.8459 53.7411 57.9454C53.6415 58.045 53.5848 58.1795 53.5829 58.3203V72.6983C53.5955 72.826 53.6521 72.9454 53.7429 73.036C53.8337 73.1267 53.9532 73.183 54.0809 73.1953H56.8139C56.9548 73.194 57.0895 73.1374 57.189 73.0377C57.2885 72.938 57.3449 72.8032 57.3459 72.6623V65.0293C57.3459 63.3653 57.2659 61.0893 59.2279 61.0893C61.1649 61.0893 60.8959 63.4283 60.8959 65.0293V72.6623C60.8959 72.9333 61.1179 73.1773 61.3939 73.1953H64.1269C64.4169 73.1953 64.6589 72.9523 64.6589 72.6623V65.0293C64.6589 64.2133 64.6259 63.0233 64.9069 62.2963C65.1879 61.5693 65.8779 61.0893 66.5409 61.0893C67.3299 61.0893 67.9349 61.3643 68.1389 62.3313C68.2649 62.9063 68.2099 64.4253 68.2099 65.0293V72.6623C68.2099 72.9333 68.4319 73.1773 68.7059 73.1953H71.4399C71.7299 73.1953 71.9719 72.9523 71.9719 72.6623V63.5743C71.9719 62.0293 72.1259 60.2763 71.2619 59.0653C70.4969 57.9773 69.2469 57.5023 68.1019 57.5023C66.4969 57.5023 65.0009 58.3503 64.3389 60.1653C63.5749 58.3513 62.4969 57.5033 60.7899 57.5033ZM107.262 57.5033C103.313 57.5033 101.12 60.9763 101.12 65.4563C101.12 69.9043 103.287 73.4783 107.262 73.4783C111.085 73.4783 113.511 69.9863 113.511 65.5973C113.511 61.0603 111.313 57.5033 107.262 57.5033ZM122.847 57.5033C120.96 57.5033 119.881 58.4463 119.119 60.4143H119.084V58.2133C119.035 57.9913 118.826 57.8363 118.587 57.8233H116.066C115.936 57.8204 115.809 57.8659 115.711 57.9511C115.612 58.0363 115.549 58.1551 115.533 58.2843V72.6623C115.533 72.9333 115.758 73.1773 116.03 73.1953H118.729C118.869 73.193 119.003 73.136 119.103 73.0365C119.202 72.937 119.258 72.8028 119.26 72.6623V64.9233C119.26 63.9533 119.343 63.0683 119.723 62.1903C120.029 61.4933 120.622 61.0533 121.285 61.0533C123.168 61.0533 122.988 63.3483 122.988 64.9233V72.7343C123.006 72.8563 123.066 72.9685 123.156 73.0524C123.247 73.1363 123.363 73.1871 123.486 73.1963H126.219C126.348 73.1964 126.474 73.1497 126.571 73.0648C126.669 72.9799 126.733 72.8625 126.751 72.7343V63.6813C126.751 62.2893 126.754 60.3573 126.041 59.2073C125.277 57.9663 124.066 57.5033 122.847 57.5033ZM90.0439 57.7523C89.7659 57.7523 89.5469 57.9723 89.5459 58.2843V60.3433C89.5469 60.6533 89.7589 60.8743 90.0439 60.8763H94.7299L89.3689 68.7923C89.0429 69.3033 89.0149 69.8813 89.0149 70.2133V72.3083C89.0149 72.6103 89.3429 72.9383 89.6539 72.7693C92.7099 71.1013 96.3709 71.2493 99.1329 72.7343C99.4689 72.9173 99.8079 72.5743 99.8079 72.2723V70.0703C99.8001 69.9082 99.7502 69.7509 99.663 69.6139C99.5759 69.477 99.4545 69.3651 99.3109 69.2893C97.7429 68.3883 95.9229 68.1113 94.1999 68.1533L98.8499 61.3383C99.2799 60.7253 99.5199 60.3573 99.5239 60.0593V58.2853C99.5239 57.9793 99.3149 57.7533 99.0279 57.7533H90.0439V57.7523ZM107.262 60.4503C108.127 60.4503 108.766 60.8363 109.073 61.8343C109.427 62.9863 109.464 64.4223 109.464 65.6333C109.464 67.4793 109.378 70.5323 107.263 70.5323C105.124 70.5323 105.133 66.7523 105.133 64.9943C105.132 63.2413 105.25 60.4503 107.262 60.4503ZM46.5889 65.7043V66.3083C46.5889 67.4003 46.6289 68.3183 46.0919 69.2893C45.6579 70.0793 44.9759 70.5683 44.2109 70.5683C43.1659 70.5683 42.5429 69.7193 42.5429 68.5083C42.5419 66.1213 44.6169 65.7043 46.5889 65.7043ZM82.3749 65.7043V66.3083C82.3749 67.4003 82.4149 68.3183 81.8789 69.2893C81.4439 70.0793 80.7669 70.5683 79.9969 70.5683C78.9499 70.5683 78.3279 69.7193 78.3279 68.5083C78.3279 66.1213 80.4009 65.7043 82.3749 65.7043Z" fill="#C0C0C0"/>
<path d="M100.09 73.6562V75.7163H101.476V73.6562H100.09ZM59.9382 74.0123V88.6743H61.2162V87.3603C61.4882 87.8813 61.7982 88.2703 62.1742 88.5312C62.5502 88.7933 62.9802 88.9222 63.4512 88.9222C64.3902 88.9222 65.2012 88.4433 65.9012 87.4673C66.6022 86.4903 66.9662 85.0753 66.9662 83.2783C66.9662 82.1003 66.8152 81.1242 66.5042 80.2972C66.1932 79.4712 65.7792 78.8562 65.2622 78.4502C64.7432 78.0442 64.1552 77.8112 63.5232 77.8112C63.0712 77.8112 62.6492 77.9293 62.2792 78.1653C61.9112 78.4013 61.6132 78.7873 61.3212 79.2663V74.0123H59.9382ZM73.0732 77.4553C72.1112 77.4553 71.3452 77.7403 70.8022 78.3073C70.2592 78.8743 69.9872 79.6033 69.9872 80.5093C69.9872 81.0343 70.1022 81.4812 70.3052 81.8932C70.5072 82.3062 70.7952 82.6413 71.1572 82.8873C71.5212 83.1333 72.2472 83.4572 73.3232 83.8102C74.0682 84.0502 74.5132 84.2543 74.7082 84.4143C74.9892 84.6473 75.1352 84.9523 75.1352 85.3733C75.1352 85.8593 74.9652 86.2653 74.6372 86.5803C74.3092 86.8973 73.8512 87.0413 73.2522 87.0413C72.6522 87.0413 72.1582 86.8733 71.7972 86.5093C71.4352 86.1453 71.2402 85.5913 71.1572 84.8413L69.7732 85.1243C70.0862 87.4023 71.2222 88.5342 73.1812 88.5322C74.2262 88.5322 75.0252 88.2373 75.6302 87.6093C76.2342 86.9813 76.5542 86.1383 76.5542 85.1243C76.5542 84.5763 76.4562 84.1023 76.2702 83.7053C76.0988 83.3316 75.8283 83.0121 75.4882 82.7812C75.1522 82.5522 74.3992 82.2453 73.2522 81.8583C72.4182 81.5663 71.9312 81.3523 71.7622 81.2183C71.4782 80.9943 71.3352 80.6882 71.3352 80.2962C71.3352 79.8962 71.4682 79.5573 71.7622 79.3013C72.0562 79.0463 72.5092 78.9113 73.1112 78.9113C74.1692 78.9113 74.7612 79.4923 74.8852 80.6503L76.2352 80.4372C76.1412 79.7052 75.9822 79.1253 75.7392 78.7323C75.4782 78.3217 75.1099 77.9904 74.6742 77.7743C74.2092 77.5423 73.6822 77.4553 73.0732 77.4553ZM81.5592 77.4553C80.4502 77.4553 79.5132 77.9123 78.7892 78.8753C78.0662 79.8383 77.7262 81.2333 77.7262 83.0643C77.7262 84.8283 78.0742 86.2103 78.7892 87.1473C79.5072 88.0813 80.4352 88.5312 81.5952 88.5312C82.5162 88.5312 83.2802 88.2553 83.9022 87.6793C84.5262 87.1043 84.9792 86.2563 85.2152 85.1223L83.7952 84.8743C83.3882 86.3253 82.6352 87.0373 81.5952 87.0393C80.9312 87.0393 80.3892 86.7583 79.9262 86.1523C79.4622 85.5453 79.2002 84.6453 79.1462 83.4543H85.2512V82.9573C85.2512 81.1653 84.8942 79.8203 84.1862 78.8743C83.4772 77.9293 82.6172 77.4553 81.5592 77.4553ZM89.9732 77.4553C89.6422 77.4553 89.3522 77.5672 89.0852 77.8102C88.8182 78.0522 88.5182 78.5543 88.1972 79.3003V77.6673H86.9542V88.2822H88.3392V82.7443C88.3392 81.9723 88.4132 81.2283 88.5882 80.5433C88.6882 80.1493 88.8772 79.8403 89.1202 79.6203C89.3642 79.3993 89.6432 79.3003 89.9362 79.3003C90.2622 79.3003 90.5862 79.4313 90.9302 79.6913L91.3922 78.0233C90.9102 77.6373 90.4372 77.4553 89.9732 77.4553ZM106.942 77.4553C105.846 77.4553 104.943 77.9172 104.243 78.8402C103.547 79.7632 103.18 81.1492 103.18 82.9932C103.18 84.8242 103.552 86.2113 104.243 87.1473C104.936 88.0813 105.802 88.5312 106.871 88.5312C107.755 88.5312 108.513 88.2033 109.143 87.5373C109.773 86.8723 110.157 85.8913 110.315 84.6263L108.965 84.4133C108.864 85.3183 108.629 85.9703 108.255 86.4013C107.882 86.8313 107.432 87.0403 106.906 87.0403C106.236 87.0403 105.665 86.7273 105.236 86.0823C104.809 85.4363 104.598 84.4023 104.598 82.9583C104.598 81.5583 104.825 80.5483 105.272 79.9053C105.72 79.2613 106.293 78.9113 106.976 78.9113C107.433 78.9113 107.823 79.0883 108.148 79.4423C108.475 79.7983 108.691 80.3602 108.822 81.0762L110.173 80.7933C110.011 79.6743 109.652 78.8313 109.071 78.2723C108.491 77.7123 107.787 77.4553 106.942 77.4553ZM114.859 77.4553C113.749 77.4553 112.813 77.9123 112.089 78.8753C111.366 79.8383 111.024 81.2333 111.024 83.0643C111.024 84.8283 111.373 86.2103 112.089 87.1473C112.808 88.0813 113.735 88.5312 114.894 88.5312C115.812 88.5312 116.579 88.2553 117.202 87.6793C117.824 87.1043 118.277 86.2563 118.516 85.1223L117.096 84.8743C116.686 86.3253 115.968 87.0373 114.93 87.0393C114.266 87.0393 113.689 86.7583 113.226 86.1523C112.763 85.5453 112.501 84.6453 112.445 83.4543H118.551V82.9573C118.551 81.1653 118.194 79.8203 117.486 78.8743C116.78 77.9293 115.918 77.4553 114.859 77.4553ZM123.061 77.4553C122.095 77.4553 121.332 77.7403 120.789 78.3073C120.244 78.8733 119.972 79.6033 119.972 80.5093C119.972 81.0343 120.054 81.4812 120.256 81.8932C120.456 82.3062 120.745 82.6413 121.109 82.8873C121.47 83.1333 122.199 83.4572 123.275 83.8102C124.018 84.0502 124.501 84.2543 124.695 84.4143C124.976 84.6473 125.121 84.9523 125.121 85.3733C125.121 85.8593 124.953 86.2653 124.624 86.5803C124.298 86.8973 123.839 87.0413 123.24 87.0413C122.638 87.0413 122.146 86.8733 121.784 86.5093C121.423 86.1453 121.189 85.5913 121.109 84.8413L119.725 85.1243C120.038 87.4023 121.171 88.5342 123.132 88.5322C124.179 88.5322 125.013 88.2373 125.617 87.6093C126.221 86.9813 126.539 86.1383 126.539 85.1243C126.539 84.5763 126.443 84.1023 126.257 83.7053C126.073 83.3292 125.791 83.01 125.44 82.7812C125.104 82.5522 124.386 82.2453 123.24 81.8583C122.405 81.5663 121.883 81.3523 121.713 81.2183C121.43 80.9943 121.287 80.6882 121.287 80.2962C121.287 79.8962 121.454 79.5573 121.749 79.3013C122.043 79.0463 122.499 78.9113 123.099 78.9113C124.157 78.9113 124.748 79.4923 124.873 80.6503L126.222 80.4372C126.128 79.7052 125.97 79.1253 125.725 78.7323C125.465 78.3217 125.097 77.9904 124.661 77.7743C124.198 77.5423 123.667 77.4553 123.061 77.4553ZM91.3932 77.6683L94.4832 88.2832H95.7962L98.8852 77.6683H97.4652L95.6542 84.1653C95.4352 84.9503 95.2412 85.6293 95.1212 86.1883C94.9712 85.4833 94.8252 84.7423 94.6252 84.0223L92.8502 77.6683H91.3932ZM100.09 77.6683V88.2832H101.476V77.6683H100.09ZM54.5772 77.8112C53.4792 77.8112 52.5962 78.3033 51.8802 79.2663C51.1632 80.2293 50.7782 81.6243 50.7782 83.4553C50.7782 85.2203 51.1332 86.5683 51.8432 87.5023C52.5522 88.4373 53.5002 88.9222 54.6492 88.9222C55.5602 88.9222 56.3042 88.6102 56.9202 88.0342C57.5362 87.4592 57.9622 86.6112 58.1992 85.4782L56.8142 85.2653C56.4102 86.7163 55.6782 87.4283 54.6492 87.4303C53.9902 87.4303 53.4392 87.1493 52.9802 86.5423C52.5202 85.9363 52.2532 85.0363 52.1992 83.8453H58.2342L58.2702 83.3483C58.2702 81.5563 57.9062 80.1762 57.2052 79.2292C56.5042 78.2842 55.6242 77.8112 54.5772 77.8112ZM38.9932 78.0592L41.4782 88.6743H42.9332L44.5672 80.5093L44.8512 82.3193L46.1642 88.6743H47.5842L50.1052 78.0592H48.7922L47.4062 84.2002L46.9442 86.2603L46.5182 84.2002L45.3112 78.0583H43.8912L42.6132 84.2713L42.1872 86.4723L41.6912 84.2002L40.4122 78.0583H38.9932V78.0592ZM81.5232 78.9113C82.2132 78.9113 82.7812 79.2443 83.2272 79.9053C83.5332 80.3573 83.7332 81.0452 83.7942 81.9642H79.2142C79.2582 81.0322 79.5212 80.3143 79.9612 79.7633C80.4012 79.2133 80.9042 78.9113 81.5232 78.9113ZM114.823 78.9113C115.511 78.9113 116.081 79.2443 116.527 79.9053C116.835 80.3573 117.033 81.0452 117.096 81.9642H112.515C112.559 81.0322 112.823 80.3143 113.261 79.7633C113.698 79.2133 114.204 78.9113 114.823 78.9113ZM54.5772 79.3013C55.2592 79.3013 55.8072 79.6352 56.2472 80.2962C56.5512 80.7482 56.7522 81.4363 56.8142 82.3553H52.3042C52.3472 81.4233 52.5792 80.6683 53.0152 80.1193C53.4492 79.5673 53.9632 79.3013 54.5772 79.3013ZM63.3822 79.3013C63.9972 79.3013 64.5222 79.6432 64.9452 80.2962C65.3682 80.9482 65.5492 81.9553 65.5492 83.3493C65.5492 84.7063 65.3492 85.7193 64.9092 86.4023C64.4702 87.0863 63.9492 87.4313 63.3832 87.4313C62.9672 87.4313 62.5892 87.2912 62.2472 87.0052C61.9032 86.7192 61.6522 86.3093 61.4652 85.7633C61.2792 85.2173 61.1822 84.3763 61.1822 83.2783C61.1822 81.9843 61.4132 81.0153 61.8562 80.3313C62.2992 79.6473 62.8162 79.3013 63.3822 79.3013Z" fill="#EEEEEE"/>
<path d="M19.094 68.048L13.804 70.319L18.703 72.414L24.384 70.319L19.094 68.048ZM11.142 70.887L10.964 81.113L18.704 84.521V73.905L11.142 70.887ZM27.046 70.887L20.052 73.55V83.562L27.046 80.722V70.887ZM35.389 39.078L30.063 41.349L34.998 43.444L40.679 41.349L35.389 39.078ZM28.004 42.096V52.32L34.608 54.237L34.821 44.935L28.004 42.096ZM42.773 42.663L36.524 45.326V55.373L42.773 52.533V42.663ZM10.377 53.468L5.08705 55.74L9.98605 57.835L15.666 55.74L10.377 53.468ZM2.42605 56.309L2.24805 66.533L9.98705 69.941V59.326L2.42605 56.309ZM18.33 56.309L11.336 58.971V68.983L18.33 66.143V56.309ZM27.418 53.091L22.128 55.362L27.027 57.456L32.707 55.362L27.418 53.091ZM19.466 55.93L19.289 66.155L27.028 69.563V58.948L19.466 55.93ZM35.371 55.93L28.377 58.593V68.605L35.371 65.764V55.93ZM52.033 39.078L46.744 41.349L51.643 43.444L57.324 41.349L52.033 39.078ZM44.081 41.918L43.903 52.143L51.643 55.55V44.936L44.081 41.918ZM59.985 41.918L52.991 44.581V54.592L59.985 51.752V41.918Z" fill="#F7A80D"/>
</svg>
