<svg width="24" height="24" viewBox="0 0 24 24" fill="none" xmlns="http://www.w3.org/2000/svg">
<g clip-path="url(#clip0_144_266)">
<path d="M16.5467 10.5333C16.4218 10.4091 16.2528 10.3394 16.0767 10.3394C15.9006 10.3394 15.7316 10.4091 15.6067 10.5333C15.4825 10.6582 15.4128 10.8271 15.4128 11.0033C15.4128 11.1794 15.4825 11.3484 15.6067 11.4733L18.1334 13.9999H6.00002V2.51994C6.00002 2.34313 5.92978 2.17356 5.80476 2.04853C5.67973 1.92351 5.51016 1.85327 5.33335 1.85327C5.15654 1.85327 4.98697 1.92351 4.86195 2.04853C4.73693 2.17356 4.66669 2.34313 4.66669 2.51994V13.9999C4.66669 14.3536 4.80716 14.6927 5.05721 14.9427C5.30726 15.1928 5.6464 15.3333 6.00002 15.3333H18.1L15.6067 17.8333C15.4825 17.9582 15.4128 18.1271 15.4128 18.3033C15.4128 18.4794 15.4825 18.6484 15.6067 18.7733C15.7309 18.8964 15.8985 18.9659 16.0734 18.9666C16.1611 18.9671 16.2481 18.9503 16.3293 18.9171C16.4105 18.8839 16.4844 18.8351 16.5467 18.7733L20.6667 14.6666L16.5467 10.5333Z" fill="#A7A7A7"/>
</g>
<defs>
<clipPath id="clip0_144_266">
<rect width="24" height="24" fill="white"/>
</clipPath>
</defs>
</svg>
