<svg width="129" height="128" viewBox="0 0 129 128" fill="none" xmlns="http://www.w3.org/2000/svg">
<path d="M86.5 118.4C86.5 118.1 86.6 117.8 86.5 117.5C86.3 117.2 86.2 117 86 116.8C85.5 116.2 85 115.7 84.4 115.1L78.5 109.1L83.1 104.4L85.6 101.7C86 101.3 86.5 100.5 86.5 99.9V99.5C86.5 98.6 86.1 98.1 85.2 97.9L85.4 98H84.7C84.1 98 82.4 99.6 82 100.1C80.5 101.6 79.5 103 77.5 104.5V92.6C77.5 91.5 76.9 91 75.8 91H75.5C74.4 91 73.5 91.5 73.5 92.6V118.5C73.5 119.6 74.4 120 75.5 120H75.8C76.9 120 77.5 119.5 77.5 118.5V113.9L80.5 116.8C81.4 117.7 82.3 118.3 83.1 119.1C83.5 119.5 84.3 120 84.9 120H85.2C86.2 120 86.5 119.5 86.7 118.7L86.5 118.8V118.4ZM125.6 98H125.2C123 98 121 98.6 119.2 99.9C116.2 102.1 114.5 105 114.5 108.8V118.6C114.5 119.7 114.9 120 116 120H116.3C117.4 120 118.5 119.6 118.5 118.6V109.4C118.5 107.4 118.9 105.5 120.4 104C121.6 102.8 123.1 101.8 124.8 101.8C126.1 101.8 127.6 101.5 127.6 99.9C127.6 98.7 126.7 98 125.6 98ZM110.2 103C109.1 101.2 107.6 99.8 105.7 98.9C102.2 97.2 98.5 97 95.1 99L94.6 99.3C93.2 100.1 92 101.1 91.1 102.4C88.5 106.2 88.2 110.5 90.5 114.5L90.7 114.9C91.7 116.6 93 118 94.7 118.9C98.3 120.9 102.2 121.1 105.8 119.1L106.1 118.9C107.1 118.3 107.3 117.3 106.8 116.3C106.6 115.9 106.2 115.6 105.8 115.4H105.6C104.9 115.3 103 116.1 102.3 116.4C100.9 116.6 99.3 116.7 97.9 116.2L105.5 109.6C106.6 108.6 107.8 107.5 109 106.6C110 105.8 111 104.7 110.2 103.3V103ZM103.3 106.6L94.8 113.9C94.5 113.6 94.3 113.2 94.1 112.9C93.5 111.9 93.1 110.7 93.1 109.5C93 106.5 94.1 104 96.8 102.5C98.8 101.3 101 101.1 103.2 101.9C104.3 102.3 105.6 103 106.3 104C105.3 104.9 104.2 105.7 103.3 106.6ZM22.5 91H22.2C21.1 91 20.5 91.4 20.5 92.5V100.6C18.5 98.8 16.1 98.1 13.3 98.1H12.5C10.6 98.1 8.8 98.4 7.1 99.4C3.5 101.5 1.5 104.6 1.5 108.8V109.6C1.5 111.5 2 113.1 3 114.8C5.1 118.4 8.4 120.2 12.5 120.2H13.3C15.2 120.2 17.2 119.9 18.8 119C22.4 116.9 24.5 113.8 24.5 109.7V92.7C24.5 91.4 23.6 91 22.5 91ZM19.4 112.8C17.9 115.3 15.7 116.7 12.8 116.7C11.6 116.7 10.4 116.4 9.4 115.8C6.8 114.4 5.3 112.1 5.3 109.1C5.3 108 5.5 107 6 106C7.4 103.1 9.7 101.5 12.9 101.5C14.5 101.5 15.9 102 17.1 102.9C19.2 104.4 20.4 106.4 20.4 109C20.5 110.4 20.1 111.6 19.4 112.8ZM38.1 98H37.5C35.6 98 33.7 98.3 32.1 99.3C28.5 101.4 26.5 104.5 26.5 108.7V109.5C26.5 111.4 27 113 28 114.7C30.1 118.3 33.4 120.1 37.6 120.1H38.4C40.3 120.1 42.2 119.8 43.9 118.9C47.5 116.8 49.6 113.7 49.6 109.6V108.8C49.6 107 49 105.5 48.2 104C46 100 42.5 98 38.1 98ZM44.5 112.8C43 115.2 40.9 116.7 38 116.7C36.7 116.7 35.4 116.4 34.2 115.7C31.7 114.2 30.3 112.1 30.3 109.2C30.3 108.1 30.5 107.1 31 106.1C32.4 103.2 34.7 101.6 37.9 101.6C39.4 101.6 40.7 102 41.9 102.8C44.1 104.3 45.4 106.4 45.4 109.1C45.5 110.3 45.2 111.6 44.5 112.8ZM69 99.4L68.9 99.5C67.2 98.4 65.3 98 63.3 98H62.5C60.6 98 58.7 98.3 57.1 99.3C53.5 101.4 51.5 104.5 51.5 108.6V109.4C51.5 110.4 51.7 111.3 51.9 112.3C53.5 117.8 57.8 120.9 63.6 120.5C65.2 120.4 69.5 119.9 69.5 117.5V117.1C69.5 116.2 68.8 115.4 68 115.2L67.9 115H67.2L67 115.3C66.1 115.7 64.6 116.5 63.6 116.5C62.4 116.5 61.1 116.5 60 115.9C57.1 114.5 55.4 112.2 55.4 109C55.4 107.9 55.6 106.9 56.1 105.9C57.5 103.1 59.8 101.3 63 101.4C63.6 101.4 64.7 101.7 65.3 102C65.8 102.2 67.1 103 67.7 103H67.9L68 102.8C68.9 102.6 69.6 101.9 69.6 101V100.6C69.6 100.2 69.4 99.9 69.2 99.6L69 99.4ZM6.3 68.2L6.4 68.4C14.3 81.8 28.1 87.4 43.2 87.4C72.4 87.4 96.5 74.3 107.5 46.8C114.9 47.2 122.5 45 126.1 37.9L127 36.1L125.2 35.1C120.9 32.6 115.2 32.3 110.4 33.7C109.8 28.5 106.4 24 102.4 20.8L100.8 19.5L99.5 21.1C96.8 24.2 96 29.4 96.4 33.4C96.7 36.3 97.6 39.3 99.4 41.7C98 42.5 96.5 43.6 95.1 44.1C92.3 45.1 89.2 46.1 86.2 46.1H79.5V32H66.5V7H51.5V19H26.5V32H13.5V46H2.3L2.1 47.5C1.6 53.9 2.4 60.1 5.1 66L6.3 68.2ZM66.5 35H77.5V46H66.5V35ZM53.5 9H64.5V20H53.5V9ZM53.5 22H64.5V33H53.5V22ZM53.5 35H64.5V46H53.5V35ZM40.5 22H51.5V33H40.5V22ZM40.5 35H51.5V46H40.5V35ZM41.6 66.2C41.6 67.9 40.2 69.3 38.5 69.3C36.8 69.3 35.4 67.9 35.4 66.2C35.4 64.5 36.8 63.1 38.5 63.1C40.2 63.2 41.6 64.5 41.6 66.2ZM28.5 22H38.5V33H28.5V22ZM28.5 35H38.5V46H28.5V35ZM15.5 35H26.5V46H15.5V35ZM17.9 73C19.5 73 21.1 73 22.6 72.9C26.5 72.7 29.9 72.2 32.7 71.4C35 76.7 39.2 81.6 46.7 85.2L43.2 85.3C27.4 85.2 18.9 79.9 11.9 72.9C14 73 16 73 17.9 73ZM38.5 68.4C39.7 68.4 40.7 67.4 40.7 66.2C40.7 65.9 40.6 65.6 40.5 65.4C40.3 65.7 40.1 65.9 39.7 65.9C39.2 65.9 38.8 65.5 38.8 65C38.8 64.7 39 64.4 39.2 64.2C39.1 64.1 38.8 64 38.5 64C37.3 64 36.3 65 36.3 66.2C36.4 67.4 37.3 68.4 38.5 68.4Z" fill="#019BC6"/>
</svg>
