<svg width="24" height="24" viewBox="0 0 24 24" fill="none" xmlns="http://www.w3.org/2000/svg">
<path d="M9.95277 20.3976C9.43077 20.3976 8.93637 20.154 8.61957 19.734L4.33197 14.0688C4.1991 13.8939 4.10207 13.6946 4.04643 13.4821C3.99079 13.2697 3.97765 13.0484 4.00775 12.8309C4.03785 12.6133 4.11061 12.4039 4.22185 12.2146C4.33309 12.0252 4.48062 11.8597 4.65597 11.7276C4.83088 11.5943 5.03041 11.497 5.24307 11.4411C5.45574 11.3853 5.67735 11.372 5.89515 11.4021C6.11296 11.4323 6.32266 11.5051 6.5122 11.6166C6.70174 11.728 6.86737 11.8759 6.99957 12.0516L9.82077 15.7764L16.914 4.38595C17.1492 4.00987 17.524 3.74245 17.9562 3.64234C18.3883 3.54223 18.8425 3.61762 19.2192 3.85195C20.0028 4.33915 20.244 5.37115 19.7544 6.15595L11.3736 19.608C11.2305 19.8386 11.0333 20.0309 10.7991 20.1681C10.5649 20.3052 10.3007 20.3832 10.0296 20.3952L9.95277 20.3976Z" fill="#979AE6"/>
</svg>
