<svg width="178" height="178" viewBox="0 0 178 178" fill="none" xmlns="http://www.w3.org/2000/svg">
<g filter="url(#filter0_ddiii_157_277)">
<path fill-rule="evenodd" clip-rule="evenodd" d="M104.136 27C114.175 27 119.193 27 124.598 28.7083C130.498 30.8558 135.144 35.5025 137.292 41.4025C139 46.8058 139 51.8258 139 61.8642V92.1358C139 102.175 139 107.193 137.292 112.598C135.144 118.498 130.498 123.144 124.598 125.291C119.193 127 114.175 127 104.136 127H73.8642C63.825 127 58.8058 127 53.4025 125.291C47.5025 123.144 42.8558 118.498 40.7083 112.598C39 107.193 39 102.175 39 92.1358V61.8642C39 51.8258 39 46.8058 40.7083 41.4025C42.8558 35.5025 47.5025 30.8558 53.4025 28.7083C58.8058 27 63.825 27 73.8642 27H104.136Z" fill="url(#paint0_linear_157_277)"/>
<path d="M104.136 27.963C114.207 27.963 119.062 27.9721 124.287 29.6203C129.904 31.6712 134.329 36.0956 136.38 41.7125C138.028 46.9376 138.037 51.794 138.037 61.8642V92.1358C138.037 102.207 138.028 107.062 136.38 112.288C134.329 117.904 129.904 122.329 124.288 124.379C119.062 126.028 114.207 126.037 104.136 126.037H73.8642C63.7931 126.037 58.9376 126.028 53.7126 124.379C48.0957 122.329 43.6712 117.904 41.6203 112.287C39.9722 107.062 39.963 102.207 39.963 92.1358V61.8642C39.963 51.794 39.9721 46.9376 41.6203 41.7126C43.6712 36.0956 48.0956 31.6712 53.7126 29.6203C58.9376 27.9721 63.7931 27.963 73.8642 27.963H104.136Z" stroke="url(#paint1_linear_157_277)" stroke-opacity="0.7" stroke-width="1.92597"/>
<path d="M104.136 27.963C114.207 27.963 119.062 27.9721 124.287 29.6203C129.904 31.6712 134.329 36.0956 136.38 41.7125C138.028 46.9376 138.037 51.794 138.037 61.8642V92.1358C138.037 102.207 138.028 107.062 136.38 112.288C134.329 117.904 129.904 122.329 124.288 124.379C119.062 126.028 114.207 126.037 104.136 126.037H73.8642C63.7931 126.037 58.9376 126.028 53.7126 124.379C48.0957 122.329 43.6712 117.904 41.6203 112.287C39.9722 107.062 39.963 102.207 39.963 92.1358V61.8642C39.963 51.794 39.9721 46.9376 41.6203 41.7126C43.6712 36.0956 48.0956 31.6712 53.7126 29.6203C58.9376 27.9721 63.7931 27.963 73.8642 27.963H104.136Z" stroke="url(#paint2_linear_157_277)" stroke-opacity="0.5" stroke-width="1.92597"/>
</g>
<g filter="url(#filter1_d_157_277)">
<path d="M80.3281 107.469C85.9062 107.469 90.4062 102.969 90.4062 97.3906V87.3125H80.3281C74.75 87.3125 70.25 91.8125 70.25 97.3906C70.25 102.969 74.75 107.469 80.3281 107.469Z" fill="#0ACF83"/>
<path d="M70.25 77.2344C70.25 71.6563 74.75 67.1562 80.3281 67.1562H90.4062V87.3125H80.3281C74.75 87.3125 70.25 82.8125 70.25 77.2344Z" fill="#A259FF"/>
<path d="M70.25 57.0781C70.25 51.5 74.75 47 80.3281 47H90.4062V67.1562H80.3281C74.75 67.1562 70.25 62.6562 70.25 57.0781Z" fill="#F24E1E"/>
<path d="M90.4062 47H100.484C106.062 47 110.562 51.5 110.562 57.0781C110.562 62.6562 106.062 67.1562 100.484 67.1562H90.4062V47Z" fill="#FF7262"/>
<path d="M110.562 77.2344C110.562 82.8125 106.062 87.3125 100.484 87.3125C94.9063 87.3125 90.4062 82.8125 90.4062 77.2344C90.4062 71.6563 94.9063 67.1562 100.484 67.1562C106.062 67.1562 110.562 71.6563 110.562 77.2344Z" fill="#1ABCFE"/>
</g>
<defs>
<filter id="filter0_ddiii_157_277" x="0.480591" y="0.0364141" width="177.039" height="177.039" filterUnits="userSpaceOnUse" color-interpolation-filters="sRGB">
<feFlood flood-opacity="0" result="BackgroundImageFix"/>
<feColorMatrix in="SourceAlpha" type="matrix" values="0 0 0 0 0 0 0 0 0 0 0 0 0 0 0 0 0 0 127 0" result="hardAlpha"/>
<feOffset dy="11.5558"/>
<feGaussianBlur stdDeviation="13.4818"/>
<feComposite in2="hardAlpha" operator="out"/>
<feColorMatrix type="matrix" values="0 0 0 0 0 0 0 0 0 0 0 0 0 0 0 0 0 0 0.2 0"/>
<feBlend mode="multiply" in2="BackgroundImageFix" result="effect1_dropShadow_157_277"/>
<feColorMatrix in="SourceAlpha" type="matrix" values="0 0 0 0 0 0 0 0 0 0 0 0 0 0 0 0 0 0 127 0" result="hardAlpha"/>
<feOffset dy="11.5558"/>
<feGaussianBlur stdDeviation="19.2597"/>
<feComposite in2="hardAlpha" operator="out"/>
<feColorMatrix type="matrix" values="0 0 0 0 0.972549 0 0 0 0 0.0784314 0 0 0 0 0.0784314 0 0 0 0.14 0"/>
<feBlend mode="multiply" in2="effect1_dropShadow_157_277" result="effect2_dropShadow_157_277"/>
<feBlend mode="normal" in="SourceGraphic" in2="effect2_dropShadow_157_277" result="shape"/>
<feColorMatrix in="SourceAlpha" type="matrix" values="0 0 0 0 0 0 0 0 0 0 0 0 0 0 0 0 0 0 127 0" result="hardAlpha"/>
<feOffset dy="-8.99812"/>
<feGaussianBlur stdDeviation="5.99874"/>
<feComposite in2="hardAlpha" operator="arithmetic" k2="-1" k3="1"/>
<feColorMatrix type="matrix" values="0 0 0 0 1 0 0 0 0 1 0 0 0 0 1 0 0 0 0.5 0"/>
<feBlend mode="normal" in2="shape" result="effect3_innerShadow_157_277"/>
<feColorMatrix in="SourceAlpha" type="matrix" values="0 0 0 0 0 0 0 0 0 0 0 0 0 0 0 0 0 0 127 0" result="hardAlpha"/>
<feOffset dx="14.0521" dy="21.5505"/>
<feGaussianBlur stdDeviation="17.5088"/>
<feComposite in2="hardAlpha" operator="arithmetic" k2="-1" k3="1"/>
<feColorMatrix type="matrix" values="0 0 0 0 1 0 0 0 0 1 0 0 0 0 1 0 0 0 0.8 0"/>
<feBlend mode="normal" in2="effect3_innerShadow_157_277" result="effect4_innerShadow_157_277"/>
<feColorMatrix in="SourceAlpha" type="matrix" values="0 0 0 0 0 0 0 0 0 0 0 0 0 0 0 0 0 0 127 0" result="hardAlpha"/>
<feOffset dx="2.99937" dy="5.48885"/>
<feGaussianBlur stdDeviation="3.74922"/>
<feComposite in2="hardAlpha" operator="arithmetic" k2="-1" k3="1"/>
<feColorMatrix type="matrix" values="0 0 0 0 1 0 0 0 0 1 0 0 0 0 1 0 0 0 1 0"/>
<feBlend mode="normal" in2="effect4_innerShadow_157_277" result="effect5_innerShadow_157_277"/>
</filter>
<filter id="filter1_d_157_277" x="56" y="46" width="68" height="68.4688" filterUnits="userSpaceOnUse" color-interpolation-filters="sRGB">
<feFlood flood-opacity="0" result="BackgroundImageFix"/>
<feColorMatrix in="SourceAlpha" type="matrix" values="0 0 0 0 0 0 0 0 0 0 0 0 0 0 0 0 0 0 127 0" result="hardAlpha"/>
<feOffset dx="1" dy="3"/>
<feGaussianBlur stdDeviation="2"/>
<feComposite in2="hardAlpha" operator="out"/>
<feColorMatrix type="matrix" values="0 0 0 0 0.545833 0 0 0 0 0.200139 0 0 0 0 0.200139 0 0 0 0.25 0"/>
<feBlend mode="normal" in2="BackgroundImageFix" result="effect1_dropShadow_157_277"/>
<feBlend mode="normal" in="SourceGraphic" in2="effect1_dropShadow_157_277" result="shape"/>
</filter>
<linearGradient id="paint0_linear_157_277" x1="35.5" y1="22.2869" x2="135.309" y2="100.711" gradientUnits="userSpaceOnUse">
<stop stop-color="white"/>
<stop offset="1" stop-color="#DADADA"/>
</linearGradient>
<linearGradient id="paint1_linear_157_277" x1="39" y1="27" x2="138.913" y2="126.913" gradientUnits="userSpaceOnUse">
<stop stop-color="white" stop-opacity="0.5"/>
<stop offset="0.471523" stop-color="white" stop-opacity="0"/>
</linearGradient>
<linearGradient id="paint2_linear_157_277" x1="138.913" y1="126.913" x2="39" y2="27" gradientUnits="userSpaceOnUse">
<stop stop-opacity="0.5"/>
<stop offset="0.267412" stop-opacity="0"/>
</linearGradient>
</defs>
</svg>
