<svg width="230" height="54" viewBox="0 0 230 54" fill="none" xmlns="http://www.w3.org/2000/svg">
<path d="M20.5543 0.444336V6.42017C18.9082 6.42017 17.6238 6.65558 16.7013 7.1264C15.7787 7.5791 15.3808 8.49358 15.5074 9.86985L16.3486 17.8829C16.5656 19.911 16.3395 21.5499 15.6702 22.7993C15.019 24.0488 14.0151 25.0087 12.6584 25.6786C11.3198 26.3306 9.73697 26.7923 7.90997 27.0638C9.8455 27.3536 11.4826 27.8245 12.8212 28.4765C14.1598 29.1282 15.1366 30.0699 15.7516 31.3013C16.3666 32.5327 16.5656 34.1806 16.3486 36.245L15.5074 44.2581C15.3808 45.6343 15.7787 46.5487 16.7013 47.0014C17.6238 47.4722 18.9082 47.7076 20.5543 47.7076V53.6835C15.5617 53.6835 12.0524 52.9229 10.0264 51.4019C8.01851 49.8988 7.20449 47.3184 7.58436 43.6604L8.39838 35.8918C8.5431 34.5156 8.30794 33.4382 7.69291 32.6595C7.09596 31.8808 6.20959 31.3376 5.03379 31.0296C3.858 30.7038 2.50132 30.5408 0.963745 30.5408V23.587C2.48323 23.587 3.83088 23.4331 5.00667 23.1253C6.18247 22.7993 7.07788 22.2471 7.69291 21.4684C8.30794 20.6897 8.5431 19.6122 8.39838 18.236L7.58436 10.5217C7.18641 6.79138 8.00041 4.18375 10.0264 2.69886C12.0524 1.19584 15.5617 0.444336 20.5543 0.444336Z" fill="#FDFDFD"/>
<path d="M35.8942 41.064H29.7028L29.7418 36.4937H35.8942C37.4306 36.4937 38.7262 36.1486 39.7809 35.4585C40.8356 34.7554 41.6298 33.7332 42.1637 32.3921C42.7106 31.0509 42.984 29.4299 42.984 27.5288V26.1421C42.984 24.6838 42.8278 23.4012 42.5153 22.2944C42.2158 21.1877 41.7666 20.2567 41.1676 19.5015C40.5686 18.7463 39.833 18.1799 38.9606 17.8022C38.0882 17.4116 37.0856 17.2163 35.9528 17.2163H29.5856V12.6265H35.9528C37.8538 12.6265 39.5921 12.952 41.1676 13.603C42.7561 14.241 44.1298 15.159 45.2887 16.3569C46.4476 17.5549 47.3395 18.9871 47.9645 20.6538C48.6025 22.3075 48.9215 24.1499 48.9215 26.1812V27.5288C48.9215 29.547 48.6025 31.3895 47.9645 33.0562C47.3395 34.7228 46.4476 36.1551 45.2887 37.353C44.1429 38.5379 42.7692 39.4559 41.1676 40.1069C39.5791 40.745 37.8212 41.064 35.8942 41.064ZM33.0231 12.6265V41.064H27.1637V12.6265H33.0231ZM62.5543 41.4546C60.9137 41.4546 59.4423 41.1942 58.1403 40.6733C56.8382 40.1395 55.7314 39.4038 54.8199 38.4663C53.9215 37.5288 53.2314 36.4416 52.7496 35.2046C52.2679 33.9546 52.027 32.6265 52.027 31.2202V30.439C52.027 28.8374 52.2548 27.3726 52.7106 26.0444C53.1663 24.7163 53.8173 23.564 54.6637 22.5874C55.5231 21.6108 56.5647 20.8621 57.7887 20.3413C59.0127 19.8075 60.3929 19.5405 61.9293 19.5405C63.4267 19.5405 64.7548 19.7879 65.9137 20.2827C67.0726 20.7775 68.0426 21.4806 68.8239 22.3921C69.6181 23.3035 70.2171 24.3973 70.6207 25.6733C71.0244 26.9364 71.2262 28.3426 71.2262 29.8921V32.2358H54.4293V28.4858H65.6989V28.0562C65.6989 27.2749 65.5556 26.5783 65.2692 25.9663C64.9957 25.3413 64.5791 24.8465 64.0192 24.4819C63.4593 24.1174 62.7431 23.9351 61.8707 23.9351C61.1285 23.9351 60.4905 24.0978 59.9567 24.4233C59.4228 24.7489 58.9866 25.2046 58.6481 25.7905C58.3226 26.3765 58.0752 27.0666 57.9059 27.8608C57.7496 28.6421 57.6715 29.5015 57.6715 30.439V31.2202C57.6715 32.0666 57.7887 32.8478 58.0231 33.564C58.2705 34.2801 58.6155 34.8986 59.0582 35.4194C59.514 35.9403 60.0608 36.3439 60.6989 36.6304C61.3499 36.9168 62.0856 37.0601 62.9059 37.0601C63.9215 37.0601 64.8655 36.8647 65.7379 36.4741C66.6233 36.0705 67.3851 35.465 68.0231 34.6577L70.7574 37.6265C70.3147 38.2645 69.7093 38.8765 68.941 39.4624C68.1858 40.0483 67.2744 40.5301 66.2067 40.9077C65.139 41.2723 63.9215 41.4546 62.5543 41.4546ZM81.3434 36.9624L86.0309 19.9312H91.9098L84.7809 41.064H81.2262L81.3434 36.9624ZM78.1207 19.9312L82.8278 36.9819L82.9254 41.064H79.3512L72.2223 19.9312H78.1207ZM103.882 41.4546C102.242 41.4546 100.77 41.1942 99.4684 40.6733C98.1663 40.1395 97.0595 39.4038 96.1481 38.4663C95.2496 37.5288 94.5595 36.4416 94.0778 35.2046C93.596 33.9546 93.3551 32.6265 93.3551 31.2202V30.439C93.3551 28.8374 93.583 27.3726 94.0387 26.0444C94.4944 24.7163 95.1455 23.564 95.9918 22.5874C96.8512 21.6108 97.8929 20.8621 99.1168 20.3413C100.341 19.8075 101.721 19.5405 103.257 19.5405C104.755 19.5405 106.083 19.7879 107.242 20.2827C108.401 20.7775 109.371 21.4806 110.152 22.3921C110.946 23.3035 111.545 24.3973 111.949 25.6733C112.352 26.9364 112.554 28.3426 112.554 29.8921V32.2358H95.7574V28.4858H107.027V28.0562C107.027 27.2749 106.884 26.5783 106.597 25.9663C106.324 25.3413 105.907 24.8465 105.347 24.4819C104.787 24.1174 104.071 23.9351 103.199 23.9351C102.457 23.9351 101.819 24.0978 101.285 24.4233C100.751 24.7489 100.315 25.2046 99.9762 25.7905C99.6507 26.3765 99.4033 27.0666 99.234 27.8608C99.0778 28.6421 98.9996 29.5015 98.9996 30.439V31.2202C98.9996 32.0666 99.1168 32.8478 99.3512 33.564C99.5986 34.2801 99.9436 34.8986 100.386 35.4194C100.842 35.9403 101.389 36.3439 102.027 36.6304C102.678 36.9168 103.414 37.0601 104.234 37.0601C105.25 37.0601 106.194 36.8647 107.066 36.4741C107.951 36.0705 108.713 35.465 109.351 34.6577L112.086 37.6265C111.643 38.2645 111.037 38.8765 110.269 39.4624C109.514 40.0483 108.602 40.5301 107.535 40.9077C106.467 41.2723 105.25 41.4546 103.882 41.4546ZM121.695 11.064V41.064H116.05V11.064H121.695ZM125.445 30.7124V30.3022C125.445 28.7528 125.666 27.327 126.109 26.0249C126.552 24.7098 127.196 23.5705 128.043 22.6069C128.889 21.6434 129.931 20.8947 131.168 20.3608C132.405 19.814 133.824 19.5405 135.425 19.5405C137.027 19.5405 138.453 19.814 139.703 20.3608C140.953 20.8947 142.001 21.6434 142.847 22.6069C143.707 23.5705 144.358 24.7098 144.8 26.0249C145.243 27.327 145.464 28.7528 145.464 30.3022V30.7124C145.464 32.2489 145.243 33.6746 144.8 34.9897C144.358 36.2918 143.707 37.4312 142.847 38.4077C142.001 39.3713 140.959 40.12 139.722 40.6538C138.485 41.1877 137.066 41.4546 135.464 41.4546C133.863 41.4546 132.437 41.1877 131.187 40.6538C129.95 40.12 128.902 39.3713 128.043 38.4077C127.196 37.4312 126.552 36.2918 126.109 34.9897C125.666 33.6746 125.445 32.2489 125.445 30.7124ZM131.07 30.3022V30.7124C131.07 31.5978 131.148 32.4246 131.304 33.1929C131.461 33.9611 131.708 34.6382 132.047 35.2241C132.398 35.797 132.854 36.2463 133.414 36.5718C133.974 36.8973 134.657 37.0601 135.464 37.0601C136.246 37.0601 136.916 36.8973 137.476 36.5718C138.036 36.2463 138.485 35.797 138.824 35.2241C139.162 34.6382 139.41 33.9611 139.566 33.1929C139.735 32.4246 139.82 31.5978 139.82 30.7124V30.3022C139.82 29.4429 139.735 28.6356 139.566 27.8804C139.41 27.1121 139.156 26.4351 138.804 25.8491C138.466 25.2502 138.017 24.7814 137.457 24.4429C136.897 24.1043 136.22 23.9351 135.425 23.9351C134.631 23.9351 133.954 24.1043 133.394 24.4429C132.847 24.7814 132.398 25.2502 132.047 25.8491C131.708 26.4351 131.461 27.1121 131.304 27.8804C131.148 28.6356 131.07 29.4429 131.07 30.3022ZM154.547 23.9937V49.189H148.922V19.9312H154.136L154.547 23.9937ZM167.925 30.2632V30.6733C167.925 32.2098 167.743 33.6356 167.379 34.9507C167.027 36.2658 166.506 37.4116 165.816 38.3882C165.126 39.3517 164.267 40.1069 163.238 40.6538C162.222 41.1877 161.05 41.4546 159.722 41.4546C158.433 41.4546 157.313 41.1942 156.363 40.6733C155.412 40.1525 154.612 39.4233 153.961 38.4858C153.323 37.5353 152.808 36.4351 152.418 35.1851C152.027 33.9351 151.727 32.5939 151.519 31.1616V30.0874C151.727 28.5509 152.027 27.1447 152.418 25.8687C152.808 24.5796 153.323 23.4663 153.961 22.5288C154.612 21.5783 155.406 20.8426 156.343 20.3218C157.294 19.8009 158.407 19.5405 159.683 19.5405C161.024 19.5405 162.203 19.7944 163.218 20.3022C164.247 20.8101 165.106 21.5392 165.797 22.4897C166.5 23.4403 167.027 24.5731 167.379 25.8882C167.743 27.2033 167.925 28.6616 167.925 30.2632ZM162.281 30.6733V30.2632C162.281 29.3647 162.203 28.5379 162.047 27.7827C161.903 27.0145 161.669 26.3439 161.343 25.771C161.031 25.1981 160.614 24.7554 160.093 24.4429C159.586 24.1174 158.967 23.9546 158.238 23.9546C157.47 23.9546 156.812 24.0783 156.265 24.3257C155.731 24.5731 155.295 24.9312 154.957 25.3999C154.618 25.8687 154.364 26.4285 154.195 27.0796C154.026 27.7306 153.922 28.4663 153.882 29.2866V32.0015C153.948 32.965 154.13 33.8309 154.429 34.5991C154.729 35.3543 155.191 35.9533 155.816 36.396C156.441 36.8387 157.261 37.0601 158.277 37.0601C159.019 37.0601 159.644 36.8973 160.152 36.5718C160.66 36.2332 161.07 35.771 161.382 35.1851C161.708 34.5991 161.936 33.922 162.066 33.1538C162.209 32.3856 162.281 31.5588 162.281 30.6733ZM181.148 41.4546C179.507 41.4546 178.036 41.1942 176.734 40.6733C175.432 40.1395 174.325 39.4038 173.414 38.4663C172.515 37.5288 171.825 36.4416 171.343 35.2046C170.862 33.9546 170.621 32.6265 170.621 31.2202V30.439C170.621 28.8374 170.849 27.3726 171.304 26.0444C171.76 24.7163 172.411 23.564 173.257 22.5874C174.117 21.6108 175.158 20.8621 176.382 20.3413C177.606 19.8075 178.987 19.5405 180.523 19.5405C182.02 19.5405 183.349 19.7879 184.507 20.2827C185.666 20.7775 186.636 21.4806 187.418 22.3921C188.212 23.3035 188.811 24.3973 189.214 25.6733C189.618 26.9364 189.82 28.3426 189.82 29.8921V32.2358H173.023V28.4858H184.293V28.0562C184.293 27.2749 184.149 26.5783 183.863 25.9663C183.589 25.3413 183.173 24.8465 182.613 24.4819C182.053 24.1174 181.337 23.9351 180.464 23.9351C179.722 23.9351 179.084 24.0978 178.55 24.4233C178.017 24.7489 177.58 25.2046 177.242 25.7905C176.916 26.3765 176.669 27.0666 176.5 27.8608C176.343 28.6421 176.265 29.5015 176.265 30.439V31.2202C176.265 32.0666 176.382 32.8478 176.617 33.564C176.864 34.2801 177.209 34.8986 177.652 35.4194C178.108 35.9403 178.655 36.3439 179.293 36.6304C179.944 36.9168 180.679 37.0601 181.5 37.0601C182.515 37.0601 183.459 36.8647 184.332 36.4741C185.217 36.0705 185.979 35.465 186.617 34.6577L189.351 37.6265C188.908 38.2645 188.303 38.8765 187.535 39.4624C186.78 40.0483 185.868 40.5301 184.8 40.9077C183.733 41.2723 182.515 41.4546 181.148 41.4546ZM198.648 24.5405V41.064H193.023V19.9312H198.316L198.648 24.5405ZM205.015 19.7944L204.918 25.0093C204.644 24.9702 204.312 24.9377 203.922 24.9116C203.544 24.8726 203.199 24.853 202.886 24.853C202.092 24.853 201.402 24.9572 200.816 25.1655C200.243 25.3608 199.761 25.6538 199.371 26.0444C198.993 26.4351 198.707 26.9103 198.511 27.4702C198.329 28.0301 198.225 28.6681 198.199 29.3843L197.066 29.0327C197.066 27.6655 197.203 26.409 197.476 25.2632C197.75 24.1043 198.147 23.0952 198.668 22.2358C199.201 21.3765 199.852 20.7124 200.621 20.2437C201.389 19.7749 202.268 19.5405 203.257 19.5405C203.57 19.5405 203.889 19.5666 204.214 19.6187C204.54 19.6577 204.807 19.7163 205.015 19.7944Z" fill="#FDFDFD"/>
<path d="M209.554 0.444336C214.547 0.444336 218.047 1.19584 220.055 2.69886C222.081 4.20187 222.904 6.79138 222.524 10.4674L221.71 18.236C221.565 19.6122 221.801 20.6897 222.416 21.4684C223.031 22.2471 223.917 22.7993 225.075 23.1253C226.251 23.4331 227.607 23.587 229.145 23.587V30.5408C227.625 30.5408 226.278 30.7038 225.102 31.0296C223.926 31.3376 223.031 31.8808 222.416 32.6595C221.801 33.4382 221.565 34.5156 221.71 35.8918L222.524 43.6061C222.94 47.3184 222.126 49.926 220.082 51.4289C218.056 52.9321 214.547 53.6835 209.554 53.6835V47.7076C211.219 47.7076 212.512 47.4722 213.434 47.0014C214.357 46.5487 214.746 45.6343 214.601 44.2581L213.76 36.245C213.543 34.1987 213.76 32.5598 214.411 31.3286C215.081 30.0789 216.094 29.1282 217.45 28.4765C218.807 27.8063 220.399 27.3355 222.226 27.0638C220.29 26.7741 218.644 26.3034 217.288 25.6514C215.949 24.9995 214.972 24.058 214.357 22.8265C213.742 21.5771 213.543 19.9292 213.76 17.8829L214.601 9.86985C214.746 8.49358 214.348 7.5791 213.407 7.1264C212.485 6.65558 211.2 6.42017 209.554 6.42017V0.444336Z" fill="#FDFDFD"/>
</svg>
