<svg width="129" height="128" viewBox="0 0 129 128" fill="none" xmlns="http://www.w3.org/2000/svg">
<path d="M39.7 49.5C40.7 50.2 41.7 50.8 42.7 51.5C42.9 51.7 43.3 51.7 43.6 51.7C46.7 51.2 49.7 51.7 52.2 53.7C53.8 55 54.9 56.7 55.4 58.7C55.5 59.3 55.4 59.5 54.8 59.4H54.1C52.6 59.6 51.5 59.4 50.7 57.7C49.7 55.6 47.3 54.8 44.9 55.3C44.8 56.3 44.9 57.4 44.7 58.4C44 61.7 42.3 64.5 39.1 66.1C38.6 66.3 38.6 66.6 38.8 67C39.9 71 43.3 73.1 47.4 72.5C48.6 72.3 51.7 71 51.6 70.5V67.6C51.6 67 51.4 66.8 50.9 66.8H46.5C45.9 66.8 45.7 66.6 45.8 66V64.2C45.8 63.7 45.9 63.5 46.4 63.6H54.9C55.4 63.6 55.5 63.8 55.5 64.2V71.5C55.5 72.8 54.5 73.6 53.6 74.3C51.9 75.5 49.9 76 47.9 76.1C45.5 76.3 43 76.3 40.8 75.1C37.9 73.6 36 71.3 35 68.2C34.7 67.3 34.5 67.2 33.7 67.7C33 68.1 32.7 68.8 32.7 69.6C32.6 71.4 32.7 73.3 32.6 75.1V76H28.5C28.3 76 28.1 75.6 27.9 75.5C26.6 74.3 25.5 73 24.2 72C22.2 70.4 20.3 70.9 19 73.1C18.5 74 18.1 75 17.6 76.1H13.9C13.7 75.5 13.7 74.9 13.4 74.3C13.1 73.7 12.8 73.1 12.3 72.6C11.4 71.6 10.2 71.6 9.19998 72.5C8.09998 73.4 7.69998 74.7 7.39998 76.1H2.49998C2.39998 75.3 2.29998 74.5 2.09998 73.7V69.4C2.19998 68.7 2.29998 67.9 2.39998 67.2C2.79998 64.5 3.59998 61.9 5.49998 59.7C6.59998 58.3 7.99998 57.4 9.69998 56.8C10.4 58.1 11 59.3 11.6 60.4C12.3 61.7 13.4 62.6 15 62.5C16.6 62.4 18.7 60.9 19.2 59.6C19 59.8 18.8 59.9 18.7 60C17.9 60.5 17.1 61.1 16.2 61.4C14.9 61.9 13.7 61.7 13 60.6C11.9 58.8 10.9 56.9 9.89998 55C9.39998 54 9.69998 53.1 10.7 52.4C11 52.2 11.3 52 11.6 51.9C13.7 51.3 15.8 50.6 17.9 50.2C23.2 49.3 28 50.6 31.9 54.5C32.9 55.5 34.1 56.4 35.4 57.5C36.4 55.6 37.7 54.1 39.5 53C38.9 52.6 38.4 52.3 38 51.9C37.3 51.4 37.3 51.1 37.9 50.5C38.3 50.1 38.7 49.8 39 49.5H39.7ZM28.8 58.4C28.2 58.2 27.6 58 27.1 57.8C26.5 59.6 27.2 60.9 28.8 61.4C30.3 61.8 32 61 32.4 59.6C32 59.5 31.6 59.3 31 59.1C31.1 60 30.8 60.6 30 60.8C29.4 60.9 28.9 60.8 28.5 60.2C28.1 59.6 28.3 59.1 28.8 58.4ZM97.4 60.4V59.5V53C97.4 52.4 97.6 52.2 98.1 52.2H100.5C101.1 52.2 101.3 52.4 101.2 53V69.2C101.2 71.2 101.1 73.2 101.1 75.2C101.1 75.7 100.9 75.9 100.4 75.9H98.2C97.5 75.9 97.2 75.8 97.3 75C97.3 74.8 97.3 74.7 97.2 74.4C97 74.5 96.8 74.5 96.7 74.6C94 77.4 88.6 76.6 86.4 72.9C84.3 69.3 84.9 63.4 87.9 60.5C90.2 58.3 94.6 58 96.7 60.2C97 60.2 97.2 60.2 97.4 60.4ZM97 64.6C96.5 63 95.3 62.1 93.6 62.1C92.1 62.1 90.9 62.7 90.1 64.1C88.9 66.4 89 68.7 90.2 70.9C91.6 73.5 95.3 73.4 96.6 70.8C97.5 69.5 97.6 65.8 97 64.6ZM83.7 75.7H80C79.5 75.7 79.4 75.5 79.3 75.1C79.3 74.9 79.2 74.7 79.2 74.4C78.9 74.6 78.6 74.7 78.3 74.9C76.1 76.1 73.8 76.5 71.4 75.5C69.4 74.7 68.3 73.1 68.2 71C68.2 69.1 69 67.4 70.8 66.6C72.2 66 73.7 65.7 75.1 65.3C76.1 65 77.2 64.8 78.2 64.5C78.6 64.4 79 63.9 79.1 63.5C79.3 62.9 79 62.3 78.4 61.9C77.1 61.1 74.7 61.3 73.6 62.2C73.3 62.4 73 62.8 73 63.1C72.9 63.8 72.5 63.8 71.9 63.8H69.7C69 63.8 68.9 63.5 69 63C69.3 61.5 70 60.3 71.4 59.5C73.2 58.5 75.1 58.3 77.1 58.5C78 58.6 78.8 58.7 79.7 58.9C82.1 59.5 83.2 61 83.2 63.4V74.1C83.4 74.7 83.6 75.1 83.7 75.7ZM79.4 67.4C78.1 67.7 76.9 68 75.7 68.3C75 68.5 74.3 68.6 73.7 68.8C72.7 69.2 72.3 69.9 72.4 71C72.5 71.8 73 72.4 73.9 72.6C75.3 73 76.6 72.8 77.8 72.1C79.4 71.3 79.9 69.6 79.4 67.4ZM114.5 68.2C114.3 69.7 115.6 71.5 117.1 72.1C118.8 72.8 121.8 72.7 123 70.7C123.1 70.5 123.5 70.4 123.7 70.5C124.6 70.9 125.4 71.4 126.3 71.9C125.7 73.2 124.8 74.1 123.7 74.9C120.8 77 114.4 76.8 111.8 72.7C110.9 71.3 110.5 69.7 110.4 68C110.3 65.9 110.6 63.9 111.8 62.1C113.1 60.1 115 59.1 117.3 58.7C118.9 58.5 120.5 58.7 122 59.2C124.9 60.3 126.1 62.7 126.6 65.6C126.7 66.2 126.7 66.7 126.8 67.3C126.9 67.9 126.6 68.1 126 68.1H115.5C115.1 68.2 114.8 68.2 114.5 68.2ZM114.6 65.4H122.4C122.6 63.7 121 61.9 119.3 61.8C116.7 61.6 114.7 63 114.6 65.4ZM104.4 74.8C104.4 75.5 104.6 75.8 105.3 75.7C106 75.6 106.7 75.7 107.4 75.7C108.1 75.7 108.3 75.5 108.3 74.8V65.7C108.3 61.4 108.4 57 108.4 52.7C108.4 52.2 108.2 52.1 107.8 52.1H105.3C104.6 52.1 104.4 52.3 104.4 53V74.8ZM61.8 61.1V59.6C61.8 59.2 61.6 59 61.2 59H58.7C58.2 59 58 59.2 58 59.7V75.1C58 75.6 58.2 75.8 58.7 75.8H60.9C61.6 75.9 61.8 75.6 61.8 74.9C61.8 72.3 61.9 69.6 61.9 67C62 65 63.2 63.4 65.2 62.9C65.6 62.8 66.1 62.8 66.6 62.7C67.1 62.6 67.3 62.4 67.3 61.9V59.4C67.3 58.9 67.1 58.7 66.6 58.7C65 58.8 63.5 59.3 62.5 60.6C62.4 60.8 62.2 61 62 61.2C62 61.1 61.9 61.1 61.8 61.1Z" fill="#E8E8E8"/>
</svg>
