<svg width="30" height="30" viewBox="0 0 30 30" fill="none" xmlns="http://www.w3.org/2000/svg">
<path fill-rule="evenodd" clip-rule="evenodd" d="M15 0.370117C6.7125 0.370117 0 7.08262 0 15.3701C0 22.0076 4.29375 27.6139 10.2563 29.6014C11.0063 29.7326 11.2875 29.2826 11.2875 28.8889C11.2875 28.5326 11.2688 27.3514 11.2688 26.0951C7.5 26.7889 6.525 25.1764 6.225 24.3326C6.05625 23.9014 5.325 22.5701 4.6875 22.2139C4.1625 21.9326 3.4125 21.2389 4.66875 21.2201C5.85 21.2014 6.69375 22.3076 6.975 22.7576C8.325 25.0264 10.4812 24.3889 11.3438 23.9951C11.475 23.0201 11.8688 22.3639 12.3 21.9889C8.9625 21.6139 5.475 20.3201 5.475 14.5826C5.475 12.9514 6.05625 11.6014 7.0125 10.5514C6.8625 10.1764 6.3375 8.63887 7.1625 6.57637C7.1625 6.57637 8.41875 6.18262 11.2875 8.11387C12.4875 7.77637 13.7625 7.60762 15.0375 7.60762C16.3125 7.60762 17.5875 7.77637 18.7875 8.11387C21.6562 6.16387 22.9125 6.57637 22.9125 6.57637C23.7375 8.63887 23.2125 10.1764 23.0625 10.5514C24.0188 11.6014 24.6 12.9326 24.6 14.5826C24.6 20.3389 21.0938 21.6139 17.7563 21.9889C18.3 22.4576 18.7688 23.3576 18.7688 24.7639C18.7688 26.7701 18.75 28.3826 18.75 28.8889C18.75 29.2826 19.0312 29.7514 19.7812 29.6014C22.759 28.596 25.3465 26.6822 27.1796 24.1293C29.0127 21.5764 29.9991 18.513 30 15.3701C30 7.08262 23.2875 0.370117 15 0.370117Z" fill="#A7A7A7"/>
</svg>
