<svg width="30" height="30" viewBox="0 0 30 30" fill="none" xmlns="http://www.w3.org/2000/svg">
<path d="M15 30C23.2843 30 30 23.2843 30 15C30 6.71573 23.2843 0 15 0C6.71574 0 0 6.71573 0 15C0 23.2843 6.71574 30 15 30Z" fill="#A7A7A7"/>
<path d="M19.659 10.7817H10.3397C8.60471 10.7817 7.19824 12.1882 7.19824 13.9232V16.0784C7.19824 17.8133 8.60471 19.2198 10.3397 19.2198H19.659C21.394 19.2198 22.8004 17.8133 22.8004 16.0784V13.9232C22.8004 12.1882 21.394 10.7817 19.659 10.7817Z" fill="#191919"/>
<path d="M17.9743 14.6811C18.1656 14.7874 18.1698 15.0595 17.9828 15.1714L16.0444 16.3376L14.1059 17.5037C13.9189 17.6157 13.6808 17.4839 13.6766 17.2657L13.6355 15.0042L13.5944 12.7427C13.5902 12.5245 13.824 12.3842 14.0153 12.4891L15.9947 13.5844L17.9743 14.6797V14.6811Z" fill="#A7A7A7"/>
</svg>
