<svg width="280" height="49" viewBox="0 0 280 49" fill="none" xmlns="http://www.w3.org/2000/svg">
<path d="M0.25 3.6H10.25V38H0.25V3.6ZM12.35 25.95V15.2L20.25 3.6H31.15L19.3 19.8L31.3 38H20.1L12.35 25.95ZM33.9809 0.849998H43.2309V8.05H33.9809V0.849998ZM33.9809 12.5H43.2309V38H33.9809V12.5ZM62.8723 22.45C62.8723 21.65 62.7889 21.0333 62.6223 20.6C62.4889 20.2667 62.2723 20.0667 61.9723 20C61.7056 19.9 61.2223 19.85 60.5223 19.85H60.2723V13.6C61.5723 12.6333 63.3723 12.15 65.6723 12.15C66.7056 12.15 67.6056 12.2833 68.3723 12.55C69.1389 12.7833 69.7889 13.2167 70.3223 13.85C71.5223 15.3167 72.1223 18.05 72.1223 22.05V38H62.8723V22.45ZM76.8223 22.45C76.8223 21.65 76.7389 21.0333 76.5723 20.6C76.4389 20.2667 76.2223 20.0667 75.9223 20C75.6556 19.9 75.1723 19.85 74.4723 19.85H74.2223C74.1556 18.9833 74.0556 18.0833 73.9223 17.15C73.6556 15.8167 73.3723 14.85 73.0723 14.25C74.4723 12.85 76.4723 12.15 79.0723 12.15C81.9056 12.15 83.8389 13.0667 84.8723 14.9C85.3389 15.7 85.6556 16.6833 85.8223 17.85C85.9889 18.9833 86.0723 20.3833 86.0723 22.05V38H76.8223V22.45ZM48.9223 12.5H58.1723V38H48.9223V12.5ZM105.182 3.6H115.182V38H105.182V3.6ZM117.282 30.35H117.682C119.315 30.35 120.465 30.2833 121.132 30.15C121.832 29.9833 122.348 29.6167 122.682 29.05C123.048 28.45 123.248 27.5 123.282 26.2C123.348 24.5333 123.382 22.7333 123.382 20.8C123.382 18.9 123.348 17.0833 123.282 15.35C123.215 14.05 122.998 13.1 122.632 12.5C122.298 11.9 121.748 11.5333 120.982 11.4C120.215 11.3 119.115 11.25 117.682 11.25H117.282V3.6H117.682C120.348 3.6 122.565 3.71666 124.332 3.95C126.132 4.18333 127.615 4.55 128.782 5.05C129.915 5.55 130.815 6.23333 131.482 7.1C132.148 7.96667 132.632 9.05 132.932 10.35C133.198 11.5167 133.365 12.9 133.432 14.5C133.532 16.0667 133.582 18.1667 133.582 20.8C133.582 23.4667 133.532 25.5833 133.432 27.15C133.365 28.7167 133.198 30.0833 132.932 31.25C132.632 32.55 132.148 33.6333 131.482 34.5C130.815 35.3667 129.915 36.05 128.782 36.55C127.615 37.05 126.132 37.4167 124.332 37.65C122.565 37.8833 120.348 38 117.682 38H117.282V30.35ZM153.016 25.3C153.016 23.6 152.999 22.4667 152.966 21.9C152.933 21.1 152.833 20.5 152.666 20.1C152.499 19.6667 152.233 19.4 151.866 19.3C151.466 19.2 150.916 19.15 150.216 19.15H149.516V12.1H150.216C153.116 12.1 155.383 12.3333 157.016 12.8C158.649 13.2333 159.866 13.9667 160.666 15C161.399 15.9333 161.866 17.1833 162.066 18.75C162.299 20.2833 162.416 22.4667 162.416 25.3C162.416 27.9333 162.333 29.9833 162.166 31.45C162.033 32.8833 161.683 34.0667 161.116 35C160.483 36.0333 159.533 36.8167 158.266 37.35C156.999 37.85 155.249 38.1667 153.016 38.3V25.3ZM150.216 38.4C147.316 38.4 145.049 38.1833 143.416 37.75C141.783 37.3167 140.566 36.5833 139.766 35.55C139.033 34.6167 138.549 33.3833 138.316 31.85C138.116 30.3167 138.016 28.1333 138.016 25.3C138.016 22.7 138.099 20.6667 138.266 19.2C138.433 17.7333 138.799 16.5167 139.366 15.55C139.966 14.4833 140.899 13.7 142.166 13.2C143.433 12.6667 145.183 12.3333 147.416 12.2V25.3C147.416 27 147.433 28.1167 147.466 28.65C147.499 29.45 147.599 30.05 147.766 30.45C147.933 30.85 148.216 31.1 148.616 31.2C148.949 31.3 149.483 31.35 150.216 31.35H150.916V38.4H150.216ZM181.829 25.95C181.829 24.1833 181.813 23.0167 181.779 22.45C181.713 21.5167 181.629 20.9 181.529 20.6C181.396 20.2667 181.163 20.0667 180.829 20C180.496 19.9 179.963 19.85 179.229 19.85H178.729V13.6C180.029 12.6333 181.729 12.15 183.829 12.15C186.829 12.15 188.846 13.0667 189.879 14.9C190.346 15.7 190.663 16.6833 190.829 17.85C190.996 18.9833 191.079 20.3833 191.079 22.05V38H181.829V25.95ZM167.379 12.5H176.629V38H167.379V12.5ZM203.524 37.85C202.19 37.85 201.057 37.6333 200.124 37.2C199.19 36.7333 198.424 36 197.824 35C196.624 33.0667 196.024 29.7 196.024 24.9C196.024 20.0667 196.624 16.7167 197.824 14.85C198.424 13.9167 199.19 13.2333 200.124 12.8C201.057 12.3667 202.19 12.15 203.524 12.15C204.657 12.15 205.624 12.25 206.424 12.45C207.224 12.65 207.957 13.0167 208.624 13.55V19.85H208.074C207.34 19.85 206.807 19.9 206.474 20C206.174 20.0667 205.94 20.2333 205.774 20.5C205.607 20.8667 205.507 21.3833 205.474 22.05C205.44 22.5167 205.424 23.5 205.424 25C205.424 26.5 205.44 27.4833 205.474 27.95C205.507 28.65 205.607 29.1667 205.774 29.5C205.94 29.8 206.207 29.9833 206.574 30.05C207.04 30.1167 207.54 30.15 208.074 30.15H208.624V36.5C207.957 37.0333 207.24 37.4 206.474 37.6C205.707 37.7667 204.724 37.85 203.524 37.85ZM206.874 48.3C205.207 48.3 203.207 48.2 200.874 48L197.874 47.7V41.25H204.574C205.774 41.25 206.94 41.2167 208.074 41.15C208.907 41.0833 209.507 40.9167 209.874 40.65C210.274 40.4167 210.524 40 210.624 39.4C210.69 38.6 210.724 37.75 210.724 36.85V12.5H219.974V35.2C219.974 37.8 219.857 39.8333 219.624 41.3C219.39 42.8 218.89 44.05 218.124 45.05C217.257 46.15 215.924 46.9667 214.124 47.5C212.357 48.0333 209.94 48.3 206.874 48.3ZM239.068 3.6H249.068V38H239.068V3.6ZM255.172 0.849998H264.422V38H255.172V0.849998ZM270.114 0.849998H279.364V38H270.114V0.849998Z" fill="white"/>
</svg>
