<svg width="1920" height="980" viewBox="0 0 1920 980" fill="none" xmlns="http://www.w3.org/2000/svg">
<g clip-path="url(#clip0_3024_15373)">
<rect width="1920" height="980" fill="url(#paint0_linear_3024_15373)"/>
<path d="M353 703.383C148.2 662.748 24 627.383 -14 657.383V1158.88H1931.5V616.383C1776.5 616.383 1760 746.383 1510 755.383C1307.71 762.665 1090.91 518.511 883 630.383C686 736.383 479 728.383 353 703.383Z" fill="white" fill-opacity="0.1"/>
<g filter="url(#filter0_f_3024_15373)">
<path d="M782.473 728.881C596.327 649.46 437.986 740.365 398.264 767.063L391.139 1179.93L2375.2 1248.52L2404.97 785.905C2246.9 780.44 2229.18 838.8 2023.15 843.819C1816.72 848.848 1713.56 612.372 1336.91 728.397C1112.96 797.384 888.023 773.914 782.473 728.881Z" fill="#38634D"/>
</g>
<path d="M318 580C166.28 448.509 17 734 -21 764L-14 1205.5H1931.5L1945 710C1790 710 1774.62 773.024 1573 786C1371 799 1226.87 479.662 897 688C688 820 468 710 318 580Z" fill="#5DA27F"/>
<path d="M340 788.364C134.005 754.302 12 758.364 -26 788.364V1234.86H1919.5L1952 788.364C1797 788.364 1686.62 807.388 1485 820.363C1283 833.363 1124.1 788.363 888 788.364C727 788.364 616 834 340 788.364Z" fill="url(#paint1_linear_3024_15373)"/>
<g style="mix-blend-mode:screen">
<g clip-path="url(#clip1_3024_15373)">
<g filter="url(#filter1_f_3024_15373)">
<path d="M1299.46 237.459L1294.18 242.009L1295.79 248.814C1295.88 249.184 1295.85 249.571 1295.72 249.927C1295.59 250.284 1295.36 250.593 1295.05 250.817C1294.74 251.04 1294.38 251.168 1294 251.183C1293.62 251.198 1293.24 251.1 1292.92 250.902L1287 247.26L1281.08 250.902C1280.75 251.099 1280.38 251.196 1280 251.18C1279.62 251.164 1279.26 251.037 1278.95 250.814C1278.64 250.59 1278.41 250.281 1278.28 249.926C1278.15 249.57 1278.12 249.183 1278.21 248.814L1279.82 242.009L1274.55 237.459C1274.26 237.211 1274.06 236.884 1273.95 236.519C1273.85 236.154 1273.86 235.767 1273.98 235.406C1274.09 235.046 1274.31 234.727 1274.61 234.491C1274.91 234.255 1275.26 234.111 1275.64 234.078L1282.56 233.52L1285.22 227.065C1285.37 226.713 1285.61 226.413 1285.93 226.201C1286.25 225.989 1286.62 225.876 1287 225.876C1287.38 225.876 1287.75 225.989 1288.06 226.201C1288.38 226.413 1288.63 226.713 1288.77 227.065L1291.44 233.52L1298.35 234.078C1298.73 234.11 1299.09 234.253 1299.39 234.489C1299.68 234.725 1299.91 235.043 1300.02 235.404C1300.14 235.765 1300.15 236.153 1300.05 236.519C1299.94 236.884 1299.74 237.212 1299.45 237.46L1299.46 237.459Z" fill="white"/>
</g>
</g>
<g clip-path="url(#clip2_3024_15373)">
<g filter="url(#filter2_f_3024_15373)">
<path d="M1541.46 183.459L1536.18 188.009L1537.79 194.814C1537.88 195.184 1537.85 195.571 1537.72 195.927C1537.59 196.284 1537.36 196.593 1537.05 196.817C1536.74 197.04 1536.38 197.168 1536 197.183C1535.62 197.198 1535.24 197.1 1534.92 196.902L1529 193.26L1523.08 196.902C1522.75 197.099 1522.38 197.196 1522 197.18C1521.62 197.164 1521.26 197.037 1520.95 196.814C1520.64 196.59 1520.41 196.281 1520.28 195.926C1520.15 195.57 1520.12 195.183 1520.21 194.814L1521.82 188.009L1516.55 183.459C1516.26 183.211 1516.06 182.884 1515.95 182.519C1515.85 182.154 1515.86 181.767 1515.98 181.406C1516.09 181.046 1516.31 180.727 1516.61 180.491C1516.91 180.255 1517.26 180.111 1517.64 180.078L1524.56 179.52L1527.22 173.065C1527.37 172.713 1527.61 172.413 1527.93 172.201C1528.25 171.989 1528.62 171.876 1529 171.876C1529.38 171.876 1529.75 171.989 1530.06 172.201C1530.38 172.413 1530.63 172.713 1530.77 173.065L1533.44 179.52L1540.35 180.078C1540.73 180.11 1541.09 180.253 1541.39 180.489C1541.68 180.725 1541.91 181.043 1542.02 181.404C1542.14 181.765 1542.15 182.153 1542.05 182.519C1541.94 182.884 1541.74 183.212 1541.45 183.46L1541.46 183.459Z" fill="white"/>
</g>
</g>
<g clip-path="url(#clip3_3024_15373)" filter="url(#filter3_f_3024_15373)">
<g filter="url(#filter4_f_3024_15373)">
<path d="M763.456 263.459L758.182 268.009L759.789 274.814C759.878 275.184 759.855 275.571 759.724 275.927C759.592 276.284 759.358 276.593 759.051 276.817C758.744 277.04 758.377 277.168 757.997 277.183C757.618 277.198 757.242 277.1 756.918 276.902L751 273.26L745.079 276.902C744.754 277.099 744.379 277.196 744 277.18C743.621 277.164 743.256 277.037 742.949 276.814C742.642 276.59 742.409 276.281 742.277 275.926C742.146 275.57 742.123 275.183 742.211 274.814L743.823 268.009L738.55 263.459C738.263 263.211 738.056 262.884 737.954 262.519C737.852 262.154 737.859 261.767 737.976 261.406C738.092 261.046 738.313 260.727 738.609 260.491C738.905 260.255 739.265 260.111 739.642 260.078L746.556 259.52L749.223 253.065C749.368 252.713 749.614 252.413 749.929 252.201C750.245 251.989 750.617 251.876 750.997 251.876C751.377 251.876 751.749 251.989 752.065 252.201C752.381 252.413 752.626 252.713 752.771 253.065L755.437 259.52L762.351 260.078C762.729 260.11 763.09 260.253 763.387 260.489C763.684 260.725 763.906 261.043 764.023 261.404C764.14 261.765 764.148 262.153 764.046 262.519C763.944 262.884 763.736 263.212 763.449 263.46L763.456 263.459Z" fill="white"/>
</g>
</g>
<g clip-path="url(#clip4_3024_15373)">
<g filter="url(#filter5_f_3024_15373)">
<path d="M999.728 316.73L997.091 319.005L997.894 322.408C997.939 322.592 997.927 322.786 997.862 322.964C997.796 323.142 997.679 323.297 997.525 323.409C997.372 323.521 997.188 323.584 996.999 323.592C996.809 323.6 996.621 323.551 996.459 323.452L993.5 321.631L990.539 323.452C990.377 323.55 990.19 323.599 990 323.591C989.811 323.583 989.628 323.519 989.474 323.407C989.321 323.296 989.204 323.141 989.139 322.963C989.073 322.785 989.061 322.592 989.105 322.408L989.912 319.005L987.275 316.73C987.132 316.606 987.028 316.442 986.977 316.26C986.926 316.077 986.93 315.884 986.988 315.704C987.046 315.523 987.156 315.364 987.304 315.246C987.453 315.128 987.632 315.056 987.821 315.039L991.278 314.76L992.612 311.533C992.684 311.357 992.807 311.207 992.965 311.101C993.123 310.995 993.308 310.938 993.498 310.938C993.689 310.938 993.874 310.995 994.032 311.101C994.19 311.207 994.313 311.357 994.385 311.533L995.718 314.76L999.175 315.039C999.365 315.055 999.545 315.127 999.693 315.245C999.842 315.363 999.953 315.522 1000.01 315.703C1000.07 315.883 1000.07 316.077 1000.02 316.26C999.972 316.443 999.868 316.606 999.724 316.73L999.728 316.73Z" fill="white"/>
</g>
</g>
<g clip-path="url(#clip5_3024_15373)">
<g filter="url(#filter6_f_3024_15373)">
<path d="M1369.73 606.73L1367.09 609.005L1367.89 612.408C1367.94 612.592 1367.93 612.786 1367.86 612.964C1367.8 613.142 1367.68 613.297 1367.53 613.409C1367.37 613.521 1367.19 613.584 1367 613.592C1366.81 613.6 1366.62 613.551 1366.46 613.452L1363.5 611.631L1360.54 613.452C1360.38 613.55 1360.19 613.599 1360 613.591C1359.81 613.583 1359.63 613.519 1359.47 613.407C1359.32 613.296 1359.2 613.141 1359.14 612.963C1359.07 612.785 1359.06 612.592 1359.11 612.408L1359.91 609.005L1357.28 606.73C1357.13 606.606 1357.03 606.442 1356.98 606.26C1356.93 606.077 1356.93 605.884 1356.99 605.704C1357.05 605.523 1357.16 605.364 1357.3 605.246C1357.45 605.128 1357.63 605.056 1357.82 605.039L1361.28 604.76L1362.61 601.533C1362.68 601.357 1362.81 601.207 1362.96 601.101C1363.12 600.995 1363.31 600.938 1363.5 600.938C1363.69 600.938 1363.87 600.995 1364.03 601.101C1364.19 601.207 1364.31 601.357 1364.39 601.533L1365.72 604.76L1369.18 605.039C1369.36 605.055 1369.54 605.127 1369.69 605.245C1369.84 605.363 1369.95 605.522 1370.01 605.703C1370.07 605.883 1370.07 606.077 1370.02 606.26C1369.97 606.443 1369.87 606.606 1369.72 606.73L1369.73 606.73Z" fill="white"/>
</g>
</g>
<g clip-path="url(#clip6_3024_15373)">
<g filter="url(#filter7_f_3024_15373)">
<path d="M1789.73 326.73L1787.09 329.005L1787.89 332.408C1787.94 332.592 1787.93 332.786 1787.86 332.964C1787.8 333.142 1787.68 333.297 1787.53 333.409C1787.37 333.521 1787.19 333.584 1787 333.592C1786.81 333.6 1786.62 333.551 1786.46 333.452L1783.5 331.631L1780.54 333.452C1780.38 333.55 1780.19 333.599 1780 333.591C1779.81 333.583 1779.63 333.519 1779.47 333.407C1779.32 333.296 1779.2 333.141 1779.14 332.963C1779.07 332.785 1779.06 332.592 1779.11 332.408L1779.91 329.005L1777.27 326.73C1777.13 326.606 1777.03 326.442 1776.98 326.26C1776.93 326.077 1776.93 325.884 1776.99 325.704C1777.05 325.523 1777.16 325.364 1777.3 325.246C1777.45 325.128 1777.63 325.056 1777.82 325.039L1781.28 324.76L1782.61 321.533C1782.68 321.357 1782.81 321.207 1782.96 321.101C1783.12 320.995 1783.31 320.938 1783.5 320.938C1783.69 320.938 1783.87 320.995 1784.03 321.101C1784.19 321.207 1784.31 321.357 1784.39 321.533L1785.72 324.76L1789.18 325.039C1789.36 325.055 1789.54 325.127 1789.69 325.245C1789.84 325.363 1789.95 325.522 1790.01 325.703C1790.07 325.883 1790.07 326.077 1790.02 326.26C1789.97 326.443 1789.87 326.606 1789.72 326.73L1789.73 326.73Z" fill="white"/>
</g>
</g>
<g clip-path="url(#clip7_3024_15373)">
<g filter="url(#filter8_f_3024_15373)">
<path d="M479.728 176.73L477.091 179.005L477.894 182.408C477.939 182.592 477.927 182.786 477.862 182.964C477.796 183.142 477.679 183.297 477.525 183.409C477.372 183.521 477.188 183.584 476.999 183.592C476.809 183.6 476.621 183.551 476.459 183.452L473.5 181.631L470.539 183.452C470.377 183.55 470.19 183.599 470 183.591C469.811 183.583 469.628 183.519 469.474 183.407C469.321 183.296 469.204 183.141 469.139 182.963C469.073 182.785 469.061 182.592 469.105 182.408L469.912 179.005L467.275 176.73C467.132 176.606 467.028 176.442 466.977 176.26C466.926 176.077 466.93 175.884 466.988 175.704C467.046 175.523 467.156 175.364 467.304 175.246C467.453 175.128 467.632 175.056 467.821 175.039L471.278 174.76L472.612 171.533C472.684 171.357 472.807 171.207 472.965 171.101C473.123 170.995 473.308 170.938 473.498 170.938C473.689 170.938 473.874 170.995 474.032 171.101C474.19 171.207 474.313 171.357 474.385 171.533L475.718 174.76L479.175 175.039C479.365 175.055 479.545 175.127 479.693 175.245C479.842 175.363 479.953 175.522 480.011 175.703C480.07 175.883 480.074 176.077 480.023 176.26C479.972 176.443 479.868 176.606 479.724 176.73L479.728 176.73Z" fill="white"/>
</g>
</g>
<g clip-path="url(#clip8_3024_15373)">
<g filter="url(#filter9_f_3024_15373)">
<path d="M719.728 626.73L717.091 629.005L717.894 632.408C717.939 632.592 717.927 632.786 717.862 632.964C717.796 633.142 717.679 633.297 717.525 633.409C717.372 633.521 717.188 633.584 716.999 633.592C716.809 633.6 716.621 633.551 716.459 633.452L713.5 631.631L710.539 633.452C710.377 633.55 710.19 633.599 710 633.591C709.811 633.583 709.628 633.519 709.474 633.407C709.321 633.296 709.204 633.141 709.139 632.963C709.073 632.785 709.061 632.592 709.105 632.408L709.912 629.005L707.275 626.73C707.132 626.606 707.028 626.442 706.977 626.26C706.926 626.077 706.93 625.884 706.988 625.704C707.046 625.523 707.156 625.364 707.304 625.246C707.453 625.128 707.632 625.056 707.821 625.039L711.278 624.76L712.612 621.533C712.684 621.357 712.807 621.207 712.965 621.101C713.123 620.995 713.308 620.938 713.498 620.938C713.689 620.938 713.874 620.995 714.032 621.101C714.19 621.207 714.313 621.357 714.385 621.533L715.718 624.76L719.175 625.039C719.365 625.055 719.545 625.127 719.693 625.245C719.842 625.363 719.953 625.522 720.011 625.703C720.07 625.883 720.074 626.077 720.023 626.26C719.972 626.443 719.868 626.606 719.724 626.73L719.728 626.73Z" fill="white"/>
</g>
</g>
<g opacity="0.3" clip-path="url(#clip9_3024_15373)">
<g filter="url(#filter10_f_3024_15373)">
<path d="M153.456 153.459L148.182 158.009L149.789 164.814C149.878 165.184 149.855 165.571 149.723 165.927C149.592 166.284 149.358 166.593 149.051 166.817C148.743 167.04 148.377 167.168 147.997 167.183C147.618 167.198 147.242 167.1 146.918 166.902L141 163.26L135.078 166.902C134.754 167.099 134.379 167.196 134 167.18C133.621 167.164 133.256 167.037 132.949 166.814C132.642 166.59 132.409 166.281 132.277 165.926C132.146 165.57 132.123 165.183 132.211 164.814L133.823 158.009L128.55 153.459C128.263 153.211 128.056 152.884 127.954 152.519C127.852 152.154 127.859 151.767 127.976 151.406C128.092 151.046 128.312 150.727 128.609 150.491C128.905 150.255 129.265 150.111 129.642 150.078L136.556 149.52L139.223 143.065C139.368 142.713 139.613 142.413 139.929 142.201C140.245 141.989 140.617 141.876 140.997 141.876C141.377 141.876 141.749 141.989 142.065 142.201C142.381 142.413 142.626 142.713 142.771 143.065L145.437 149.52L152.351 150.078C152.729 150.11 153.089 150.253 153.387 150.489C153.684 150.725 153.906 151.043 154.023 151.404C154.14 151.765 154.148 152.153 154.046 152.519C153.944 152.884 153.736 153.212 153.449 153.46L153.456 153.459Z" fill="white"/>
</g>
</g>
<g clip-path="url(#clip10_3024_15373)" filter="url(#filter11_f_3024_15373)">
<g filter="url(#filter12_f_3024_15373)">
<path d="M497.456 470.459L492.182 475.009L493.789 481.814C493.878 482.184 493.855 482.571 493.724 482.927C493.592 483.284 493.358 483.593 493.051 483.817C492.744 484.04 492.377 484.168 491.997 484.183C491.618 484.198 491.242 484.1 490.918 483.902L485 480.26L479.079 483.902C478.754 484.099 478.379 484.196 478 484.18C477.621 484.164 477.256 484.037 476.949 483.814C476.642 483.59 476.409 483.281 476.277 482.926C476.146 482.57 476.123 482.183 476.211 481.814L477.823 475.009L472.55 470.459C472.263 470.211 472.056 469.884 471.954 469.519C471.852 469.154 471.859 468.767 471.976 468.406C472.092 468.046 472.313 467.727 472.609 467.491C472.905 467.255 473.265 467.111 473.642 467.078L480.556 466.52L483.223 460.065C483.368 459.713 483.614 459.413 483.929 459.201C484.245 458.989 484.617 458.876 484.997 458.876C485.377 458.876 485.749 458.989 486.065 459.201C486.381 459.413 486.626 459.713 486.771 460.065L489.437 466.52L496.351 467.078C496.729 467.11 497.09 467.253 497.387 467.489C497.684 467.725 497.906 468.043 498.023 468.404C498.14 468.765 498.148 469.153 498.046 469.519C497.944 469.884 497.736 470.212 497.449 470.46L497.456 470.459Z" fill="white"/>
</g>
</g>
<g clip-path="url(#clip11_3024_15373)">
<g filter="url(#filter13_f_3024_15373)">
<path d="M103.456 413.459L98.1823 418.009L99.789 424.814C99.8776 425.184 99.8548 425.571 99.7234 425.927C99.592 426.284 99.3579 426.593 99.0506 426.817C98.7434 427.04 98.3768 427.168 97.9972 427.183C97.6176 427.198 97.242 427.1 96.9179 426.902L90.9999 423.26L85.0784 426.902C84.7543 427.099 84.3792 427.196 84.0002 427.18C83.6213 427.164 83.2555 427.037 82.9489 426.814C82.6423 426.59 82.4086 426.281 82.2773 425.926C82.146 425.57 82.1229 425.183 82.2109 424.814L83.8234 418.009L78.5499 413.459C78.2632 413.211 78.0558 412.884 77.9537 412.519C77.8515 412.154 77.8592 411.767 77.9757 411.406C78.0922 411.046 78.3124 410.727 78.6088 410.491C78.9052 410.255 79.2646 410.111 79.6421 410.078L86.5562 409.52L89.2234 403.065C89.3677 402.713 89.6134 402.413 89.9293 402.201C90.2451 401.989 90.6167 401.876 90.997 401.876C91.3772 401.876 91.7489 401.989 92.0647 402.201C92.3805 402.413 92.6263 402.713 92.7706 403.065L95.4366 409.52L102.351 410.078C102.729 410.11 103.089 410.253 103.387 410.489C103.684 410.725 103.906 411.043 104.023 411.404C104.14 411.765 104.148 412.153 104.046 412.519C103.944 412.884 103.736 413.212 103.449 413.46L103.456 413.459Z" fill="white"/>
</g>
</g>
<g opacity="0.3" clip-path="url(#clip12_3024_15373)">
<g filter="url(#filter14_f_3024_15373)">
<path d="M294.304 538.973L290.788 542.006L291.859 546.543C291.918 546.789 291.903 547.048 291.816 547.285C291.728 547.523 291.572 547.729 291.367 547.878C291.162 548.027 290.918 548.112 290.665 548.122C290.412 548.132 290.161 548.067 289.945 547.935L286 545.507L282.052 547.935C281.836 548.067 281.586 548.131 281.333 548.12C281.081 548.11 280.837 548.025 280.633 547.876C280.428 547.727 280.272 547.521 280.185 547.284C280.097 547.047 280.082 546.789 280.141 546.543L281.216 542.006L277.7 538.973C277.509 538.808 277.371 538.59 277.302 538.346C277.234 538.103 277.239 537.845 277.317 537.605C277.395 537.364 277.542 537.152 277.739 536.994C277.937 536.837 278.176 536.741 278.428 536.719L283.037 536.347L284.816 532.044C284.912 531.809 285.076 531.609 285.286 531.468C285.497 531.326 285.744 531.251 285.998 531.251C286.251 531.251 286.499 531.326 286.71 531.468C286.92 531.609 287.084 531.809 287.18 532.044L288.958 536.347L293.567 536.719C293.819 536.74 294.06 536.835 294.258 536.993C294.456 537.15 294.604 537.362 294.682 537.603C294.76 537.844 294.765 538.102 294.697 538.346C294.629 538.59 294.491 538.808 294.299 538.974L294.304 538.973Z" fill="white"/>
</g>
</g>
<g opacity="0.3" clip-path="url(#clip13_3024_15373)">
<g filter="url(#filter15_f_3024_15373)">
<path d="M714.304 438.973L710.788 442.006L711.859 446.543C711.918 446.789 711.903 447.048 711.816 447.285C711.728 447.523 711.572 447.729 711.367 447.878C711.162 448.027 710.918 448.112 710.665 448.122C710.412 448.132 710.161 448.067 709.945 447.935L706 445.507L702.052 447.935C701.836 448.067 701.586 448.131 701.333 448.12C701.081 448.11 700.837 448.025 700.633 447.876C700.428 447.727 700.272 447.521 700.185 447.284C700.097 447.047 700.082 446.789 700.141 446.543L701.216 442.006L697.7 438.973C697.509 438.808 697.371 438.59 697.302 438.346C697.234 438.103 697.239 437.845 697.317 437.605C697.395 437.364 697.542 437.152 697.739 436.994C697.937 436.837 698.176 436.741 698.428 436.719L703.037 436.347L704.816 432.044C704.912 431.809 705.076 431.609 705.286 431.468C705.497 431.326 705.744 431.251 705.998 431.251C706.251 431.251 706.499 431.326 706.71 431.468C706.92 431.609 707.084 431.809 707.18 432.044L708.958 436.347L713.567 436.719C713.819 436.74 714.06 436.835 714.258 436.993C714.456 437.15 714.604 437.362 714.682 437.603C714.76 437.844 714.765 438.102 714.697 438.346C714.629 438.59 714.491 438.808 714.299 438.974L714.304 438.973Z" fill="white"/>
</g>
</g>
<g opacity="0.3" clip-path="url(#clip14_3024_15373)">
<g filter="url(#filter16_f_3024_15373)">
<path d="M1254.3 328.973L1250.79 332.006L1251.86 336.543C1251.92 336.789 1251.9 337.048 1251.82 337.285C1251.73 337.523 1251.57 337.729 1251.37 337.878C1251.16 338.027 1250.92 338.112 1250.66 338.122C1250.41 338.132 1250.16 338.067 1249.95 337.935L1246 335.507L1242.05 337.935C1241.84 338.067 1241.59 338.131 1241.33 338.12C1241.08 338.11 1240.84 338.025 1240.63 337.876C1240.43 337.727 1240.27 337.521 1240.18 337.284C1240.1 337.047 1240.08 336.789 1240.14 336.543L1241.22 332.006L1237.7 328.973C1237.51 328.808 1237.37 328.59 1237.3 328.346C1237.23 328.103 1237.24 327.845 1237.32 327.605C1237.39 327.364 1237.54 327.152 1237.74 326.994C1237.94 326.837 1238.18 326.741 1238.43 326.719L1243.04 326.347L1244.82 322.044C1244.91 321.809 1245.08 321.609 1245.29 321.468C1245.5 321.326 1245.74 321.251 1246 321.251C1246.25 321.251 1246.5 321.326 1246.71 321.468C1246.92 321.609 1247.08 321.809 1247.18 322.044L1248.96 326.347L1253.57 326.719C1253.82 326.74 1254.06 326.835 1254.26 326.993C1254.46 327.15 1254.6 327.362 1254.68 327.603C1254.76 327.844 1254.77 328.102 1254.7 328.346C1254.63 328.59 1254.49 328.808 1254.3 328.974L1254.3 328.973Z" fill="white"/>
</g>
</g>
<g opacity="0.4" clip-path="url(#clip15_3024_15373)">
<g filter="url(#filter17_f_3024_15373)">
<path d="M1884.3 558.973L1880.79 562.006L1881.86 566.543C1881.92 566.789 1881.9 567.048 1881.82 567.285C1881.73 567.523 1881.57 567.729 1881.37 567.878C1881.16 568.027 1880.92 568.112 1880.66 568.122C1880.41 568.132 1880.16 568.067 1879.95 567.935L1876 565.507L1872.05 567.935C1871.84 568.067 1871.59 568.131 1871.33 568.12C1871.08 568.11 1870.84 568.025 1870.63 567.876C1870.43 567.727 1870.27 567.521 1870.18 567.284C1870.1 567.047 1870.08 566.789 1870.14 566.543L1871.22 562.006L1867.7 558.973C1867.51 558.808 1867.37 558.59 1867.3 558.346C1867.23 558.103 1867.24 557.845 1867.32 557.605C1867.39 557.364 1867.54 557.152 1867.74 556.994C1867.94 556.837 1868.18 556.741 1868.43 556.719L1873.04 556.347L1874.82 552.044C1874.91 551.809 1875.08 551.609 1875.29 551.468C1875.5 551.326 1875.74 551.251 1876 551.251C1876.25 551.251 1876.5 551.326 1876.71 551.468C1876.92 551.609 1877.08 551.809 1877.18 552.044L1878.96 556.347L1883.57 556.719C1883.82 556.74 1884.06 556.835 1884.26 556.993C1884.46 557.15 1884.6 557.362 1884.68 557.603C1884.76 557.844 1884.77 558.102 1884.7 558.346C1884.63 558.59 1884.49 558.808 1884.3 558.974L1884.3 558.973Z" fill="white"/>
</g>
</g>
<g clip-path="url(#clip16_3024_15373)">
<g filter="url(#filter18_f_3024_15373)">
<path d="M1504.3 558.973L1500.79 562.006L1501.86 566.543C1501.92 566.789 1501.9 567.048 1501.82 567.285C1501.73 567.523 1501.57 567.729 1501.37 567.878C1501.16 568.027 1500.92 568.112 1500.66 568.122C1500.41 568.132 1500.16 568.067 1499.95 567.935L1496 565.507L1492.05 567.935C1491.84 568.067 1491.59 568.131 1491.33 568.12C1491.08 568.11 1490.84 568.025 1490.63 567.876C1490.43 567.727 1490.27 567.521 1490.18 567.284C1490.1 567.047 1490.08 566.789 1490.14 566.543L1491.22 562.006L1487.7 558.973C1487.51 558.808 1487.37 558.59 1487.3 558.346C1487.23 558.103 1487.24 557.845 1487.32 557.605C1487.39 557.364 1487.54 557.152 1487.74 556.994C1487.94 556.837 1488.18 556.741 1488.43 556.719L1493.04 556.347L1494.82 552.044C1494.91 551.809 1495.08 551.609 1495.29 551.468C1495.5 551.326 1495.74 551.251 1496 551.251C1496.25 551.251 1496.5 551.326 1496.71 551.468C1496.92 551.609 1497.08 551.809 1497.18 552.044L1498.96 556.347L1503.57 556.719C1503.82 556.74 1504.06 556.835 1504.26 556.993C1504.46 557.15 1504.6 557.362 1504.68 557.603C1504.76 557.844 1504.77 558.102 1504.7 558.346C1504.63 558.59 1504.49 558.808 1504.3 558.974L1504.3 558.973Z" fill="white"/>
</g>
</g>
</g>
<path d="M891.284 313.035V326.746H887.563V324.08H882.642V325.984H869.956V314.178H873.706V317.283H878.95V314.178H882.642V316.434H887.563V313.035H891.284ZM891.284 327.742V334.861H877.31V336.473H892.075V339.402H873.56V332.137H887.563V330.613H873.53V327.742H891.284ZM873.706 323.055H878.95V320.125H873.706V323.055ZM882.642 321.268H887.563V319.217H882.642V321.268ZM917.065 313.035V339.754H913.286V313.035H917.065ZM902.593 314.91C906.606 314.91 909.595 318.602 909.595 324.402C909.595 330.262 906.606 333.924 902.593 333.924C898.491 333.924 895.503 330.262 895.532 324.402C895.503 318.602 898.491 314.91 902.593 314.91ZM902.593 318.279C900.513 318.279 899.136 320.447 899.136 324.402C899.136 328.387 900.513 330.525 902.593 330.525C904.614 330.525 905.991 328.387 905.991 324.402C905.991 320.447 904.614 318.279 902.593 318.279ZM949.878 313.035V328.328H946.157V313.035H949.878ZM950.347 329.822V332.664H942.935C943.447 334.422 946.245 336.385 951.372 336.824L950.112 339.607C945.645 339.197 942.51 337.615 940.884 335.535C939.272 337.659 936.094 339.212 931.597 339.607L930.337 336.854C935.537 336.429 938.335 334.48 938.862 332.664H931.421V329.822H939.009V327.654H942.759V329.822H950.347ZM932.622 314.09V317.459H938.218V314.09H941.938V326.248H928.931V314.09H932.622ZM932.622 323.289H938.218V320.301H932.622V323.289ZM978.325 323.143V326.189H974.546V339.637H970.796V313.035H974.546V323.143H978.325ZM958.081 315.584V330.027C961.494 329.983 965.156 329.661 969.009 328.885L969.39 331.99C964.937 332.898 960.601 333.133 956.675 333.133H954.36V315.584H958.081ZM1001.09 320.301V323.23H982.456V313.973H986.177V320.301H1001.09ZM1003.81 326.102V329.031H979.409V326.102H1003.81ZM1001.26 336.121V339.109H982.222V331.199H985.972V336.121H1001.26ZM1033.43 329.5V339.402H1016V329.5H1033.43ZM1019.69 332.459V336.414H1029.74V332.459H1019.69ZM1033.43 313.035V318.953H1037.04V322.059H1033.43V328.27H1029.68V313.035H1033.43ZM1016.79 314.441V317.811H1022.24V314.441H1025.99V327.01H1013.07V314.441H1016.79ZM1016.79 324.021H1022.24V320.682H1016.79V324.021ZM1043.83 334.832L1041.31 343.182H1038.21L1039.67 334.832H1043.83ZM869.238 349.035V375.754H865.518V360.314H858.223V357.268H865.518V349.035H869.238ZM851.836 351.877V366.35C855.234 366.306 858.691 366.013 862.324 365.324L862.734 368.371C858.428 369.279 854.326 369.484 850.342 369.484H848.086V351.877H851.836ZM880.576 350.617C884.678 350.617 887.871 353.312 887.9 357.15C887.871 360.373 885.63 362.79 882.48 363.479V367.111C884.59 367.023 886.685 366.848 888.662 366.584L888.926 369.338C883.359 370.393 877.354 370.393 872.812 370.334L872.314 367.316C874.233 367.302 876.445 367.302 878.76 367.258V363.508C875.493 362.849 873.252 360.417 873.252 357.15C873.252 353.312 876.357 350.617 880.576 350.617ZM880.576 353.781C878.467 353.781 876.885 355.012 876.914 357.15C876.885 359.26 878.467 360.52 880.576 360.52C882.627 360.52 884.209 359.26 884.209 357.15C884.209 355.012 882.627 353.781 880.576 353.781ZM893.818 349.035V359.494H897.451V362.629H893.818V375.695H890.068V349.035H893.818ZM930.293 359.143V362.189H926.514V375.637H922.764V349.035H926.514V359.143H930.293ZM910.049 351.584V366.027C913.462 365.983 917.124 365.661 920.977 364.885L921.357 367.99C916.904 368.898 912.568 369.133 908.643 369.133H906.328V351.584H910.049ZM940.049 350.822C944.268 350.793 947.432 353.547 947.432 357.355C947.432 361.193 944.268 363.918 940.049 363.918C935.83 363.918 932.637 361.193 932.637 357.355C932.637 353.547 935.83 350.793 940.049 350.822ZM940.049 354.045C937.939 354.045 936.328 355.275 936.357 357.355C936.328 359.465 937.939 360.666 940.049 360.666C942.158 360.666 943.77 359.465 943.799 357.355C943.77 355.275 942.188 354.045 940.049 354.045ZM953.818 349.035V375.754H950.098V349.035H953.818ZM931.523 367.258C936.27 367.287 942.861 367.199 948.574 366.408L948.867 369.104C942.949 370.246 936.621 370.305 931.963 370.305L931.523 367.258ZM985.4 349.035V354.865H989.004V357.941H985.4V363.947H981.65V349.035H985.4ZM977.93 350.588C977.9 357.648 973.447 362.424 965.449 364.533L963.955 361.574C969.932 360.095 973.228 357.136 973.857 353.576H965.273V350.588H977.93ZM985.4 364.943V375.373H967.969V364.943H985.4ZM971.689 367.961V372.443H981.709V367.961H971.689ZM1000.25 352.668C1000.22 356.242 1002.07 359.523 1006.35 360.842L1004.38 363.771C1001.51 362.775 999.565 360.93 998.467 358.527C997.266 361.311 995.112 363.508 991.904 364.592L989.941 361.604C994.512 360.139 996.445 356.564 996.475 352.844V350.412H1000.25V352.668ZM1012.65 349.035V364.65H1008.93V356.975H1003.92V353.928H1008.93V349.035H1012.65ZM1003.54 365.354C1009.22 365.354 1012.71 367.258 1012.73 370.539C1012.71 373.82 1009.22 375.695 1003.54 375.695C997.852 375.695 994.365 373.82 994.365 370.539C994.365 367.258 997.852 365.354 1003.54 365.354ZM1003.54 368.254C999.99 368.254 998.086 369.016 998.086 370.539C998.086 372.004 999.99 372.795 1003.54 372.795C1007.08 372.795 1009.01 372.004 1009.01 370.539C1009.01 369.016 1007.08 368.254 1003.54 368.254ZM1034.85 350.705C1034.85 357.59 1032.01 362.424 1024.66 365.441L1022.87 362.746C1025.95 361.56 1028.03 360.08 1029.35 358.293L1023.6 358.938L1023.16 355.979L1030.72 355.598C1030.9 354.997 1031.03 354.382 1031.13 353.723H1024.28V350.705H1034.85ZM1045.93 349.064V364.68H1042.38V358.293H1039.98V364.445H1036.46V349.533H1039.98V355.246H1042.38V349.064H1045.93ZM1045.93 365.646V375.402H1027.73V365.646H1045.93ZM1031.43 368.635V372.414H1042.27V368.635H1031.43ZM1064.59 351.057V354.045H1062.39V360.49C1063.49 360.417 1064.58 360.3 1065.62 360.168L1065.88 362.922C1060.46 363.859 1054.22 363.977 1049.79 363.977L1049.38 360.959L1052.26 360.93V354.045H1050.09V351.057H1064.59ZM1071.27 349.064V365.148H1067.52V349.064H1071.27ZM1062.22 365.646C1067.93 365.646 1071.42 367.434 1071.45 370.627C1071.42 373.85 1067.93 375.695 1062.22 375.695C1056.53 375.695 1053.05 373.85 1053.05 370.627C1053.05 367.434 1056.53 365.646 1062.22 365.646ZM1062.22 368.488C1058.64 368.488 1056.77 369.191 1056.77 370.627C1056.77 372.092 1058.64 372.854 1062.22 372.854C1065.79 372.854 1067.67 372.092 1067.7 370.627C1067.67 369.191 1065.79 368.488 1062.22 368.488ZM1055.83 360.871L1058.79 360.725V354.045H1055.83V360.871Z" fill="white"/>
<g style="mix-blend-mode:darken" filter="url(#filter19_f_3024_15373)">
<path d="M1240 830C1240 854.853 1120.46 875 973 875C825.54 875 706 854.853 706 830C706 805.147 825.54 785 973 785C1120.46 785 1240 805.147 1240 830Z" fill="url(#paint2_linear_3024_15373)" fill-opacity="0.1"/>
</g>
<g clip-path="url(#clip17_3024_15373)">
<path d="M1053.67 570.094C1050.99 567.016 1046.09 566.872 1042.33 568.492C1038.59 570.112 1035.65 573.118 1032.58 575.8C1029.5 578.482 1025.99 581.038 1021.92 581.398C1016.99 581.83 1012.45 578.986 1008.19 576.502C1003.92 574.018 998.898 571.696 994.182 573.208C998.718 574.198 1002.12 580.012 1003.74 584.35C1005.36 588.688 1006.48 593.476 1009.73 596.77C1015.19 602.278 1024.15 601.486 1031.77 600.01C1039.38 598.552 1048.04 597.022 1054.21 601.702L1053.65 570.094H1053.67Z" fill="#FAAC22"/>
<path d="M1055.6 565H1052.02V621.142H1055.6V565Z" fill="#1F141C"/>
<path d="M972.6 696.814L1057.02 616.966L1141.44 696.814L1168.98 806.938H945.06L972.6 696.814Z" fill="#FFF2E3"/>
<path d="M1057.02 616.966L1094.44 704.5L1168 806.928L1174.5 831.428H1057.02V616.966Z" fill="#1C2B41"/>
<path d="M938.796 832.011L945.06 806.938H1057V832.011H938.796Z" fill="#3F71D1"/>
<path d="M972.6 696.814H824.37L908.79 616.966H1057.02L972.6 696.814Z" fill="#417CEE"/>
<path d="M1057.02 616.966L1168.98 806.938C1168.98 806.938 1058.84 729.34 1057.02 616.966Z" fill="#3F71D1"/>
<path d="M1140.2 696.813L1197.73 832.137H1198.99L1141.44 696.813" fill="#FDFBE2"/>
<path d="M972.6 696.813L915.072 832.137H913.83L971.358 696.813" fill="#F8DC56"/>
<path d="M796.83 806.937L824.37 696.813H972.6L945.06 806.937H796.83Z" fill="#B9A690"/>
<path d="M938.796 832.011H790.566L796.83 806.938H945.06L938.796 832.011Z" fill="#2E5193"/>
<path d="M874.32 772.791H851.316L861.792 730.941H884.796L874.32 772.791Z" fill="#0B2142"/>
<path d="M892.212 730.941H918.114L907.656 772.791H881.754L892.212 730.941Z" fill="#0B2142"/>
<path d="M972.6 696.813L915.072 832.137H913.83L971.358 696.813" fill="#FDFBE2"/>
<path d="M825.63 696.813L768.084 832.137H766.842L824.37 696.813" fill="#FDFBE2"/>
</g>
<g filter="url(#filter20_f_3024_15373)">
<path d="M1265.84 448.28C1236.68 458 1205.14 442.24 1195.42 413.08C1189.68 395.88 1192.82 377.88 1202.32 364C1177.8 371.6 1160 394.46 1160 421.48C1160 454.7 1186.94 481.64 1220.16 481.64C1245.54 481.64 1267.24 465.92 1276.08 443.68C1272.9 445.52 1269.48 447.06 1265.84 448.28Z" fill="#FFF496"/>
</g>
<g filter="url(#filter21_i_3024_15373)">
<path d="M1265.84 448.28C1236.68 458 1205.14 442.24 1195.42 413.08C1189.68 395.88 1192.82 377.88 1202.32 364C1177.8 371.6 1160 394.46 1160 421.48C1160 454.7 1186.94 481.64 1220.16 481.64C1245.54 481.64 1267.24 465.92 1276.08 443.68C1272.9 445.52 1269.48 447.06 1265.84 448.28Z" fill="url(#paint3_linear_3024_15373)"/>
</g>
<g filter="url(#filter22_f_3024_15373)">
<path d="M1268.01 414.818L1266.13 420.503L1270.95 424.038C1272.81 425.398 1271.83 428.325 1269.55 428.318L1263.56 428.296L1261.68 433.981C1260.96 436.153 1257.88 436.155 1257.18 433.959L1255.36 428.259L1249.38 428.237C1247.08 428.218 1246.15 425.3 1248 423.956L1252.85 420.446L1251.03 414.746C1250.32 412.565 1252.83 410.761 1254.69 412.121L1259.51 415.656L1264.37 412.146C1266.22 410.802 1268.72 412.634 1268 414.806L1268.01 414.818Z" fill="white"/>
</g>
<g filter="url(#filter23_f_3024_15373)">
<path d="M698.464 437.87C717.472 437.87 732.88 422.462 732.88 403.454C732.88 384.446 717.472 369.038 698.464 369.038C691.264 369.038 684.568 371.27 679.048 375.062C672.016 359.966 656.752 349.478 639.016 349.478C627.616 349.478 617.248 353.846 609.424 360.926C600.952 341.438 581.56 327.83 558.952 327.83C528.544 327.854 503.92 352.478 503.92 382.862C503.92 413.246 528.544 437.87 558.928 437.87H698.464Z" fill="white"/>
</g>
<g filter="url(#filter24_f_3024_15373)">
<path d="M764.56 361.16C759.64 361.16 755.06 362.68 751.28 365.28C746.48 354.98 736.06 347.8 723.92 347.8C716.12 347.8 709.06 350.78 703.7 355.62C697.92 342.32 684.66 333 669.22 333C651.58 333 636.82 345.18 632.76 361.56C635.88 360.7 639.16 360.22 642.54 360.22C657.32 360.22 670.04 368.96 675.9 381.54C680.5 378.38 686.08 376.52 692.08 376.52C707.92 376.52 720.76 389.36 720.76 405.2C720.76 406.2 720.7 407.2 720.6 408.18H764.52C777.5 408.18 788.04 397.66 788.04 384.66C788.04 371.66 777.52 361.14 764.52 361.14L764.56 361.16Z" fill="#E4F9FF"/>
</g>
<g opacity="0.8" filter="url(#filter25_f_3024_15373)">
<path d="M1478.76 579.364C1488.9 579.364 1497.12 573.07 1497.12 565.307C1497.12 557.543 1488.9 551.25 1478.76 551.25C1474.92 551.25 1471.34 552.153 1468.4 553.7C1464.66 547.544 1456.52 543.257 1447.04 543.257C1440.96 543.257 1435.44 545.033 1431.26 547.927C1426.74 539.98 1416.4 534.406 1404.34 534.406C1388.14 534.406 1375 544.467 1375 556.87C1375 569.273 1388.14 579.333 1404.34 579.333H1478.76V579.364Z" fill="#E4F9FF"/>
</g>
<g style="mix-blend-mode:screen" opacity="0.8" filter="url(#filter26_f_3024_15373)">
<path d="M389.76 533.426C399.9 533.426 408.12 527.133 408.12 519.369C408.12 511.606 399.9 505.312 389.76 505.312C385.92 505.312 382.34 506.216 379.4 507.762C375.66 501.607 367.52 497.319 358.04 497.319C351.96 497.319 346.44 499.096 342.26 501.99C337.74 494.043 327.4 488.469 315.34 488.469C299.14 488.469 286 498.529 286 510.932C286 523.335 299.14 533.396 315.34 533.396H389.76V533.426Z" fill="#E4F9FF"/>
</g>
<path d="M917.195 497.428H944.915C947.915 497.428 950.315 496.828 952.835 495.028C953.795 494.308 954.755 493.948 955.835 493.948C956.915 493.948 959.915 494.428 959.915 498.148C959.915 501.868 955.835 503.548 953.315 504.508C949.355 506.068 946.595 506.068 943.235 506.068H913.475C906.755 506.068 903.995 503.308 903.995 496.588V487.468C902.195 486.388 901.115 484.948 901.115 482.668C901.115 478.948 904.115 478.468 905.195 478.468C906.275 478.468 907.235 478.828 908.195 479.548C910.715 481.348 913.115 481.948 916.115 481.948H942.635C944.915 481.948 945.515 481.348 945.515 479.068V477.988C945.515 475.708 944.915 475.108 942.635 475.108H919.235C915.875 475.108 912.995 475.108 909.035 473.548C906.515 472.588 902.555 471.148 902.555 467.188C902.555 463.468 905.555 462.988 906.635 462.988C907.715 462.988 908.675 463.348 909.635 464.068C912.155 465.868 914.555 466.468 917.555 466.468H947.435C954.155 466.468 955.835 469.228 955.835 475.948V481.108C955.835 487.828 954.155 490.588 947.435 490.588H914.315V494.428C914.315 496.708 914.915 497.428 917.195 497.428ZM921.755 425.548V450.748C921.755 454.588 920.075 456.508 916.835 456.508C914.675 456.508 913.115 455.788 912.155 454.348L892.475 456.388C891.875 456.508 891.275 456.508 890.675 456.508C885.755 456.508 882.995 453.628 882.995 446.908V425.188C882.995 421.468 884.675 419.548 888.155 419.548C891.635 419.548 893.315 421.468 893.315 425.188V429.868H911.435V425.548C911.435 421.828 913.115 419.908 916.595 419.908C920.075 419.908 921.755 421.828 921.755 425.548ZM955.835 418.708V454.468C955.835 458.188 954.155 460.108 950.675 460.108C947.195 460.108 945.515 458.188 945.515 454.468V450.628H932.435C929.195 450.628 927.275 449.548 927.275 446.308C927.275 443.068 929.195 441.988 932.435 441.988H945.515V435.748H932.435C929.195 435.748 927.275 434.668 927.275 431.428C927.275 428.188 929.195 427.108 932.435 427.108H945.515V419.908C945.515 415.228 943.715 411.748 938.075 409.828C935.315 408.868 933.515 407.548 933.515 404.788C933.515 402.028 935.555 399.988 938.315 399.988C941.795 399.988 948.035 403.588 950.915 405.868C954.155 408.148 955.835 412.468 955.835 418.708ZM893.315 438.628V444.748C893.315 447.028 894.035 447.748 895.475 447.748H896.195L911.435 446.308V438.628H893.315ZM980.642 473.908H1000.2V464.068H984.722C981.362 464.068 976.322 463.948 972.362 462.388C969.842 461.428 965.882 459.988 965.882 456.028C965.882 452.308 968.882 451.828 969.962 451.828C971.042 451.828 972.002 452.188 972.962 452.908C975.482 454.708 977.882 455.308 980.882 455.308H1035.24C1038.48 455.308 1040.4 456.388 1040.4 459.628C1040.4 462.868 1038.48 464.068 1035.24 464.068H1010.52V473.908H1029.48C1032.72 473.908 1034.64 474.988 1034.64 478.228C1034.64 481.468 1032.72 482.548 1029.48 482.548H1023.6V497.908H1029.48C1032.72 497.908 1034.64 498.988 1034.64 502.228C1034.64 505.468 1032.72 506.548 1029.48 506.548H980.642C977.402 506.548 975.482 505.468 975.482 502.228C975.482 498.988 977.402 497.908 980.642 497.908H985.682V482.548H980.642C977.402 482.548 975.482 481.468 975.482 478.228C975.482 474.988 977.402 473.908 980.642 473.908ZM984.722 438.628C994.442 433.108 1000.2 425.068 1001.88 414.508C1002.48 410.668 1004.28 408.748 1007.28 408.748C1010.52 408.748 1012.08 410.668 1012.08 413.548C1012.08 414.148 1011.96 414.868 1011.84 415.708C1011.24 419.428 1010.4 422.908 1009.08 426.268C1012.92 431.428 1019.88 436.708 1025.16 438.868C1028.4 440.308 1028.16 442.108 1028.16 442.948C1028.16 443.548 1028.04 444.148 1027.8 444.748C1026.84 447.028 1024.68 447.148 1023.72 447.148C1022.76 447.148 1021.68 446.908 1020.6 446.548C1014.96 444.268 1009.2 439.588 1004.52 434.668C1000.8 439.588 996.002 443.668 989.282 446.548C988.202 447.028 987.122 447.268 986.162 447.268C985.202 447.268 983.042 447.028 982.082 444.748C981.842 444.148 981.722 443.668 981.722 443.068C981.722 442.108 981.722 440.428 984.722 438.628ZM996.002 482.548V497.908H1013.28V482.548H996.002Z" fill="white"/>
<path d="M925.361 390.352L926.281 393.32H929.271C930.421 393.32 930.891 394.851 929.971 395.549L927.551 397.382L928.471 400.35C928.821 401.485 927.581 402.433 926.651 401.725L924.231 399.892L921.811 401.725C920.881 402.423 919.641 401.485 919.991 400.35L920.911 397.382L918.491 395.549C917.561 394.851 918.041 393.32 919.191 393.32H922.181L923.101 390.352C923.451 389.217 925.001 389.217 925.351 390.352H925.361Z" fill="white"/>
<path d="M1422.28 -54.9762C1630.2 -35.9757 1749.01 -101.3 1782.42 -136.337L1719.75 -578.416L-206.491 -305.316L-136.3 186.198C17.1654 164.44 84.0873 85.2368 281.892 44.0868C480.067 2.85967 650.73 74.6133 884.492 41.4707C1043.9 18.8703 1162.37 -78.7268 1422.28 -54.9762Z" fill="white" fill-opacity="0.1"/>
</g>
<defs>
<filter id="filter0_f_3024_15373" x="385.139" y="690.325" width="2025.84" height="564.196" filterUnits="userSpaceOnUse" color-interpolation-filters="sRGB">
<feFlood flood-opacity="0" result="BackgroundImageFix"/>
<feBlend mode="normal" in="SourceGraphic" in2="BackgroundImageFix" result="shape"/>
<feGaussianBlur stdDeviation="3" result="effect1_foregroundBlur_3024_15373"/>
</filter>
<filter id="filter1_f_3024_15373" x="1270" y="222" width="34" height="34" filterUnits="userSpaceOnUse" color-interpolation-filters="sRGB">
<feFlood flood-opacity="0" result="BackgroundImageFix"/>
<feBlend mode="normal" in="SourceGraphic" in2="BackgroundImageFix" result="shape"/>
<feGaussianBlur stdDeviation="1" result="effect1_foregroundBlur_3024_15373"/>
</filter>
<filter id="filter2_f_3024_15373" x="1512" y="168" width="34" height="34" filterUnits="userSpaceOnUse" color-interpolation-filters="sRGB">
<feFlood flood-opacity="0" result="BackgroundImageFix"/>
<feBlend mode="normal" in="SourceGraphic" in2="BackgroundImageFix" result="shape"/>
<feGaussianBlur stdDeviation="1" result="effect1_foregroundBlur_3024_15373"/>
</filter>
<filter id="filter3_f_3024_15373" x="731" y="245" width="40" height="39" filterUnits="userSpaceOnUse" color-interpolation-filters="sRGB">
<feFlood flood-opacity="0" result="BackgroundImageFix"/>
<feBlend mode="normal" in="SourceGraphic" in2="BackgroundImageFix" result="shape"/>
<feGaussianBlur stdDeviation="2" result="effect1_foregroundBlur_3024_15373"/>
</filter>
<filter id="filter4_f_3024_15373" x="734" y="248" width="34" height="34" filterUnits="userSpaceOnUse" color-interpolation-filters="sRGB">
<feFlood flood-opacity="0" result="BackgroundImageFix"/>
<feBlend mode="normal" in="SourceGraphic" in2="BackgroundImageFix" result="shape"/>
<feGaussianBlur stdDeviation="1" result="effect1_foregroundBlur_3024_15373"/>
</filter>
<filter id="filter5_f_3024_15373" x="982" y="306" width="23" height="23" filterUnits="userSpaceOnUse" color-interpolation-filters="sRGB">
<feFlood flood-opacity="0" result="BackgroundImageFix"/>
<feBlend mode="normal" in="SourceGraphic" in2="BackgroundImageFix" result="shape"/>
<feGaussianBlur stdDeviation="2" result="effect1_foregroundBlur_3024_15373"/>
</filter>
<filter id="filter6_f_3024_15373" x="1352" y="596" width="23" height="23" filterUnits="userSpaceOnUse" color-interpolation-filters="sRGB">
<feFlood flood-opacity="0" result="BackgroundImageFix"/>
<feBlend mode="normal" in="SourceGraphic" in2="BackgroundImageFix" result="shape"/>
<feGaussianBlur stdDeviation="2" result="effect1_foregroundBlur_3024_15373"/>
</filter>
<filter id="filter7_f_3024_15373" x="1772" y="316" width="23" height="23" filterUnits="userSpaceOnUse" color-interpolation-filters="sRGB">
<feFlood flood-opacity="0" result="BackgroundImageFix"/>
<feBlend mode="normal" in="SourceGraphic" in2="BackgroundImageFix" result="shape"/>
<feGaussianBlur stdDeviation="2" result="effect1_foregroundBlur_3024_15373"/>
</filter>
<filter id="filter8_f_3024_15373" x="462" y="166" width="23" height="23" filterUnits="userSpaceOnUse" color-interpolation-filters="sRGB">
<feFlood flood-opacity="0" result="BackgroundImageFix"/>
<feBlend mode="normal" in="SourceGraphic" in2="BackgroundImageFix" result="shape"/>
<feGaussianBlur stdDeviation="2" result="effect1_foregroundBlur_3024_15373"/>
</filter>
<filter id="filter9_f_3024_15373" x="702" y="616" width="23" height="23" filterUnits="userSpaceOnUse" color-interpolation-filters="sRGB">
<feFlood flood-opacity="0" result="BackgroundImageFix"/>
<feBlend mode="normal" in="SourceGraphic" in2="BackgroundImageFix" result="shape"/>
<feGaussianBlur stdDeviation="2" result="effect1_foregroundBlur_3024_15373"/>
</filter>
<filter id="filter10_f_3024_15373" x="124" y="138" width="34" height="34" filterUnits="userSpaceOnUse" color-interpolation-filters="sRGB">
<feFlood flood-opacity="0" result="BackgroundImageFix"/>
<feBlend mode="normal" in="SourceGraphic" in2="BackgroundImageFix" result="shape"/>
<feGaussianBlur stdDeviation="1" result="effect1_foregroundBlur_3024_15373"/>
</filter>
<filter id="filter11_f_3024_15373" x="465" y="452" width="40" height="39" filterUnits="userSpaceOnUse" color-interpolation-filters="sRGB">
<feFlood flood-opacity="0" result="BackgroundImageFix"/>
<feBlend mode="normal" in="SourceGraphic" in2="BackgroundImageFix" result="shape"/>
<feGaussianBlur stdDeviation="2" result="effect1_foregroundBlur_3024_15373"/>
</filter>
<filter id="filter12_f_3024_15373" x="468" y="455" width="34" height="34" filterUnits="userSpaceOnUse" color-interpolation-filters="sRGB">
<feFlood flood-opacity="0" result="BackgroundImageFix"/>
<feBlend mode="normal" in="SourceGraphic" in2="BackgroundImageFix" result="shape"/>
<feGaussianBlur stdDeviation="1" result="effect1_foregroundBlur_3024_15373"/>
</filter>
<filter id="filter13_f_3024_15373" x="74" y="398" width="34" height="34" filterUnits="userSpaceOnUse" color-interpolation-filters="sRGB">
<feFlood flood-opacity="0" result="BackgroundImageFix"/>
<feBlend mode="normal" in="SourceGraphic" in2="BackgroundImageFix" result="shape"/>
<feGaussianBlur stdDeviation="1" result="effect1_foregroundBlur_3024_15373"/>
</filter>
<filter id="filter14_f_3024_15373" x="274" y="528" width="24" height="24" filterUnits="userSpaceOnUse" color-interpolation-filters="sRGB">
<feFlood flood-opacity="0" result="BackgroundImageFix"/>
<feBlend mode="normal" in="SourceGraphic" in2="BackgroundImageFix" result="shape"/>
<feGaussianBlur stdDeviation="1" result="effect1_foregroundBlur_3024_15373"/>
</filter>
<filter id="filter15_f_3024_15373" x="694" y="428" width="24" height="24" filterUnits="userSpaceOnUse" color-interpolation-filters="sRGB">
<feFlood flood-opacity="0" result="BackgroundImageFix"/>
<feBlend mode="normal" in="SourceGraphic" in2="BackgroundImageFix" result="shape"/>
<feGaussianBlur stdDeviation="1" result="effect1_foregroundBlur_3024_15373"/>
</filter>
<filter id="filter16_f_3024_15373" x="1234" y="318" width="24" height="24" filterUnits="userSpaceOnUse" color-interpolation-filters="sRGB">
<feFlood flood-opacity="0" result="BackgroundImageFix"/>
<feBlend mode="normal" in="SourceGraphic" in2="BackgroundImageFix" result="shape"/>
<feGaussianBlur stdDeviation="1" result="effect1_foregroundBlur_3024_15373"/>
</filter>
<filter id="filter17_f_3024_15373" x="1864" y="548" width="24" height="24" filterUnits="userSpaceOnUse" color-interpolation-filters="sRGB">
<feFlood flood-opacity="0" result="BackgroundImageFix"/>
<feBlend mode="normal" in="SourceGraphic" in2="BackgroundImageFix" result="shape"/>
<feGaussianBlur stdDeviation="1" result="effect1_foregroundBlur_3024_15373"/>
</filter>
<filter id="filter18_f_3024_15373" x="1484" y="548" width="24" height="24" filterUnits="userSpaceOnUse" color-interpolation-filters="sRGB">
<feFlood flood-opacity="0" result="BackgroundImageFix"/>
<feBlend mode="normal" in="SourceGraphic" in2="BackgroundImageFix" result="shape"/>
<feGaussianBlur stdDeviation="1" result="effect1_foregroundBlur_3024_15373"/>
</filter>
<filter id="filter19_f_3024_15373" x="686" y="765" width="574" height="130" filterUnits="userSpaceOnUse" color-interpolation-filters="sRGB">
<feFlood flood-opacity="0" result="BackgroundImageFix"/>
<feBlend mode="normal" in="SourceGraphic" in2="BackgroundImageFix" result="shape"/>
<feGaussianBlur stdDeviation="10" result="effect1_foregroundBlur_3024_15373"/>
</filter>
<filter id="filter20_f_3024_15373" x="1154" y="358" width="128.08" height="129.64" filterUnits="userSpaceOnUse" color-interpolation-filters="sRGB">
<feFlood flood-opacity="0" result="BackgroundImageFix"/>
<feBlend mode="normal" in="SourceGraphic" in2="BackgroundImageFix" result="shape"/>
<feGaussianBlur stdDeviation="3" result="effect1_foregroundBlur_3024_15373"/>
</filter>
<filter id="filter21_i_3024_15373" x="1160" y="364" width="116.08" height="117.64" filterUnits="userSpaceOnUse" color-interpolation-filters="sRGB">
<feFlood flood-opacity="0" result="BackgroundImageFix"/>
<feBlend mode="normal" in="SourceGraphic" in2="BackgroundImageFix" result="shape"/>
<feColorMatrix in="SourceAlpha" type="matrix" values="0 0 0 0 0 0 0 0 0 0 0 0 0 0 0 0 0 0 127 0" result="hardAlpha"/>
<feOffset/>
<feGaussianBlur stdDeviation="5"/>
<feComposite in2="hardAlpha" operator="arithmetic" k2="-1" k3="1"/>
<feColorMatrix type="matrix" values="0 0 0 0 1 0 0 0 0 1 0 0 0 0 1 0 0 0 0.25 0"/>
<feBlend mode="normal" in2="shape" result="effect1_innerShadow_3024_15373"/>
</filter>
<filter id="filter22_f_3024_15373" x="1245.02" y="409.65" width="28.9077" height="27.958" filterUnits="userSpaceOnUse" color-interpolation-filters="sRGB">
<feFlood flood-opacity="0" result="BackgroundImageFix"/>
<feBlend mode="normal" in="SourceGraphic" in2="BackgroundImageFix" result="shape"/>
<feGaussianBlur stdDeviation="1" result="effect1_foregroundBlur_3024_15373"/>
</filter>
<filter id="filter23_f_3024_15373" x="499.12" y="323.03" width="238.56" height="119.64" filterUnits="userSpaceOnUse" color-interpolation-filters="sRGB">
<feFlood flood-opacity="0" result="BackgroundImageFix"/>
<feBlend mode="normal" in="SourceGraphic" in2="BackgroundImageFix" result="shape"/>
<feGaussianBlur stdDeviation="2.4" result="effect1_foregroundBlur_3024_15373"/>
</filter>
<filter id="filter24_f_3024_15373" x="627.76" y="328" width="165.28" height="85.1797" filterUnits="userSpaceOnUse" color-interpolation-filters="sRGB">
<feFlood flood-opacity="0" result="BackgroundImageFix"/>
<feBlend mode="normal" in="SourceGraphic" in2="BackgroundImageFix" result="shape"/>
<feGaussianBlur stdDeviation="2.5" result="effect1_foregroundBlur_3024_15373"/>
</filter>
<filter id="filter25_f_3024_15373" x="1371" y="530.406" width="130.12" height="52.957" filterUnits="userSpaceOnUse" color-interpolation-filters="sRGB">
<feFlood flood-opacity="0" result="BackgroundImageFix"/>
<feBlend mode="normal" in="SourceGraphic" in2="BackgroundImageFix" result="shape"/>
<feGaussianBlur stdDeviation="2" result="effect1_foregroundBlur_3024_15373"/>
</filter>
<filter id="filter26_f_3024_15373" x="276" y="478.469" width="142.12" height="64.957" filterUnits="userSpaceOnUse" color-interpolation-filters="sRGB">
<feFlood flood-opacity="0" result="BackgroundImageFix"/>
<feBlend mode="normal" in="SourceGraphic" in2="BackgroundImageFix" result="shape"/>
<feGaussianBlur stdDeviation="5" result="effect1_foregroundBlur_3024_15373"/>
</filter>
<linearGradient id="paint0_linear_3024_15373" x1="960" y1="0" x2="960" y2="980" gradientUnits="userSpaceOnUse">
<stop stop-color="#0B1F3E"/>
<stop offset="1" stop-color="#1971F4"/>
</linearGradient>
<linearGradient id="paint1_linear_3024_15373" x1="963" y1="764.316" x2="963" y2="1234.86" gradientUnits="userSpaceOnUse">
<stop stop-color="#C59762"/>
<stop offset="1" stop-color="#5F492F"/>
</linearGradient>
<linearGradient id="paint2_linear_3024_15373" x1="973" y1="785" x2="973" y2="875" gradientUnits="userSpaceOnUse">
<stop/>
<stop offset="1" stop-opacity="0.3"/>
</linearGradient>
<linearGradient id="paint3_linear_3024_15373" x1="1218.04" y1="364" x2="1218.04" y2="481.64" gradientUnits="userSpaceOnUse">
<stop stop-color="#FFF496"/>
<stop offset="0.74" stop-color="#DA8547"/>
<stop offset="0.99" stop-color="#E37627"/>
</linearGradient>
<clipPath id="clip0_3024_15373">
<rect width="1920" height="980" fill="white"/>
</clipPath>
<clipPath id="clip1_3024_15373">
<rect width="32" height="31" fill="white" transform="translate(1271 223)"/>
</clipPath>
<clipPath id="clip2_3024_15373">
<rect width="32" height="31" fill="white" transform="translate(1513 169)"/>
</clipPath>
<clipPath id="clip3_3024_15373">
<rect width="32" height="31" fill="white" transform="translate(735 249)"/>
</clipPath>
<clipPath id="clip4_3024_15373">
<rect width="23" height="22" fill="white" transform="translate(982 306)"/>
</clipPath>
<clipPath id="clip5_3024_15373">
<rect width="23" height="22" fill="white" transform="translate(1352 596)"/>
</clipPath>
<clipPath id="clip6_3024_15373">
<rect width="23" height="22" fill="white" transform="translate(1772 316)"/>
</clipPath>
<clipPath id="clip7_3024_15373">
<rect width="23" height="22" fill="white" transform="translate(462 166)"/>
</clipPath>
<clipPath id="clip8_3024_15373">
<rect width="23" height="22" fill="white" transform="translate(702 616)"/>
</clipPath>
<clipPath id="clip9_3024_15373">
<rect width="32" height="31" fill="white" transform="translate(125 139)"/>
</clipPath>
<clipPath id="clip10_3024_15373">
<rect width="32" height="31" fill="white" transform="translate(469 456)"/>
</clipPath>
<clipPath id="clip11_3024_15373">
<rect width="32" height="31" fill="white" transform="translate(75 399)"/>
</clipPath>
<clipPath id="clip12_3024_15373">
<rect width="22" height="22" fill="white" transform="translate(275 529)"/>
</clipPath>
<clipPath id="clip13_3024_15373">
<rect width="22" height="22" fill="white" transform="translate(695 429)"/>
</clipPath>
<clipPath id="clip14_3024_15373">
<rect width="22" height="22" fill="white" transform="translate(1235 319)"/>
</clipPath>
<clipPath id="clip15_3024_15373">
<rect width="22" height="22" fill="white" transform="translate(1865 549)"/>
</clipPath>
<clipPath id="clip16_3024_15373">
<rect width="22" height="22" fill="white" transform="translate(1485 549)"/>
</clipPath>
<clipPath id="clip17_3024_15373">
<rect width="483.642" height="271.926" fill="white" transform="translate(717 565)"/>
</clipPath>
</defs>
</svg>
