<svg width="117" height="88" viewBox="0 0 117 88" fill="none" xmlns="http://www.w3.org/2000/svg">
<g clip-path="url(#clip0_102_214)">
<path d="M100.673 50.5766C96.603 50.5975 93.0653 51.5694 90.1035 53.0063C89.0162 50.8721 87.9295 48.9708 87.738 47.576C87.5246 45.9493 87.2691 44.9561 87.5246 43.0122C87.7805 41.0683 88.9312 38.3001 88.9098 38.089C88.8887 37.8778 88.6538 36.8846 86.3098 36.8637C83.9658 36.8424 81.9413 37.3073 81.7068 37.92C81.4724 38.5326 81.025 39.9273 80.7266 41.3637C80.3216 43.4771 76.0386 51.0198 73.5881 54.971C72.7993 53.4291 72.1174 52.0765 71.968 50.999C71.755 49.3722 71.4991 48.379 71.755 46.4351C72.0109 44.4912 73.1617 41.7235 73.1402 41.5119C73.1187 41.3007 72.8843 40.3075 70.5403 40.2866C68.1958 40.2653 66.1713 40.7302 65.9373 41.3429C65.7029 41.9559 65.4469 43.3923 64.957 44.7871C64.4667 46.1818 58.7769 58.775 57.2852 62.0285C56.6824 63.3453 56.0501 64.6487 55.3886 65.9376C55.3886 65.9376 55.3672 66.001 55.3032 66.1066C55.0954 66.5107 54.8824 66.9122 54.6643 67.311V67.3318C54.3444 67.9028 54.0035 68.4307 53.833 68.4307C53.705 68.4307 53.4706 66.9095 53.8755 64.8387C54.7278 60.4652 56.7524 53.6615 56.7313 53.4291C56.7313 53.3022 57.1148 52.1191 55.4101 51.506C53.7475 50.8934 53.1511 51.9075 53.0017 51.9075C52.8527 51.9075 52.7458 52.2668 52.7458 52.2668C52.7458 52.2668 54.6003 44.618 49.2085 44.618C45.8417 44.618 41.1958 48.2734 38.8943 51.5694C36.278 52.9811 33.6639 54.3968 31.052 55.8166C29.7953 56.5139 28.4951 57.2113 27.2803 57.8661C27.1949 57.7818 27.1099 57.6758 27.0244 57.5915C20.5034 50.6822 8.442 45.8012 8.95339 36.5257C9.14534 33.1449 10.3171 24.2705 32.1178 13.4947C50.0608 4.72583 64.3392 7.15549 66.8111 12.5436C70.3484 20.2349 59.1608 34.5183 40.6204 36.5887C33.5455 37.3708 29.8373 34.6661 28.9 33.652C27.9197 32.5953 27.7703 32.5318 27.4079 32.7435C26.8115 33.0606 27.1949 34.0113 27.4079 34.5605C27.9622 35.9969 30.2422 38.5326 34.0994 39.7796C37.5091 40.878 45.7988 41.491 55.8361 37.6454C67.0666 33.3348 75.8466 21.3546 73.2682 11.3183C70.6893 1.13391 53.641 -2.22556 37.5091 3.45799C27.9197 6.83921 17.52 12.1634 10.0402 19.094C1.15363 27.334 -0.253039 34.497 0.322334 37.4976C2.38984 48.1465 17.2006 55.0771 23.1248 60.2114C22.8263 60.3804 22.5489 60.5286 22.3149 60.6555C19.3526 62.1132 8.05811 67.9658 5.24523 74.1568C2.04891 81.1716 5.75708 86.2009 8.20756 86.8765C15.8154 88.9686 23.6362 85.2076 27.8342 78.9953C32.0323 72.7834 31.5209 64.7119 29.5818 61.0144C29.5604 60.9722 29.5393 60.9296 29.4964 60.8875C30.2637 60.4439 31.052 59.979 31.8194 59.5354C33.2296 58.7088 34.6578 57.9126 36.1029 57.1474C35.3781 59.1126 34.8452 61.458 34.5897 64.8387C34.2698 68.8113 35.9105 73.9665 38.063 75.9947C39.0223 76.8828 40.1515 76.9037 40.8763 76.9037C43.3908 76.9037 44.5205 74.8329 45.7778 72.3819C47.3119 69.3818 48.6971 65.8954 48.6971 65.8954C48.6971 65.8954 46.971 75.3191 51.6595 75.3191C53.3641 75.3191 55.0902 73.1214 55.8575 72.0017V72.0226C55.8575 72.0226 55.9 71.9592 55.9855 71.8114C56.156 71.5368 56.2624 71.3674 56.2624 71.3674V71.3257C56.9443 70.1421 58.4789 67.4587 60.7589 63.0004C63.6998 57.2534 66.5342 50.0696 66.5342 50.0696C66.5342 50.0696 66.7901 51.8232 67.6634 54.739C68.1753 56.4505 69.2401 58.331 70.0929 60.148C69.411 61.0991 68.9846 61.627 68.9846 61.627L69.0061 61.6483C68.4518 62.3665 67.8554 63.1481 67.1945 63.9094C64.8716 66.6558 62.1016 69.8045 61.7178 70.7126C61.2699 71.7901 61.3768 72.5722 62.2296 73.2062C62.8475 73.6711 63.9553 73.734 65.085 73.6711C67.1735 73.5229 68.6437 73.0158 69.3681 72.6991C70.4978 72.2976 71.819 71.6846 73.0548 70.776C75.3352 69.1067 76.72 66.7192 76.5925 63.5714C76.5285 61.8386 75.9531 60.1059 75.2498 58.4787C75.4632 58.1833 75.6547 57.8874 75.8681 57.5915C79.4693 52.3724 82.2612 46.6462 82.2612 46.6462C82.2612 46.6462 82.5171 48.3998 83.3905 51.3161C83.8168 52.7951 84.6907 54.401 85.4575 55.9643C82.0693 58.6903 79.9807 61.8594 79.2349 63.9302C77.8926 67.7759 78.9365 69.5082 80.9185 69.9097C81.8133 70.1 83.092 69.6772 84.0298 69.2757C85.2231 68.8956 86.6297 68.2408 87.9724 67.2684C90.2529 65.5995 92.4474 63.275 92.3195 60.1272C92.2555 58.6903 91.8721 57.2743 91.3392 55.9009C94.2161 54.7182 97.9242 54.063 102.655 54.6122C112.799 55.7953 114.802 62.0706 114.418 64.7123C114.035 67.3531 111.904 68.79 111.201 69.2336C110.497 69.6777 110.263 69.8254 110.327 70.1421C110.412 70.607 110.753 70.5862 111.35 70.5014C112.181 70.3537 116.678 68.3672 116.869 63.5075C117.189 57.2956 111.222 50.5132 100.673 50.5766ZM22.4214 76.7346C19.0542 80.3687 14.3662 81.7421 12.3417 80.5803C10.1681 79.3333 11.0204 73.9665 15.1545 70.1213C17.669 67.7759 20.9083 65.5991 23.0608 64.2683C23.5507 63.9724 24.2755 63.5501 25.1493 63.0217C25.2983 62.937 25.3838 62.8948 25.3838 62.8948L25.8952 62.5776C27.4078 68.0713 25.9591 72.9103 22.4214 76.7346ZM46.9285 60.2114C45.7563 63.043 43.3058 70.2903 41.8141 69.8888C40.5354 69.5508 39.7466 64.0571 41.5582 58.6269C42.4745 55.9009 44.4136 52.647 45.5433 51.3796C47.3759 49.3509 49.4005 48.6744 49.8904 49.4991C50.5087 50.5766 47.6529 58.4365 46.9285 60.2114ZM67.152 69.8041C66.6617 70.0578 66.1932 70.2269 65.9798 70.1C65.8308 70.0153 66.1932 69.6772 66.1932 69.6772C66.1932 69.6772 68.7292 66.973 69.7305 65.7473C70.3063 65.0291 70.9877 64.184 71.7125 63.2329V63.5075C71.7125 66.7405 68.5583 68.9169 67.1516 69.8041H67.152ZM82.7511 66.2756C82.3887 66.0219 82.4527 65.1768 83.6674 62.5355C84.1363 61.5001 85.2441 59.7678 87.1411 58.0985C87.3541 58.7746 87.5035 59.4298 87.4821 60.0424C87.4606 64.1205 84.5202 65.6417 82.7511 66.2756Z" fill="#CD6799"/>
</g>
<defs>
<clipPath id="clip0_102_214">
<rect width="117" height="87" fill="white" transform="translate(0 0.5)"/>
</clipPath>
</defs>
</svg>
