<svg width="129" height="128" viewBox="0 0 129 128" fill="none" xmlns="http://www.w3.org/2000/svg">
<path fill-rule="evenodd" clip-rule="evenodd" d="M87.759 100.139C87.928 99.814 88.09 99.527 88.228 99.23C88.315 99.04 88.449 99.002 88.638 99.007C89.771 99.039 90.904 99.074 92.038 99.085C93.001 99.095 93.966 99.077 94.93 99.066C96.016 99.053 97.102 98.996 98.187 99.027C99.632 99.069 101.04 99.352 102.347 99.995C103.908 100.764 105.089 101.935 105.894 103.478C106.4 104.456 106.716 105.522 106.825 106.618C106.997 108.226 106.884 109.797 106.374 111.335C105.742 113.241 104.542 114.7 102.875 115.793C101.592 116.634 100.185 117.131 98.677 117.415C97.081 117.716 95.48 117.619 93.879 117.624C92.123 117.631 90.368 117.593 88.612 117.573C88.305 117.57 88.261 117.512 88.342 117.219L88.417 116.949C88.588 116.411 88.68 116.387 89.226 116.297C89.613 116.236 89.9832 116.095 90.313 115.884C90.497 115.762 90.573 115.444 90.645 115.199C90.707 114.985 90.71 114.75 90.712 114.524C90.737 111.099 90.763 107.675 90.777 104.252C90.7809 103.386 90.7592 102.521 90.712 101.656C90.678 101.051 90.355 100.637 89.635 100.494C89.075 100.383 88.511 100.297 87.948 100.198L87.759 100.139ZM103.835 108.432C103.759 107.75 103.722 107.062 103.6 106.39C103.308 104.777 102.602 103.372 101.362 102.271C99.357 100.492 96.943 100.218 94.413 100.43C93.837 100.478 93.713 100.675 93.704 101.267C93.69 102.107 93.676 102.947 93.675 103.787C93.671 106.451 93.671 109.115 93.675 111.779C93.676 112.537 93.684 113.295 93.706 114.051C93.73 114.825 94.011 115.48 94.769 115.78C95.964 116.253 97.221 116.309 98.475 116.116C100.478 115.809 101.879 114.642 102.819 112.893C103.563 111.505 103.773 109.99 103.835 108.432ZM108.704 117.503C108.68 117.088 108.85 116.745 109.06 116.43C109.117 116.345 109.313 116.349 109.448 116.322L110.594 116.095C110.999 116.009 111.212 115.737 111.269 115.34C111.307 115.078 111.343 114.813 111.346 114.548C111.373 112.451 111.393 110.354 111.405 108.257C111.415 106.157 111.407 104.057 111.407 101.957L111.398 101.556C111.357 100.881 111.031 100.531 110.361 100.432L108.908 100.211C108.729 100.187 108.664 100.101 108.729 99.942C108.841 99.671 108.948 99.39 109.106 99.146C109.165 99.056 109.364 99.021 109.498 99.024C110.192 99.034 110.886 99.086 111.58 99.085L117.621 99.049C118.785 99.048 119.909 99.251 120.953 99.808C122.102 100.42 122.745 101.367 122.929 102.657C123.121 104.012 122.71 105.154 121.72 106.061C121.313 106.435 120.786 106.679 120.314 106.983L120.16 107.079C120.598 107.24 121.015 107.379 121.421 107.545C122.609 108.032 123.554 108.793 124.054 110.008C124.449 110.967 124.449 111.967 124.215 112.961C123.851 114.517 122.826 115.552 121.493 116.335C120.242 117.07 118.888 117.498 117.446 117.57C116.116 117.637 114.78 117.612 113.447 117.627L112.675 117.631C111.39 117.601 110.106 117.569 108.821 117.535L108.704 117.503ZM114.241 111.414H114.254C114.254 112.072 114.245 112.73 114.257 113.388C114.265 113.814 114.25 114.252 114.342 114.662C114.48 115.275 114.76 115.828 115.448 116.004C116.368 116.246 117.329 116.288 118.266 116.128C119.443 115.923 120.382 115.333 120.897 114.212C121.279 113.379 121.336 112.496 121.205 111.594C121.031 110.406 120.4 109.544 119.351 108.979C118.663 108.608 117.929 108.381 117.147 108.351C116.271 108.318 115.394 108.316 114.518 108.289C114.272 108.282 114.238 108.407 114.239 108.609C114.244 109.543 114.241 110.478 114.241 111.414ZM116.106 106.939C116.585 106.915 117.127 106.908 117.666 106.854C118.698 106.751 119.425 106.232 119.804 105.245C119.997 104.744 119.989 104.228 119.994 103.707C120.009 102.35 119.217 101.238 117.928 100.778C116.933 100.423 115.907 100.417 114.875 100.445C114.457 100.456 114.27 100.639 114.264 101.06L114.202 106.549C114.199 106.767 114.293 106.861 114.505 106.868L116.106 106.939Z" fill="#E1A669"/>
<path fill-rule="evenodd" clip-rule="evenodd" d="M11.043 116.448L10.97 117.392C10.29 117.392 9.66299 117.387 9.03599 117.394C7.85499 117.406 6.67399 117.425 5.49199 117.442L5.37799 117.449C5.20899 117.429 4.90199 117.429 4.89399 117.379C4.84399 117.098 4.85999 116.803 4.87299 116.512C4.87399 116.479 4.98899 116.437 5.05599 116.421L5.97499 116.216C6.54799 116.067 6.74999 115.82 6.77699 115.228C6.80799 114.561 6.83899 113.893 6.84199 113.226C6.85099 111.584 6.84099 109.944 6.84799 108.302C6.84899 107.918 6.71599 107.632 6.35799 107.476C5.93258 107.287 5.50419 107.105 5.07299 106.93C4.86899 106.848 4.60399 106.803 4.62799 106.529C4.65199 106.25 4.90899 106.177 5.15099 106.122C6.15299 105.893 7.15599 105.67 8.15499 105.426C8.47699 105.347 8.78499 105.214 9.16999 105.08C9.18999 105.288 9.22699 105.486 9.22299 105.684L9.16399 106.625C9.16299 106.731 9.21799 106.873 9.29699 106.932C9.34499 106.969 9.50599 106.902 9.58599 106.84C10.44 106.19 11.344 105.629 12.375 105.302C13.972 104.795 15.343 105.265 16.303 106.642C16.641 107.127 16.642 107.127 17.111 106.788C17.916 106.203 18.758 105.687 19.7 105.347C21.768 104.6 23.755 105.548 24.474 107.631C24.736 108.387 24.836 109.168 24.834 109.966L24.815 115.264C24.814 115.701 24.959 115.95 25.375 116.086C25.842 116.239 26.326 116.344 26.852 116.482L26.73 117.393C26.132 117.393 25.582 117.389 25.032 117.394C23.688 117.406 22.344 117.413 21.001 117.444C20.767 117.45 20.706 117.392 20.694 117.173C20.655 116.472 20.649 116.473 21.309 116.315L21.531 116.258C22.176 116.082 22.391 115.884 22.396 115.23C22.411 113.352 22.45 111.469 22.355 109.595C22.256 107.651 20.713 106.616 18.829 107.114C18.2209 107.281 17.6482 107.556 17.139 107.928C16.964 108.053 16.931 108.197 16.945 108.416C16.998 109.244 17.031 110.073 17.038 110.902C17.05 112.353 17.032 113.804 17.038 115.256C17.04 115.844 17.241 116.069 17.822 116.205L18.685 116.404L18.845 116.44C18.857 116.716 18.868 116.992 18.855 117.268C18.847 117.441 18.713 117.456 18.563 117.453C17.724 117.432 16.884 117.404 16.045 117.406C15.024 117.408 14.004 117.437 12.984 117.455H12.744C12.744 117.162 12.73 116.882 12.754 116.603C12.759 116.536 12.877 116.442 12.958 116.421L13.964 116.208C14.391 116.103 14.595 115.884 14.619 115.45C14.733 113.44 14.815 111.429 14.626 109.42C14.5799 109.023 14.4698 108.637 14.3 108.275C13.785 107.137 12.626 106.662 11.289 107.004C10.654 107.166 10.081 107.457 9.53899 107.824C9.42079 107.897 9.32371 107.999 9.25739 108.121C9.19108 108.243 9.15784 108.38 9.16099 108.519C9.16099 110.524 9.16799 112.529 9.17399 114.533L9.18499 115.306C9.19699 115.845 9.42599 116.129 9.96099 116.245C10.305 116.323 10.653 116.376 11.043 116.448Z" fill="#DBC7BE"/>
<path fill-rule="evenodd" clip-rule="evenodd" d="M71.5009 105.285C71.6559 106.039 71.6529 106.717 71.0989 107.231C70.5489 107.742 69.8529 107.57 69.1739 107.456C69.2369 107.814 69.3069 108.118 69.3409 108.426C69.5879 110.715 68.6029 112.414 66.4799 113.385C65.6779 113.751 64.8269 113.887 63.9579 113.957C63.5259 113.991 63.1479 114.321 63.1069 114.676C63.0649 115.036 63.2909 115.406 63.7429 115.514C64.2759 115.641 64.8319 115.677 65.3789 115.74C66.5529 115.874 67.7399 115.935 68.8999 116.145C70.6539 116.461 71.6329 117.992 71.3239 119.754C71.0489 121.322 70.1409 122.463 68.8749 123.338C66.7419 124.816 64.4019 125.248 61.9099 124.494C60.4849 124.062 59.4799 123.125 59.1329 121.609C58.9589 120.85 59.1439 120.163 59.7149 119.648C60.3939 119.038 61.1329 118.494 61.8439 117.918L62.0739 117.687L61.8099 117.502C61.0849 117.158 60.5049 116.687 60.2799 115.869C60.2029 115.592 60.2829 115.41 60.5179 115.268C60.9179 115.027 61.3159 114.782 61.7109 114.533C61.8969 114.417 62.0809 114.297 62.2539 114.163C62.4899 113.983 62.4689 113.849 62.1869 113.745C61.5309 113.503 60.9479 113.152 60.4959 112.612C59.7409 111.711 59.5269 110.638 59.5889 109.505C59.6859 107.735 60.6469 106.569 62.2089 105.819C64.0659 104.928 65.9289 104.872 67.8219 105.684C68.5219 105.984 69.2599 106.048 70.0109 105.996C70.5719 105.956 71.0619 105.744 71.5009 105.285ZM64.6579 117.966C63.2639 117.954 62.8269 118.126 62.0089 118.959C61.0929 119.893 61.0979 121.188 62.0119 122.126C62.7059 122.837 63.5719 123.17 64.5349 123.27C65.6599 123.386 66.7679 123.339 67.7899 122.776C68.8799 122.173 69.4219 121.053 69.1769 119.925C68.9739 118.994 68.2879 118.568 67.4529 118.323C66.5029 118.045 65.5209 117.992 64.6579 117.966ZM61.9199 109.058C61.9709 109.445 61.9919 109.837 62.0779 110.216C62.3009 111.198 62.7279 112.061 63.7049 112.498C64.8519 113.013 66.3169 112.792 66.8189 111.182C67.1619 110.111 67.1219 108.953 66.7059 107.908C66.5296 107.43 66.2123 107.017 65.7959 106.724C64.7999 106.029 63.0029 105.937 62.2709 107.473C62.0329 107.972 61.9399 108.503 61.9199 109.058Z" fill="#DBC7BE"/>
<path fill-rule="evenodd" clip-rule="evenodd" d="M47.85 105.038C47.887 105.209 47.961 105.403 47.963 105.598C47.966 105.969 47.926 106.34 47.905 106.711V107.033L48.219 106.793C49.079 106.085 50.003 105.482 51.079 105.157C53.021 104.572 54.961 105.635 55.594 107.613C55.834 108.365 55.929 109.138 55.938 109.924C55.958 111.67 55.97 113.416 55.988 115.162C55.994 115.789 56.066 115.901 56.659 116.082C56.9964 116.183 57.3407 116.259 57.689 116.311C57.88 116.341 57.962 116.416 57.952 116.603L57.954 116.775C57.947 117.498 57.897 117.531 57.196 117.529C55.518 117.526 53.841 117.536 52.163 117.55C51.663 117.554 51.662 117.569 51.612 117.075L51.602 116.791C51.633 116.365 51.643 116.369 52.062 116.307C52.344 116.265 52.624 116.2 52.899 116.128C53.182 116.055 53.318 115.846 53.356 115.566C53.375 115.424 53.4 115.282 53.399 115.14C53.375 113.232 53.406 111.322 53.302 109.417C53.218 107.876 52.042 106.958 50.495 107.063C49.7493 107.115 49.0325 107.372 48.424 107.806C48.011 108.095 47.928 108.512 47.93 108.961C47.938 110.745 47.955 112.529 47.974 114.314C47.978 114.705 47.989 115.096 48.026 115.484C48.065 115.908 48.214 116.079 48.63 116.171C49.028 116.259 49.434 116.31 49.859 116.381L49.895 116.709C49.909 117.474 49.829 117.531 49.086 117.528C47.351 117.521 45.616 117.532 43.882 117.551C43.609 117.555 43.493 117.469 43.5 117.203L43.496 117.089C43.451 116.4 43.471 116.374 44.123 116.262L44.431 116.2C45.137 116.041 45.318 115.853 45.328 115.136C45.361 112.865 45.373 110.595 45.396 108.324C45.399 107.998 45.276 107.745 44.972 107.61C44.5454 107.423 44.1163 107.242 43.685 107.066C43.447 106.968 43.175 106.906 43.166 106.577C43.16 106.345 43.408 106.14 43.747 106.071C44.428 105.933 45.115 105.818 45.788 105.649C46.458 105.482 47.116 105.258 47.85 105.038Z" fill="#DBC7BE"/>
<path fill-rule="evenodd" clip-rule="evenodd" d="M85.365 110.97C85.333 113.091 84.782 114.806 83.282 116.093C81.382 117.726 78.418 118.281 75.995 117.06C74.961 116.539 74.201 115.74 73.706 114.703C72.947 113.108 72.757 111.431 73.153 109.713C73.545 108.014 74.574 106.783 76.114 105.986C77.698 105.167 79.366 104.847 81.125 105.277C83.35 105.82 84.949 107.634 85.267 109.944C85.324 110.349 85.346 110.759 85.365 110.97ZM82.788 112.119L82.702 112.109C82.702 111.909 82.713 111.709 82.7 111.509C82.627 110.263 82.347 109.076 81.625 108.033C80.94 107.045 80.007 106.462 78.793 106.377C77.434 106.281 76.292 107.041 75.891 108.429C75.289 110.513 75.493 112.544 76.551 114.453C77.012 115.285 77.695 115.899 78.61 116.222C80.403 116.853 81.993 116.036 82.46 114.2C82.632 113.522 82.682 112.813 82.788 112.119Z" fill="#DBC7BE"/>
<path fill-rule="evenodd" clip-rule="evenodd" d="M41.319 111.134C41.282 112.656 40.923 114.063 39.983 115.286C38.976 116.596 37.592 117.296 36.018 117.591C34.157 117.939 32.409 117.623 30.914 116.374C30.204 115.78 29.719 115.019 29.399 114.153C28.874 112.733 28.743 111.278 29.066 109.795C29.411 108.208 30.307 106.995 31.696 106.181C33.302 105.242 35.035 104.823 36.886 105.245C39.266 105.789 40.64 107.34 41.148 109.688C41.25 110.162 41.264 110.652 41.319 111.134ZM38.713 112.138L38.644 112.128V111.842C38.605 110.446 38.332 109.116 37.499 107.956C36.882 107.095 36.056 106.555 34.997 106.404C33.271 106.158 32.143 107.182 31.769 108.573C31.281 110.39 31.434 112.185 32.189 113.908C32.66 114.982 33.404 115.819 34.547 116.225C36.329 116.858 37.943 116.02 38.394 114.191C38.56 113.522 38.61 112.824 38.713 112.138Z" fill="#DBC7BE"/>
<path fill-rule="evenodd" clip-rule="evenodd" d="M82.8621 33.544C84.0891 37.091 84.9711 40.712 85.2621 44.464C85.6221 49.12 85.4581 53.744 84.4761 58.323L84.3501 58.689C84.0421 58.69 83.7281 58.651 83.4271 58.698C80.8841 59.098 78.3441 59.512 75.8031 59.924C73.1761 60.35 70.5471 60.759 67.9251 61.213C66.9961 61.373 65.8461 61.182 65.4711 62.466L65.2911 62.527L65.4181 54.849L65.2891 36.323L66.5131 36.113C68.5141 35.786 70.5151 35.453 72.5191 35.134C74.9091 34.755 77.3011 34.385 79.6931 34.015C80.7491 33.853 81.8061 33.702 82.8621 33.544Z" fill="#439934"/>
<path fill-rule="evenodd" clip-rule="evenodd" d="M62.765 84.911C61.474 83.801 60.138 82.74 58.901 81.572C52.243 75.292 47.372 67.899 44.973 58.986C44.312 56.534 43.872 54.041 43.73 51.507C43.63 49.733 43.487 47.944 43.613 46.179C43.946 41.486 44.625 36.838 46.001 32.317L46.077 32.212C46.211 32.39 46.403 32.548 46.471 32.749C47.815 36.705 49.148 40.665 50.475 44.628C54.644 57.079 58.808 69.533 62.984 81.982C63.066 82.225 63.277 82.424 63.429 82.643L62.765 84.911Z" fill="#45A538"/>
<path fill-rule="evenodd" clip-rule="evenodd" d="M82.862 33.544C81.805 33.701 80.748 33.853 79.693 34.015C77.301 34.385 74.909 34.755 72.519 35.134C70.516 35.452 68.515 35.785 66.513 36.113L65.289 36.323L65.279 35.525C65.238 34.869 65.17 34.213 65.161 33.557L65.024 21.003C64.992 18.384 64.944 15.765 64.891 13.147C64.864 11.5198 64.817 9.89303 64.75 8.267C64.71 7.394 64.569 6.525 64.513 5.652C64.48 5.15 64.524 4.644 64.535 4.14C65.159 5.349 65.77 6.567 66.411 7.767C67.424 9.664 69.039 11.062 70.494 12.587C76.24 18.618 80.319 25.626 82.862 33.544Z" fill="#46A037"/>
<path fill-rule="evenodd" clip-rule="evenodd" d="M65.2919 62.527L65.4719 62.466C65.8469 61.182 66.9969 61.373 67.9259 61.213C70.5479 60.759 73.1769 60.35 75.8039 59.924C78.3449 59.513 80.8849 59.099 83.4279 58.698C83.7289 58.651 84.0429 58.69 84.3509 58.689C83.8759 60.385 83.5019 62.118 82.8989 63.767C82.2139 65.637 81.386 67.463 80.507 69.253C79.1902 71.9223 77.5611 74.4259 75.6539 76.711C74.1879 78.473 72.5539 80.104 70.9169 81.713C70.0109 82.602 68.9449 83.327 67.9509 84.127L67.6929 83.951L66.7659 83.159L65.8069 81.055C65.1517 78.6015 64.7941 76.078 64.7419 73.539L64.7599 73.111L64.8909 71.257C64.9339 70.624 64.9919 69.992 65.0189 69.359C65.1149 67.083 65.2009 64.805 65.2919 62.527Z" fill="#409433"/>
<path fill-rule="evenodd" clip-rule="evenodd" d="M65.292 62.527C65.202 64.805 65.116 67.084 65.019 69.362C64.992 69.996 64.935 70.628 64.891 71.26L64.307 71.481C63.009 67.66 61.71 63.879 60.44 60.089C58.339 53.818 56.264 47.538 54.166 41.265C52.4719 36.2024 50.7659 31.1437 49.048 26.089C48.967 25.853 48.737 25.667 48.577 25.458L52.317 18.581C52.446 18.804 52.615 19.013 52.696 19.253C54.426 24.373 56.153 29.494 57.865 34.62C60.093 41.29 62.306 47.963 64.532 54.634C64.621 54.9 64.767 55.146 64.907 55.445L65.419 54.849L65.292 62.527Z" fill="#4FAA41"/>
<path fill-rule="evenodd" clip-rule="evenodd" d="M48.576 25.458C48.737 25.667 48.9671 25.853 49.0471 26.089C50.765 31.1436 52.471 36.2023 54.1651 41.265C56.2631 47.538 58.338 53.818 60.439 60.089C61.709 63.879 63.008 67.659 64.306 71.481L64.89 71.26L64.7591 73.114L64.64 73.541C64.437 75.57 64.2661 77.603 64.0181 79.628C63.8941 80.643 63.6291 81.639 63.4281 82.643C63.2771 82.424 63.0651 82.225 62.9831 81.982C58.8061 69.533 54.643 57.079 50.474 44.628C49.1476 40.6656 47.813 36.7059 46.4701 32.749C46.4021 32.548 46.21 32.39 46.076 32.212L48.576 25.458Z" fill="#4AA73C"/>
<path fill-rule="evenodd" clip-rule="evenodd" d="M65.418 54.849L64.906 55.445C64.766 55.146 64.62 54.9 64.531 54.634C62.305 47.963 60.092 41.29 57.864 34.62C56.15 29.4946 54.427 24.3723 52.695 19.253C52.614 19.013 52.445 18.804 52.316 18.581L56.941 12.497C57.087 12.691 57.295 12.864 57.37 13.083C58.654 16.843 59.926 20.606 61.192 24.372C62.374 27.89 63.538 31.412 64.734 34.924C64.814 35.159 65.093 35.325 65.279 35.525L65.289 36.323L65.418 54.849Z" fill="#57AE47"/>
<path fill-rule="evenodd" clip-rule="evenodd" d="M65.279 35.525C65.092 35.326 64.814 35.16 64.734 34.924C63.539 31.412 62.374 27.89 61.192 24.372C59.927 20.606 58.653 16.843 57.37 13.083C57.295 12.864 57.087 12.691 56.941 12.497C58.445 11.024 59.902 9.498 61.467 8.093C62.858 6.845 63.976 5.507 64.028 3.534L64.138 3.141L64.534 4.139C64.524 4.643 64.479 5.149 64.512 5.651C64.569 6.524 64.71 7.393 64.749 8.266C64.822 9.891 64.857 11.519 64.89 13.146C64.943 15.764 64.991 18.383 65.023 21.002L65.16 33.556C65.17 34.213 65.239 34.869 65.279 35.525Z" fill="#60B24F"/>
<path fill-rule="evenodd" clip-rule="evenodd" d="M63.429 82.642C63.63 81.638 63.895 80.642 64.019 79.627C64.267 77.603 64.438 75.569 64.641 73.54L64.692 73.532L64.742 73.541C64.7942 76.08 65.1518 78.6035 65.807 81.057C65.672 81.235 65.483 81.392 65.411 81.592C64.856 83.158 64.332 84.737 63.774 86.302C63.698 86.516 63.484 86.683 63.335 86.87L62.764 84.91L63.429 82.642Z" fill="#A9AA88"/>
<path fill-rule="evenodd" clip-rule="evenodd" d="M63.335 86.871C63.484 86.683 63.698 86.517 63.774 86.303C64.332 84.738 64.856 83.159 65.411 81.593C65.482 81.393 65.672 81.236 65.807 81.058L66.766 83.162C66.577 83.43 66.315 83.673 66.21 83.972L64.374 89.364C64.298 89.581 64.041 89.733 63.867 89.916L63.335 86.871Z" fill="#B6B598"/>
<path fill-rule="evenodd" clip-rule="evenodd" d="M63.8669 89.915C64.0399 89.732 64.2979 89.58 64.3739 89.363L66.2099 83.971C66.3139 83.672 66.5769 83.429 66.7659 83.161L67.6939 83.952C67.2459 84.395 66.9969 84.907 67.1469 85.554L66.8649 86.477C66.7369 86.635 66.5509 86.773 66.4879 86.954C65.8469 88.79 65.2359 90.636 64.5899 92.471C64.5079 92.703 64.2809 92.886 64.1219 93.092L63.8669 89.915Z" fill="#C2C1A7"/>
<path fill-rule="evenodd" clip-rule="evenodd" d="M64.121 93.091C64.281 92.885 64.508 92.702 64.589 92.47C65.235 90.635 65.847 88.789 66.487 86.953C66.55 86.772 66.736 86.635 66.864 86.476L66.475 90.712C66.371 90.832 66.221 90.937 66.171 91.076L64.877 94.784C64.786 95.037 64.612 95.263 64.476 95.5C64.355 95.342 64.139 95.189 64.129 95.025C64.091 94.383 64.118 93.736 64.121 93.091Z" fill="#CECDB7"/>
<path fill-rule="evenodd" clip-rule="evenodd" d="M64.4771 95.501C64.6131 95.264 64.787 95.038 64.878 94.785L66.172 91.077C66.222 90.937 66.373 90.833 66.476 90.713L66.486 93.493L65.555 95.88L64.4771 95.501Z" fill="#DBDAC7"/>
<path fill-rule="evenodd" clip-rule="evenodd" d="M65.5551 95.88L66.4861 93.493L66.6781 96.317L65.5551 95.88Z" fill="#EBE9DC"/>
<path fill-rule="evenodd" clip-rule="evenodd" d="M67.146 85.554C66.997 84.908 67.245 84.396 67.693 83.952L67.951 84.128L67.146 85.554Z" fill="#CECDB7"/>
<path fill-rule="evenodd" clip-rule="evenodd" d="M64.742 73.542L64.692 73.533L64.641 73.541L64.76 73.114L64.742 73.542Z" fill="#4FAA41"/>
</svg>
