<svg width="286" height="79" viewBox="0 0 286 79" fill="none" xmlns="http://www.w3.org/2000/svg">
<path d="M3.25 22.6H13.25V57H3.25V22.6ZM15.35 44.95V34.2L23.25 22.6H34.15L22.3 38.8L34.3 57H23.1L15.35 44.95ZM36.9809 19.85H46.2309V27.05H36.9809V19.85ZM36.9809 31.5H46.2309V57H36.9809V31.5ZM65.8723 41.45C65.8723 40.65 65.7889 40.0333 65.6223 39.6C65.4889 39.2667 65.2723 39.0667 64.9723 39C64.7056 38.9 64.2223 38.85 63.5223 38.85H63.2723V32.6C64.5723 31.6333 66.3723 31.15 68.6723 31.15C69.7056 31.15 70.6056 31.2833 71.3723 31.55C72.1389 31.7833 72.7889 32.2167 73.3223 32.85C74.5223 34.3167 75.1223 37.05 75.1223 41.05V57H65.8723V41.45ZM79.8223 41.45C79.8223 40.65 79.7389 40.0333 79.5723 39.6C79.4389 39.2667 79.2223 39.0667 78.9223 39C78.6556 38.9 78.1723 38.85 77.4723 38.85H77.2223C77.1556 37.9833 77.0556 37.0833 76.9223 36.15C76.6556 34.8167 76.3723 33.85 76.0723 33.25C77.4723 31.85 79.4723 31.15 82.0723 31.15C84.9056 31.15 86.8389 32.0667 87.8723 33.9C88.3389 34.7 88.6556 35.6833 88.8223 36.85C88.9889 37.9833 89.0723 39.3833 89.0723 41.05V57H79.8223V41.45ZM51.9223 31.5H61.1723V57H51.9223V31.5ZM108.182 22.6H118.182V57H108.182V22.6ZM120.282 49.35H120.682C122.315 49.35 123.465 49.2833 124.132 49.15C124.832 48.9833 125.348 48.6167 125.682 48.05C126.048 47.45 126.248 46.5 126.282 45.2C126.348 43.5333 126.382 41.7333 126.382 39.8C126.382 37.9 126.348 36.0833 126.282 34.35C126.215 33.05 125.998 32.1 125.632 31.5C125.298 30.9 124.748 30.5333 123.982 30.4C123.215 30.3 122.115 30.25 120.682 30.25H120.282V22.6H120.682C123.348 22.6 125.565 22.7167 127.332 22.95C129.132 23.1833 130.615 23.55 131.782 24.05C132.915 24.55 133.815 25.2333 134.482 26.1C135.148 26.9667 135.632 28.05 135.932 29.35C136.198 30.5167 136.365 31.9 136.432 33.5C136.532 35.0667 136.582 37.1667 136.582 39.8C136.582 42.4667 136.532 44.5833 136.432 46.15C136.365 47.7167 136.198 49.0833 135.932 50.25C135.632 51.55 135.148 52.6333 134.482 53.5C133.815 54.3667 132.915 55.05 131.782 55.55C130.615 56.05 129.132 56.4167 127.332 56.65C125.565 56.8833 123.348 57 120.682 57H120.282V49.35ZM156.016 44.3C156.016 42.6 155.999 41.4667 155.966 40.9C155.933 40.1 155.833 39.5 155.666 39.1C155.499 38.6667 155.233 38.4 154.866 38.3C154.466 38.2 153.916 38.15 153.216 38.15H152.516V31.1H153.216C156.116 31.1 158.383 31.3333 160.016 31.8C161.649 32.2333 162.866 32.9667 163.666 34C164.399 34.9333 164.866 36.1833 165.066 37.75C165.299 39.2833 165.416 41.4667 165.416 44.3C165.416 46.9333 165.333 48.9833 165.166 50.45C165.033 51.8833 164.683 53.0667 164.116 54C163.483 55.0333 162.533 55.8167 161.266 56.35C159.999 56.85 158.249 57.1667 156.016 57.3V44.3ZM153.216 57.4C150.316 57.4 148.049 57.1833 146.416 56.75C144.783 56.3167 143.566 55.5833 142.766 54.55C142.033 53.6167 141.549 52.3833 141.316 50.85C141.116 49.3167 141.016 47.1333 141.016 44.3C141.016 41.7 141.099 39.6667 141.266 38.2C141.433 36.7333 141.799 35.5167 142.366 34.55C142.966 33.4833 143.899 32.7 145.166 32.2C146.433 31.6667 148.183 31.3333 150.416 31.2V44.3C150.416 46 150.433 47.1167 150.466 47.65C150.499 48.45 150.599 49.05 150.766 49.45C150.933 49.85 151.216 50.1 151.616 50.2C151.949 50.3 152.483 50.35 153.216 50.35H153.916V57.4H153.216ZM184.829 44.95C184.829 43.1833 184.813 42.0167 184.779 41.45C184.713 40.5167 184.629 39.9 184.529 39.6C184.396 39.2667 184.163 39.0667 183.829 39C183.496 38.9 182.963 38.85 182.229 38.85H181.729V32.6C183.029 31.6333 184.729 31.15 186.829 31.15C189.829 31.15 191.846 32.0667 192.879 33.9C193.346 34.7 193.663 35.6833 193.829 36.85C193.996 37.9833 194.079 39.3833 194.079 41.05V57H184.829V44.95ZM170.379 31.5H179.629V57H170.379V31.5ZM206.524 56.85C205.19 56.85 204.057 56.6333 203.124 56.2C202.19 55.7333 201.424 55 200.824 54C199.624 52.0667 199.024 48.7 199.024 43.9C199.024 39.0667 199.624 35.7167 200.824 33.85C201.424 32.9167 202.19 32.2333 203.124 31.8C204.057 31.3667 205.19 31.15 206.524 31.15C207.657 31.15 208.624 31.25 209.424 31.45C210.224 31.65 210.957 32.0167 211.624 32.55V38.85H211.074C210.34 38.85 209.807 38.9 209.474 39C209.174 39.0667 208.94 39.2333 208.774 39.5C208.607 39.8667 208.507 40.3833 208.474 41.05C208.44 41.5167 208.424 42.5 208.424 44C208.424 45.5 208.44 46.4833 208.474 46.95C208.507 47.65 208.607 48.1667 208.774 48.5C208.94 48.8 209.207 48.9833 209.574 49.05C210.04 49.1167 210.54 49.15 211.074 49.15H211.624V55.5C210.957 56.0333 210.24 56.4 209.474 56.6C208.707 56.7667 207.724 56.85 206.524 56.85ZM209.874 67.3C208.207 67.3 206.207 67.2 203.874 67L200.874 66.7V60.25H207.574C208.774 60.25 209.94 60.2167 211.074 60.15C211.907 60.0833 212.507 59.9167 212.874 59.65C213.274 59.4167 213.524 59 213.624 58.4C213.69 57.6 213.724 56.75 213.724 55.85V31.5H222.974V54.2C222.974 56.8 222.857 58.8333 222.624 60.3C222.39 61.8 221.89 63.05 221.124 64.05C220.257 65.15 218.924 65.9667 217.124 66.5C215.357 67.0333 212.94 67.3 209.874 67.3ZM242.068 22.6H252.068V57H242.068V22.6ZM258.172 19.85H267.422V57H258.172V19.85ZM273.114 19.85H282.364V57H273.114V19.85Z" fill="white"/>
<circle cx="247" cy="13" r="6" fill="#FF7A00"/>
</svg>
