<svg width="178" height="178" viewBox="0 0 178 178" fill="none" xmlns="http://www.w3.org/2000/svg">
<g filter="url(#filter0_ddiii_157_279)">
<path fill-rule="evenodd" clip-rule="evenodd" d="M104.136 27C114.175 27 119.193 27 124.598 28.7083C130.498 30.8558 135.144 35.5025 137.292 41.4025C139 46.8058 139 51.8258 139 61.8642V92.1358C139 102.175 139 107.193 137.292 112.598C135.144 118.498 130.498 123.144 124.598 125.291C119.193 127 114.175 127 104.136 127H73.8642C63.825 127 58.8058 127 53.4025 125.291C47.5025 123.144 42.8558 118.498 40.7083 112.598C39 107.193 39 102.175 39 92.1358V61.8642C39 51.8258 39 46.8058 40.7083 41.4025C42.8558 35.5025 47.5025 30.8558 53.4025 28.7083C58.8058 27 63.825 27 73.8642 27H104.136Z" fill="url(#paint0_linear_157_279)"/>
<path d="M104.136 27.963C114.207 27.963 119.062 27.9721 124.287 29.6203C129.904 31.6712 134.329 36.0956 136.38 41.7125C138.028 46.9376 138.037 51.794 138.037 61.8642V92.1358C138.037 102.207 138.028 107.062 136.38 112.288C134.329 117.904 129.904 122.329 124.288 124.379C119.062 126.028 114.207 126.037 104.136 126.037H73.8642C63.7931 126.037 58.9376 126.028 53.7126 124.379C48.0957 122.329 43.6712 117.904 41.6203 112.287C39.9722 107.062 39.963 102.207 39.963 92.1358V61.8642C39.963 51.794 39.9721 46.9376 41.6203 41.7126C43.6712 36.0956 48.0956 31.6712 53.7126 29.6203C58.9376 27.9721 63.7931 27.963 73.8642 27.963H104.136Z" stroke="url(#paint1_linear_157_279)" stroke-opacity="0.7" stroke-width="1.92597"/>
<path d="M104.136 27.963C114.207 27.963 119.062 27.9721 124.287 29.6203C129.904 31.6712 134.329 36.0956 136.38 41.7125C138.028 46.9376 138.037 51.794 138.037 61.8642V92.1358C138.037 102.207 138.028 107.062 136.38 112.288C134.329 117.904 129.904 122.329 124.288 124.379C119.062 126.028 114.207 126.037 104.136 126.037H73.8642C63.7931 126.037 58.9376 126.028 53.7126 124.379C48.0957 122.329 43.6712 117.904 41.6203 112.287C39.9722 107.062 39.963 102.207 39.963 92.1358V61.8642C39.963 51.794 39.9721 46.9376 41.6203 41.7126C43.6712 36.0956 48.0956 31.6712 53.7126 29.6203C58.9376 27.9721 63.7931 27.963 73.8642 27.963H104.136Z" stroke="url(#paint2_linear_157_279)" stroke-opacity="0.5" stroke-width="1.92597"/>
</g>
<g clip-path="url(#clip0_157_279)">
<path d="M102.484 67.8216L102.462 67.8122C102.45 67.8075 102.437 67.8028 102.426 67.7918C102.39 67.7527 102.373 67.699 102.382 67.6463L103.593 60.251L109.272 65.925L103.366 68.435C103.35 68.4416 103.332 68.4448 103.314 68.4444H103.291C103.283 68.4397 103.275 68.4334 103.259 68.4178C103.04 68.1733 102.777 67.9712 102.484 67.8216ZM110.721 67.3709L116.793 73.4361C118.054 74.6974 118.685 75.3264 118.915 76.0556C118.95 76.1636 118.978 76.2716 119 76.3827L104.489 70.2439C104.481 70.2407 104.474 70.2376 104.466 70.2345C104.408 70.211 104.34 70.1844 104.34 70.125C104.34 70.0655 104.409 70.0373 104.467 70.0139L104.486 70.006L110.721 67.3709ZM118.752 78.3293C118.439 78.9177 117.828 79.528 116.794 80.5623L109.949 87.399L101.094 85.5572L101.047 85.5478C100.969 85.5353 100.886 85.5212 100.886 85.4508C100.818 84.7133 100.446 84.0371 99.86 83.584C99.824 83.548 99.8334 83.4916 99.8444 83.44C99.8444 83.4322 99.8444 83.4244 99.8475 83.4181L101.513 73.2061L101.519 73.1717C101.528 73.0934 101.542 73.0027 101.613 73.0027C102.334 72.9131 102.989 72.5382 103.43 71.9621C103.444 71.9464 103.454 71.9292 103.472 71.9198C103.523 71.8963 103.582 71.9198 103.634 71.9417L118.752 78.3293ZM108.374 88.9716L97.117 100.216L99.0439 88.3864L99.047 88.3707C99.0486 88.3551 99.0517 88.3394 99.0564 88.3254C99.0721 88.2878 99.1128 88.2722 99.152 88.2565L99.1708 88.2487C99.5926 88.0689 99.9658 87.7916 100.259 87.4397C100.297 87.3959 100.343 87.3536 100.4 87.3458C100.416 87.3433 100.431 87.3433 100.446 87.3458L108.374 88.9716ZM94.7343 102.596L93.4654 103.864L79.4371 83.6121C79.432 83.6047 79.4268 83.5974 79.4214 83.5902C79.3995 83.5605 79.376 83.5308 79.3807 83.4963C79.3822 83.4713 79.3979 83.4494 79.4151 83.4306L79.4308 83.4103C79.4731 83.3477 79.5091 83.2851 79.5483 83.2178L79.5796 83.163L79.5843 83.1583C79.6063 83.1208 79.6266 83.0848 79.6642 83.0644C79.6971 83.0488 79.7425 83.0551 79.7786 83.0629L95.3202 86.2645C95.3637 86.2713 95.4047 86.289 95.4393 86.3161C95.4596 86.3365 95.4643 86.3584 95.469 86.3834C95.6888 87.214 96.2845 87.8942 97.0794 88.2221C97.1233 88.244 97.1045 88.2925 97.0841 88.3441C97.074 88.3668 97.0661 88.3904 97.0606 88.4146C96.8648 89.6038 95.1855 99.8346 94.7343 102.596ZM92.0837 105.243C91.1485 106.167 90.5971 106.657 89.9736 106.854C89.3589 107.049 88.6991 107.049 88.0844 106.854C87.3544 106.623 86.723 105.994 85.462 104.732L71.3741 90.6601L75.0539 84.9594C75.0711 84.9313 75.0884 84.9062 75.1165 84.8859C75.1557 84.8577 75.2121 84.8702 75.2591 84.8859C76.1037 85.1404 77.0106 85.0945 77.8251 84.756C77.8674 84.7404 77.9097 84.7294 77.9426 84.7591C77.959 84.7741 77.9737 84.7909 77.9864 84.8092L92.0837 105.243ZM70.0159 89.3034L66.7841 86.0752L73.1662 83.3555C73.1825 83.3484 73.2001 83.3447 73.2179 83.3446C73.2712 83.3446 73.3025 83.3978 73.3307 83.4463C73.3948 83.5448 73.4628 83.6409 73.5343 83.7342L73.5547 83.7592C73.5735 83.7858 73.561 83.8124 73.5422 83.8375L70.0159 89.3034ZM65.3539 84.6465L61.2652 80.5623C60.5697 79.8675 60.0652 79.3637 59.7143 78.9302L72.1464 81.5059C72.162 81.5088 72.1777 81.5114 72.1934 81.5137C72.2701 81.5262 72.3547 81.5403 72.3547 81.6123C72.3547 81.6905 72.2623 81.7265 72.184 81.7563L72.148 81.7719L65.3539 84.6465ZM59 76.8302C59.0142 76.5671 59.0615 76.3069 59.141 76.0556C59.3728 75.3264 60.0026 74.6974 61.2652 73.4361L66.4975 68.2096C68.9065 71.7021 71.3221 75.1901 73.7443 78.6736C73.7866 78.7299 73.8336 78.7925 73.785 78.8394C73.5563 79.0914 73.3276 79.3668 73.1662 79.6657C73.1487 79.7041 73.1218 79.7375 73.0879 79.7627C73.0675 79.7752 73.0456 79.7705 73.0221 79.7658L59 76.8302ZM67.8979 66.8107L74.9333 59.7831C75.5943 60.0726 78.0005 61.0882 80.153 61.9957C81.7822 62.6843 83.2673 63.3102 83.7341 63.5136C83.7811 63.5324 83.8234 63.5512 83.8437 63.5981C83.8563 63.6263 83.85 63.6623 83.8437 63.692C83.6175 64.7225 83.9254 65.7975 84.663 66.5525C84.71 66.5994 84.663 66.6667 84.6223 66.7246L84.6004 66.7575L77.457 77.8098C77.4382 77.8411 77.4209 77.8677 77.3896 77.888C77.352 77.9115 77.2987 77.9006 77.2549 77.8896C76.977 77.8169 76.6914 77.778 76.4042 77.7738C76.1473 77.7738 75.8685 77.8207 75.5865 77.8724C75.5552 77.8771 75.5254 77.8833 75.5004 77.8646C75.4727 77.842 75.4489 77.815 75.4299 77.7848L67.8979 66.8107ZM76.3541 58.3638L85.462 49.266C86.723 48.0063 87.3544 47.3757 88.0844 47.1456C88.6991 46.9515 89.3589 46.9515 89.9736 47.1456C90.7036 47.3757 91.3349 48.0063 92.596 49.266L94.5698 51.2376L88.0922 61.2587C88.0762 61.2879 88.0543 61.3135 88.028 61.3338C87.9888 61.3604 87.934 61.3495 87.887 61.3338C86.8502 61.0195 85.7249 61.2361 84.8792 61.9128C84.8369 61.9566 84.7743 61.9316 84.721 61.9081C83.8751 61.5404 77.2956 58.7628 76.3541 58.3638ZM95.9452 52.6115L101.926 58.586L100.485 67.5023V67.5258C100.484 67.5461 100.48 67.5662 100.473 67.5853C100.457 67.6166 100.426 67.6228 100.394 67.6322C100.086 67.7255 99.7959 67.8699 99.5358 68.0594C99.5246 68.0674 99.5141 68.0763 99.5044 68.086C99.4872 68.1048 99.47 68.122 99.4418 68.1251C99.4188 68.1258 99.3959 68.1221 99.3744 68.1142L90.2603 64.246L90.2431 64.2381C90.1851 64.2147 90.1162 64.1865 90.1162 64.127C90.0626 63.6197 89.8967 63.1306 89.6305 62.6952C89.5867 62.6232 89.5381 62.5481 89.5757 62.4746L95.9452 52.6115ZM89.7856 66.0784L98.3295 69.6931C98.3765 69.715 98.4282 69.7353 98.4486 69.7838C98.4567 69.813 98.4567 69.8439 98.4486 69.873C98.4235 69.9982 98.4016 70.1406 98.4016 70.2846V70.524C98.4016 70.5835 98.3405 70.6085 98.2841 70.632L98.2669 70.6382C96.9134 71.2157 79.2647 78.733 79.2381 78.733C79.2115 78.733 79.1833 78.733 79.1567 78.7064C79.1097 78.6595 79.1567 78.5938 79.199 78.5343C79.2064 78.524 79.2137 78.5136 79.2209 78.503L86.2421 67.6432L86.2546 67.6244C86.2954 67.5587 86.3424 67.4851 86.4176 67.4851L86.4881 67.4961C86.6478 67.518 86.7888 67.5383 86.9314 67.5383C87.9966 67.5383 88.9836 67.0204 89.5788 66.1347C89.593 66.111 89.611 66.0899 89.6321 66.0721C89.6744 66.0408 89.7371 66.0565 89.7856 66.0784ZM80.001 80.4512L99.2381 72.2563C99.2381 72.2563 99.2663 72.2563 99.2929 72.2829C99.3979 72.3877 99.4872 72.4581 99.5734 72.5238L99.6157 72.5504C99.6548 72.5723 99.694 72.5974 99.6971 72.6381C99.6971 72.6537 99.6971 72.6631 99.694 72.6772L98.046 82.789L98.0397 82.8297C98.0287 82.908 98.0178 82.9972 97.9442 82.9972C97.0522 83.0573 96.2473 83.5533 95.7933 84.3226L95.7855 84.3351C95.7635 84.3711 95.7432 84.4055 95.7071 84.4243C95.6742 84.4399 95.6319 84.4337 95.5975 84.4258L80.2564 81.2649C80.2407 81.2618 80.0183 80.4528 80.001 80.4512Z" fill="url(#paint3_radial_157_279)"/>
</g>
<defs>
<filter id="filter0_ddiii_157_279" x="0.480591" y="0.0364141" width="177.039" height="177.039" filterUnits="userSpaceOnUse" color-interpolation-filters="sRGB">
<feFlood flood-opacity="0" result="BackgroundImageFix"/>
<feColorMatrix in="SourceAlpha" type="matrix" values="0 0 0 0 0 0 0 0 0 0 0 0 0 0 0 0 0 0 127 0" result="hardAlpha"/>
<feOffset dy="11.5558"/>
<feGaussianBlur stdDeviation="13.4818"/>
<feComposite in2="hardAlpha" operator="out"/>
<feColorMatrix type="matrix" values="0 0 0 0 0 0 0 0 0 0 0 0 0 0 0 0 0 0 0.2 0"/>
<feBlend mode="multiply" in2="BackgroundImageFix" result="effect1_dropShadow_157_279"/>
<feColorMatrix in="SourceAlpha" type="matrix" values="0 0 0 0 0 0 0 0 0 0 0 0 0 0 0 0 0 0 127 0" result="hardAlpha"/>
<feOffset dy="11.5558"/>
<feGaussianBlur stdDeviation="19.2597"/>
<feComposite in2="hardAlpha" operator="out"/>
<feColorMatrix type="matrix" values="0 0 0 0 0.972549 0 0 0 0 0.0784314 0 0 0 0 0.0784314 0 0 0 0.14 0"/>
<feBlend mode="multiply" in2="effect1_dropShadow_157_279" result="effect2_dropShadow_157_279"/>
<feBlend mode="normal" in="SourceGraphic" in2="effect2_dropShadow_157_279" result="shape"/>
<feColorMatrix in="SourceAlpha" type="matrix" values="0 0 0 0 0 0 0 0 0 0 0 0 0 0 0 0 0 0 127 0" result="hardAlpha"/>
<feOffset dy="-8.99812"/>
<feGaussianBlur stdDeviation="5.99874"/>
<feComposite in2="hardAlpha" operator="arithmetic" k2="-1" k3="1"/>
<feColorMatrix type="matrix" values="0 0 0 0 1 0 0 0 0 1 0 0 0 0 1 0 0 0 0.5 0"/>
<feBlend mode="normal" in2="shape" result="effect3_innerShadow_157_279"/>
<feColorMatrix in="SourceAlpha" type="matrix" values="0 0 0 0 0 0 0 0 0 0 0 0 0 0 0 0 0 0 127 0" result="hardAlpha"/>
<feOffset dx="14.0521" dy="21.5505"/>
<feGaussianBlur stdDeviation="17.5088"/>
<feComposite in2="hardAlpha" operator="arithmetic" k2="-1" k3="1"/>
<feColorMatrix type="matrix" values="0 0 0 0 1 0 0 0 0 1 0 0 0 0 1 0 0 0 0.8 0"/>
<feBlend mode="normal" in2="effect3_innerShadow_157_279" result="effect4_innerShadow_157_279"/>
<feColorMatrix in="SourceAlpha" type="matrix" values="0 0 0 0 0 0 0 0 0 0 0 0 0 0 0 0 0 0 127 0" result="hardAlpha"/>
<feOffset dx="2.99937" dy="5.48885"/>
<feGaussianBlur stdDeviation="3.74922"/>
<feComposite in2="hardAlpha" operator="arithmetic" k2="-1" k3="1"/>
<feColorMatrix type="matrix" values="0 0 0 0 1 0 0 0 0 1 0 0 0 0 1 0 0 0 1 0"/>
<feBlend mode="normal" in2="effect4_innerShadow_157_279" result="effect5_innerShadow_157_279"/>
</filter>
<linearGradient id="paint0_linear_157_279" x1="35.5" y1="22.2869" x2="135.309" y2="100.711" gradientUnits="userSpaceOnUse">
<stop stop-color="white"/>
<stop offset="1" stop-color="#DADADA"/>
</linearGradient>
<linearGradient id="paint1_linear_157_279" x1="39" y1="27" x2="138.913" y2="126.913" gradientUnits="userSpaceOnUse">
<stop stop-color="white" stop-opacity="0.5"/>
<stop offset="0.471523" stop-color="white" stop-opacity="0"/>
</linearGradient>
<linearGradient id="paint2_linear_157_279" x1="138.913" y1="126.913" x2="39" y2="27" gradientUnits="userSpaceOnUse">
<stop stop-opacity="0.5"/>
<stop offset="0.267412" stop-opacity="0"/>
</linearGradient>
<radialGradient id="paint3_radial_157_279" cx="0" cy="0" r="1" gradientUnits="userSpaceOnUse" gradientTransform="translate(539 -433) scale(959.999)">
<stop stop-color="#20C6B7"/>
<stop offset="1" stop-color="#4D9ABF"/>
</radialGradient>
<clipPath id="clip0_157_279">
<rect width="60" height="60" fill="white" transform="translate(59 47)"/>
</clipPath>
</defs>
</svg>
