<svg width="37" height="30" viewBox="0 0 37 30" fill="none" xmlns="http://www.w3.org/2000/svg">
<path d="M20.2291 12.1162C20.0422 12.1123 19.8565 12.1472 19.6837 12.2185C19.5109 12.2899 19.3547 12.3961 19.225 12.5307C19.0952 12.6653 18.9947 12.8252 18.9297 13.0005C18.8647 13.1758 18.8366 13.3626 18.8473 13.5493C18.8473 13.9236 18.996 14.2826 19.2607 14.5473C19.5254 14.8119 19.8844 14.9606 20.2587 14.9606C20.633 14.9606 20.992 14.8119 21.2567 14.5473C21.5213 14.2826 21.67 13.9236 21.67 13.5493C21.6798 13.3578 21.6491 13.1665 21.58 12.9877C21.5109 12.8089 21.405 12.6466 21.2691 12.5114C21.1331 12.3763 20.9703 12.2712 20.7911 12.2031C20.6119 12.135 20.4204 12.1054 20.2291 12.1162Z" fill="#A7A7A7"/>
<path d="M34.177 2.08451C33.5164 1.42186 32.7312 0.896513 31.8666 0.538753C31.002 0.180994 30.0751 -0.00210263 29.1395 1.82157e-05H7.12202C6.18652 -0.000760607 5.26005 0.182924 4.39562 0.540563C3.53118 0.898202 2.74575 1.42278 2.08425 2.08427C1.42276 2.74577 0.898186 3.5312 0.540547 4.39563C0.182908 5.26007 -0.000776356 6.18654 2.46629e-06 7.12203V17.7182C-0.000776356 18.6537 0.182908 19.5802 0.540547 20.4446C0.898186 21.309 1.42276 22.0945 2.08425 22.756C2.74575 23.4175 3.53118 23.942 4.39562 24.2997C5.26005 24.6573 6.18652 24.841 7.12202 24.8402H15.2428L17.5879 29.6093C17.626 29.7231 17.6989 29.822 17.7963 29.8922C17.8937 29.9623 18.0107 30 18.1307 30C18.2508 30 18.3677 29.9623 18.4652 29.8922C18.5626 29.822 18.6355 29.7231 18.6736 29.6093L21.0186 24.8323H29.1395C30.0743 24.8331 31.0001 24.6497 31.864 24.2925C32.7279 23.9354 33.513 23.4115 34.1744 22.7509C34.8358 22.0902 35.3606 21.3057 35.7187 20.4422C36.0768 19.5786 36.2612 18.653 36.2615 17.7182V7.12203C36.2636 6.18635 36.0805 5.25951 35.7227 4.39492C35.365 3.53034 34.8396 2.74511 34.177 2.08451V2.08451ZM7.99055 16.976C7.62783 16.9915 7.26692 16.9167 6.94029 16.7582C6.61365 16.5997 6.33152 16.3625 6.11925 16.068H6.07977V16.7628H3.865V7.42602H6.11925V10.9791C6.35991 10.7126 6.65511 10.5009 6.98481 10.3585C7.31451 10.2162 7.67099 10.1464 8.03003 10.154C8.45782 10.1677 8.87849 10.2672 9.2671 10.4466C9.6557 10.6259 10.0043 10.8815 10.2923 11.1982C10.5802 11.5149 10.8016 11.8861 10.9433 12.29C11.0851 12.6938 11.1442 13.1221 11.1173 13.5492C11.1423 13.9807 11.0807 14.4129 10.9362 14.8203C10.7917 15.2276 10.5671 15.602 10.2758 15.9213C9.98446 16.2406 9.63219 16.4984 9.23973 16.6795C8.84728 16.8606 8.42255 16.9614 7.99055 16.976V16.976ZM15.0691 16.7589H12.8978V11.3779C12.8978 10.379 12.7241 9.51051 11.8555 9.38023V7.20889C13.7663 7.20889 15.0691 8.59065 15.0691 10.9436V16.7589ZM20.2804 16.9326C19.8069 16.9752 19.3297 16.9188 18.8793 16.7669C18.4288 16.615 18.0149 16.3709 17.664 16.0502C17.3131 15.7294 17.0328 15.3391 16.8411 14.9041C16.6493 14.4691 16.5503 13.9989 16.5503 13.5236C16.5503 13.0482 16.6493 12.578 16.8411 12.143C17.0328 11.708 17.3131 11.3177 17.664 10.997C18.0149 10.6762 18.4288 10.4321 18.8793 10.2802C19.3297 10.1283 19.8069 10.0719 20.2804 10.1145C20.7541 10.0803 21.2298 10.1433 21.6783 10.2997C22.1267 10.456 22.5385 10.7024 22.8883 11.0237C23.2381 11.345 23.5184 11.7345 23.7122 12.1681C23.906 12.6017 24.0091 13.0704 24.0151 13.5453C24.0124 14.0195 23.9112 14.488 23.718 14.9211C23.5248 15.3542 23.2437 15.7424 22.8926 16.0612C22.5415 16.3801 22.1281 16.6225 21.6784 16.7731C21.2287 16.9238 20.7527 16.9794 20.2804 16.9365V16.9326ZM32.2662 16.1943C32.2662 18.8868 30.92 20.233 28.5749 20.233H28.1406V18.1959H28.5749C29.7474 18.1959 30.0949 17.4576 30.0949 16.372V16.068C29.8507 16.3448 29.5498 16.5656 29.2125 16.7155C28.8753 16.8654 28.5097 16.9408 28.1406 16.9365C27.724 16.9324 27.3126 16.8437 26.9313 16.6758C26.55 16.5079 26.2068 16.2642 25.9225 15.9597C25.6382 15.6551 25.4188 15.2959 25.2775 14.9039C25.1363 14.512 25.0761 14.0954 25.1008 13.6795C25.0719 13.2412 25.1319 12.8016 25.2771 12.3871C25.4223 11.9726 25.6498 11.5916 25.9458 11.2672C26.2419 10.9427 26.6005 10.6814 27 10.499C27.3995 10.3165 27.8318 10.2166 28.2709 10.2053C28.6243 10.178 28.9787 10.2438 29.2988 10.3962C29.6188 10.5486 29.8933 10.7823 30.0949 11.0739H30.1383V10.379L32.2662 10.4225V16.1943Z" fill="#A7A7A7"/>
<path d="M28.7921 12.0728C28.6013 12.0632 28.4107 12.0936 28.2325 12.1622C28.0542 12.2309 27.8924 12.3361 27.7573 12.4711C27.6223 12.6062 27.5171 12.768 27.4484 12.9463C27.3798 13.1245 27.3494 13.3151 27.359 13.5059C27.3458 13.6975 27.3739 13.8896 27.4413 14.0695C27.5087 14.2493 27.6138 14.4126 27.7496 14.5484C27.8853 14.6842 28.0487 14.7893 28.2285 14.8567C28.4083 14.924 28.6005 14.9521 28.7921 14.939C28.9809 14.9501 29.1698 14.9202 29.346 14.8514C29.5222 14.7826 29.6814 14.6764 29.8126 14.5403C29.9439 14.4041 30.0442 14.2412 30.1065 14.0626C30.1689 13.8841 30.1918 13.6941 30.1738 13.5059C30.1882 13.3184 30.1627 13.13 30.0991 12.9531C30.0354 12.7761 29.935 12.6147 29.8045 12.4793C29.674 12.3439 29.5163 12.2377 29.3418 12.1677C29.1673 12.0976 28.98 12.0653 28.7921 12.0728Z" fill="#A7A7A7"/>
<path d="M7.46946 14.9824C8.26094 14.9824 8.90255 14.3408 8.90255 13.5493C8.90255 12.7578 8.26094 12.1162 7.46946 12.1162C6.67799 12.1162 6.03638 12.7578 6.03638 13.5493C6.03638 14.3408 6.67799 14.9824 7.46946 14.9824Z" fill="#A7A7A7"/>
</svg>
