<svg width="129" height="128" viewBox="0 0 129 128" fill="none" xmlns="http://www.w3.org/2000/svg">
<path d="M2.19995 98.6C1.59995 98.3 1.19995 97.6 1.19995 96.8C1.19995 95.6 2.09995 94.7 3.29995 94.7C3.69995 94.7 4.09995 94.8 4.39995 95C6.59995 96.5 8.99995 97.2 11.1 97.2C13.4 97.2 14.7 96.2 14.7 94.7V94.6C14.7 92.8 12.2 92.2 9.49995 91.4C6.09995 90.4 2.29995 89 2.29995 84.6V84.5C2.29995 80.1 5.89995 77.5 10.5 77.5C13 77.5 15.4999 78.2 17.7999 79.4C18.5 79.8 19.1 80.5 19.1 81.4C19.1 82.6 18.1 83.5 16.9 83.5C16.5 83.5 16.2 83.4 15.8 83.2C13.9 82.2 12 81.6 10.4 81.6C8.29995 81.6 7.19995 82.6 7.19995 83.9V84C7.19995 85.7 9.69995 86.4 12.4 87.3C15.8 88.3 19.6 89.9 19.6 94V94.1C19.6 99 15.8 101.4 11 101.4C8.09995 101.4 4.89995 100.5 2.19995 98.6ZM40.2999 89.5C40.2999 85 37.2999 82.1 33.7 82.1C30.1 82.1 27 85.1 27 89.5V89.6C27 94 30.1 97 33.7 97C37.2999 96.8 40.2999 94 40.2999 89.5ZM21.9 80.2C21.9 78.7 23 77.5 24.5 77.5C26 77.5 27.2 78.7 27.2 80.2V81.8C28.9 79.4 31.2999 77.5 35 77.5C40.4 77.5 45.7 81.8 45.7 89.4V89.5C45.7 97.1 40.5 101.4 35 101.4C31.2 101.4 28.8 99.5 27.2 97.4V105.5C27.2 107 26 108.1 24.5 108.1C23.1 108.1 21.9 107 21.9 105.5V80.2ZM47.9 80.1C47.9 78.6 49 77.4 50.5 77.4C52 77.4 53.2 78.6 53.2 80.1V81.4C53.5 79.4 56.7 77.5 59 77.5C60.7 77.5 61.5999 78.6 61.5999 80.1C61.5999 81.5 60.7 82.4 59.5 82.6C55.7 83.3 53.0999 86.5 53.0999 91.1V98.7C53.0999 100.1 51.9 101.3 50.4 101.3C49 101.3 47.7999 100.2 47.7999 98.7V80.1M64 80.1C64 78.6 65.2 77.4 66.7 77.4C68.2 77.4 69.4 78.6 69.4 80.1V98.7C69.4 100.2 68.2 101.3 66.7 101.3C65.2 101.3 64 100.2 64 98.7V80.1ZM71.7 80.2C71.7 78.7 72.9 77.5 74.4 77.5C75.9 77.5 77.2 78.7 77.2 80.2V81.3C78.7 79.2 81 77.5 84.7 77.5C90.1 77.5 93.2 81 93.2 86.3V98.7C93.2 100.2 92 101.3 90.5 101.3C89 101.3 87.7 100.2 87.7 98.7V87.9C87.7 84.3 85.7999 82.3 82.6 82.3C79.4 82.3 77.2 84.4 77.2 88V98.7C77.2 100.2 76 101.3 74.4 101.3C72.9 101.3 71.7 100.2 71.7 98.7V80.2ZM107 96.9C103.3 96.9 100.2 94.1 100.2 89.5V89.4C100.2 84.9 103.3 82 107 82C110.7 82 113.9 85 113.9 89.4V89.5C113.9 93.9 110.7 96.9 107 96.9ZM116.5 77.6C115 77.6 113.8 78.8 113.8 80.3V81.9C112 79.5 109.6 77.6 105.7 77.6C100.1 77.6 94.7 81.9 94.7 89.6V89.7C94.7 97.3 100.1 101.7 105.7 101.7C109.6 101.7 112.1 99.8 113.8 97.7C113.5 101.9 110.9 104 106.3 104C103.6 104 101.2 103.3 99 102.2C98.7 102.1 98.4 102 98 102C96.7 102 95.7 103 95.7 104.2C95.7 105.2 96.2999 105.9 97.2 106.3C100.1 107.7 103 108.4 106.4 108.4C110.7 108.4 114 107.4 116.2 105.3C118.2 103.4 119.3 100.5 119.3 96.6V80.2C119.2 78.7 118 77.6 116.5 77.6ZM69.4 71.1C69.4 72.5 68.2 73.7 66.7 73.7C65.2 73.7 64 72.5 64 71.1C64 69.7 65.2 68.5 66.7 68.5C68.2 68.5 69.4 69.7 69.4 71.1ZM83.4 53.8C77.5 61.6 64.7999 59 56.5999 59.3C56.5999 59.3 55.2 59.4 53.7 59.6C53.7 59.6 54.3 59.4 54.9 59.1C60.6 57.2 63.3 56.8 66.8 55C73.3 51.7 79.7999 44.6 81.1 37.2C78.6 44.3 71.1 50.4 64.2 52.9C59.5 54.6 51 56.2 51 56.2L50.7 56C44.9 53.3 44.7 41 55.2999 37.1C59.8999 35.4 64.3 36.3 69.3 35.2C74.6 34 80.8 30.1 83.3 25C86.1 33.3 89.5 46 83.4 53.8ZM83.5 22.6C82.8 24.2 81.9 25.7 80.9 27C76.5 22.6 70.3999 19.9 63.5999 19.9C50.2999 19.9 39.5 30.5 39.5 43.4C39.5 50.2 42.5 56.3 47.2 60.6L47.7 61.1C46.7999 60.4 46.7 59.1 47.4 58.3C48.1 57.4 49.3999 57.3 50.2999 58C51.2 58.7 51.2999 60 50.5999 60.8C49.8999 61.7 48.6 61.8 47.7 61.1L48.0999 61.4C52.2999 64.8 57.6999 66.9 63.5999 66.9C76.2999 66.9 86.7 57.2 87.6 45.1C88.4 39.2 86.6 31.6 83.5 22.6ZM125.6 79.2H124.7V80.4H125.6C125.9 80.4 126.2 80.2 126.2 79.8C126.2 79.4 125.9 79.2 125.6 79.2ZM126.1 82.2L125.2 80.8H124.6V82.2H124.1V78.8H125.5C126.1 78.8 126.6 79.2 126.6 79.8C126.6 80.6 125.9 80.8 125.7 80.8L126.6 82.2H126.1ZM125.3 77.9C123.9 77.9 122.7 79 122.7 80.4C122.7 81.8 123.9 82.9 125.3 82.9C126.7 82.9 127.9 81.8 127.9 80.4C127.9 79.1 126.7 77.9 125.3 77.9ZM125.3 83.5C123.6 83.5 122.2 82.2 122.2 80.5C122.2 78.8 123.6 77.5 125.3 77.5C127 77.5 128.4 78.8 128.4 80.5C128.4 82.1 127 83.5 125.3 83.5Z" fill="#5FB832"/>
</svg>
