<svg width="350" height="198" viewBox="0 0 350 198" fill="none" xmlns="http://www.w3.org/2000/svg">
<g clip-path="url(#clip0_3003_889)">
<rect width="350" height="196.875" transform="translate(0 0.5625)" fill="url(#paint0_linear_3003_889)"/>
<path d="M64.3489 147.013C27.0156 139.605 4.37496 133.158 -2.55212 138.627V230.046H352.096V131.153C323.841 131.153 320.833 154.851 275.26 156.492C238.385 157.819 198.864 113.312 160.964 133.705C125.052 153.028 87.3177 151.57 64.3489 147.013Z" fill="white" fill-opacity="0.1"/>
<g filter="url(#filter0_f_3003_889)">
<path d="M142.638 151.66C108.705 137.183 79.8413 153.754 72.6002 158.621L71.3013 233.884L432.979 246.387L438.407 162.055C409.591 161.059 406.362 171.698 368.803 172.613C331.173 173.53 312.369 130.422 243.708 151.572C202.884 164.148 161.879 159.87 142.638 151.66Z" fill="#38634D"/>
</g>
<path d="M57.9687 124.521C30.3114 100.551 3.09896 152.594 -3.82812 158.062L-2.55208 238.544H352.096L354.557 148.219C326.302 148.219 323.499 159.707 286.745 162.073C249.922 164.443 223.648 106.23 163.516 144.208C125.417 168.271 85.3125 148.219 57.9687 124.521Z" fill="#5DA27F"/>
<path d="M61.9791 162.504C24.4279 156.295 2.18746 157.035 -4.73962 162.504V243.897H349.909L355.833 162.504C327.578 162.504 307.457 165.972 270.703 168.337C233.88 170.707 204.914 162.504 161.875 162.504C132.526 162.504 112.292 170.823 61.9791 162.504Z" fill="url(#paint1_linear_3003_889)"/>
<g style="mix-blend-mode:screen">
<g clip-path="url(#clip1_3003_889)">
<g clip-path="url(#clip2_3003_889)" filter="url(#filter1_f_3003_889)">
<path d="M236.88 43.8492L235.919 44.6787L236.212 45.9192C236.228 45.9866 236.224 46.0572 236.2 46.1222C236.176 46.1871 236.133 46.2436 236.077 46.2843C236.021 46.325 235.954 46.3483 235.885 46.351C235.816 46.3538 235.747 46.336 235.688 46.2999L234.609 45.636L233.53 46.2999C233.471 46.3358 233.402 46.3534 233.333 46.3505C233.264 46.3477 233.198 46.3244 233.142 46.2837C233.086 46.243 233.043 46.1867 233.019 46.1218C232.995 46.057 232.991 45.9865 233.007 45.9192L233.301 44.6787L232.34 43.8492C232.288 43.804 232.25 43.7445 232.231 43.6779C232.213 43.6114 232.214 43.5408 232.235 43.4751C232.256 43.4093 232.297 43.3513 232.351 43.3082C232.405 43.2652 232.47 43.239 232.539 43.2329L233.799 43.1312L234.286 41.9546C234.312 41.8905 234.357 41.8356 234.414 41.797C234.472 41.7584 234.54 41.7378 234.609 41.7378C234.678 41.7378 234.746 41.7584 234.803 41.797C234.861 41.8356 234.906 41.8905 234.932 41.9546L235.418 43.1312L236.679 43.2329C236.747 43.2387 236.813 43.2648 236.867 43.3078C236.922 43.3508 236.962 43.4089 236.983 43.4747C237.005 43.5405 237.006 43.6112 236.988 43.6779C236.969 43.7445 236.931 43.8042 236.879 43.8494L236.88 43.8492Z" fill="white"/>
</g>
</g>
<g clip-path="url(#clip3_3003_889)">
<g clip-path="url(#clip4_3003_889)" filter="url(#filter2_f_3003_889)">
<path d="M280.995 34.0055L280.033 34.835L280.326 36.0755C280.342 36.1428 280.338 36.2134 280.314 36.2784C280.29 36.3434 280.248 36.3998 280.192 36.4405C280.136 36.4813 280.069 36.5045 279.999 36.5073C279.93 36.5101 279.862 36.4923 279.803 36.4561L278.724 35.7922L277.644 36.4561C277.585 36.4921 277.517 36.5097 277.448 36.5068C277.379 36.5039 277.312 36.4807 277.256 36.44C277.2 36.3993 277.158 36.3429 277.134 36.2781C277.11 36.2132 277.106 36.1427 277.122 36.0755L277.416 34.835L276.454 34.0055C276.402 33.9603 276.364 33.9007 276.346 33.8342C276.327 33.7676 276.328 33.6971 276.35 33.6313C276.371 33.5656 276.411 33.5076 276.465 33.4645C276.519 33.4214 276.585 33.3952 276.653 33.3892L277.914 33.2875L278.4 32.1108C278.426 32.0467 278.471 31.9919 278.529 31.9533C278.586 31.9147 278.654 31.894 278.723 31.894C278.793 31.894 278.86 31.9147 278.918 31.9533C278.976 31.9919 279.02 32.0467 279.047 32.1108L279.533 33.2875L280.793 33.3892C280.862 33.395 280.928 33.421 280.982 33.4641C281.036 33.5071 281.077 33.5651 281.098 33.631C281.119 33.6968 281.121 33.7674 281.102 33.8341C281.084 33.9008 281.046 33.9604 280.993 34.0057L280.995 34.0055Z" fill="white"/>
</g>
</g>
<g clip-path="url(#clip5_3003_889)" filter="url(#filter3_f_3003_889)">
<g clip-path="url(#clip6_3003_889)" filter="url(#filter4_f_3003_889)">
<path d="M139.172 48.5888L138.21 49.4183L138.503 50.6588C138.519 50.7262 138.515 50.7968 138.491 50.8618C138.467 50.9268 138.425 50.9832 138.369 51.0239C138.313 51.0647 138.246 51.0879 138.177 51.0907C138.107 51.0934 138.039 51.0756 137.98 51.0395L136.901 50.3756L135.822 51.0395C135.762 51.0754 135.694 51.0931 135.625 51.0902C135.556 51.0873 135.489 51.064 135.433 51.0233C135.377 50.9826 135.335 50.9263 135.311 50.8615C135.287 50.7966 135.283 50.7261 135.299 50.6588L135.593 49.4183L134.631 48.5888C134.579 48.5437 134.541 48.4841 134.523 48.4175C134.504 48.351 134.506 48.2805 134.527 48.2147C134.548 48.149 134.588 48.0909 134.642 48.0479C134.696 48.0048 134.762 47.9786 134.831 47.9725L136.091 47.8709L136.577 46.6942C136.603 46.6301 136.648 46.5752 136.706 46.5366C136.763 46.498 136.831 46.4774 136.9 46.4774C136.97 46.4774 137.038 46.498 137.095 46.5366C137.153 46.5752 137.197 46.6301 137.224 46.6942L137.71 47.8709L138.97 47.9725C139.039 47.9784 139.105 48.0044 139.159 48.0474C139.213 48.0904 139.254 48.1485 139.275 48.2143C139.296 48.2802 139.298 48.3508 139.279 48.4175C139.261 48.4841 139.223 48.5438 139.17 48.5891L139.172 48.5888Z" fill="white"/>
</g>
</g>
<g clip-path="url(#clip7_3003_889)">
<g clip-path="url(#clip8_3003_889)" filter="url(#filter5_f_3003_889)">
<path d="M182.242 58.2996L181.761 58.7144L181.908 59.3346C181.916 59.3683 181.914 59.4036 181.902 59.4361C181.89 59.4686 181.869 59.4968 181.841 59.5171C181.813 59.5375 181.779 59.5491 181.745 59.5505C181.71 59.5519 181.676 59.543 181.646 59.5249L181.107 59.193L180.567 59.5249C180.537 59.5429 180.503 59.5517 180.469 59.5503C180.434 59.5488 180.401 59.5372 180.373 59.5169C180.345 59.4965 180.324 59.4683 180.312 59.4359C180.3 59.4035 180.298 59.3682 180.306 59.3346L180.453 58.7144L179.972 58.2996C179.946 58.277 179.927 58.2472 179.918 58.214C179.908 58.1807 179.909 58.1454 179.92 58.1125C179.93 58.0797 179.95 58.0507 179.977 58.0291C180.004 58.0076 180.037 57.9945 180.072 57.9915L180.702 57.9406L180.945 57.3523C180.958 57.3202 180.98 57.2928 181.009 57.2735C181.038 57.2542 181.072 57.2439 181.106 57.2439C181.141 57.2439 181.175 57.2542 181.204 57.2735C181.233 57.2928 181.255 57.3202 181.268 57.3523L181.511 57.9406L182.141 57.9915C182.176 57.9944 182.209 58.0074 182.236 58.0289C182.263 58.0504 182.283 58.0794 182.294 58.1124C182.304 58.1453 182.305 58.1806 182.296 58.2139C182.287 58.2473 182.268 58.2771 182.241 58.2997L182.242 58.2996Z" fill="white"/>
</g>
</g>
<g clip-path="url(#clip9_3003_889)">
<g clip-path="url(#clip10_3003_889)" filter="url(#filter6_f_3003_889)">
<path d="M249.69 111.164L249.209 111.579L249.356 112.199C249.364 112.233 249.362 112.268 249.35 112.301C249.338 112.333 249.316 112.361 249.288 112.382C249.26 112.402 249.227 112.414 249.192 112.415C249.158 112.416 249.124 112.408 249.094 112.389L248.555 112.057L248.015 112.389C247.985 112.407 247.951 112.416 247.917 112.415C247.882 112.413 247.849 112.402 247.821 112.381C247.793 112.361 247.772 112.333 247.76 112.3C247.748 112.268 247.746 112.233 247.754 112.199L247.901 111.579L247.42 111.164C247.394 111.142 247.375 111.112 247.366 111.078C247.356 111.045 247.357 111.01 247.368 110.977C247.378 110.944 247.398 110.915 247.425 110.894C247.452 110.872 247.485 110.859 247.519 110.856L248.15 110.805L248.393 110.217C248.406 110.185 248.428 110.157 248.457 110.138C248.486 110.119 248.52 110.108 248.554 110.108C248.589 110.108 248.623 110.119 248.652 110.138C248.681 110.157 248.703 110.185 248.716 110.217L248.959 110.805L249.589 110.856C249.624 110.859 249.657 110.872 249.684 110.893C249.711 110.915 249.731 110.944 249.742 110.977C249.752 111.01 249.753 111.045 249.744 111.078C249.734 111.112 249.716 111.142 249.689 111.164L249.69 111.164Z" fill="white"/>
</g>
</g>
<g clip-path="url(#clip11_3003_889)">
<g clip-path="url(#clip12_3003_889)" filter="url(#filter7_f_3003_889)">
<path d="M326.252 60.1225L325.772 60.5372L325.918 61.1575C325.926 61.1912 325.924 61.2265 325.912 61.259C325.9 61.2914 325.879 61.3197 325.851 61.34C325.823 61.3604 325.79 61.372 325.755 61.3734C325.72 61.3748 325.686 61.3659 325.657 61.3478L325.117 61.0159L324.577 61.3478C324.548 61.3658 324.514 61.3746 324.479 61.3732C324.445 61.3717 324.411 61.3601 324.383 61.3397C324.355 61.3194 324.334 61.2912 324.322 61.2588C324.31 61.2264 324.308 61.1911 324.316 61.1575L324.463 60.5372L323.982 60.1225C323.956 60.0999 323.937 60.0701 323.928 60.0368C323.919 60.0036 323.919 59.9683 323.93 59.9354C323.941 59.9025 323.961 59.8735 323.988 59.852C324.015 59.8305 324.048 59.8174 324.082 59.8143L324.712 59.7635L324.955 59.1752C324.968 59.1431 324.991 59.1157 325.02 59.0964C325.048 59.0771 325.082 59.0668 325.117 59.0668C325.152 59.0668 325.185 59.0771 325.214 59.0964C325.243 59.1157 325.265 59.1431 325.279 59.1752L325.522 59.7635L326.152 59.8143C326.186 59.8172 326.219 59.8303 326.246 59.8518C326.273 59.8733 326.293 59.9023 326.304 59.9352C326.315 59.9681 326.316 60.0035 326.306 60.0368C326.297 60.0701 326.278 60.1 326.252 60.1226L326.252 60.1225Z" fill="white"/>
</g>
</g>
<g clip-path="url(#clip13_3003_889)">
<g clip-path="url(#clip14_3003_889)" filter="url(#filter8_f_3003_889)">
<path d="M87.4504 32.7787L86.9698 33.1935L87.1162 33.8137C87.1243 33.8474 87.1222 33.8827 87.1102 33.9152C87.0983 33.9477 87.0769 33.9759 87.0489 33.9963C87.0209 34.0166 86.9875 34.0283 86.9529 34.0296C86.9183 34.031 86.8841 34.0221 86.8545 34.0041L86.3151 33.6721L85.7754 34.0041C85.7459 34.022 85.7117 34.0308 85.6771 34.0294C85.6426 34.028 85.6092 34.0163 85.5813 33.996C85.5534 33.9756 85.5321 33.9475 85.5201 33.915C85.5081 33.8826 85.506 33.8474 85.514 33.8137L85.661 33.1935L85.1804 32.7787C85.1542 32.7561 85.1353 32.7264 85.126 32.6931C85.1167 32.6598 85.1174 32.6245 85.128 32.5917C85.1386 32.5588 85.1587 32.5298 85.1857 32.5082C85.2127 32.4867 85.2455 32.4736 85.2799 32.4706L85.9101 32.4197L86.1532 31.8314C86.1664 31.7994 86.1887 31.7719 86.2175 31.7526C86.2463 31.7333 86.2802 31.723 86.3149 31.723C86.3495 31.723 86.3834 31.7333 86.4122 31.7526C86.441 31.7719 86.4634 31.7994 86.4765 31.8314L86.7195 32.4197L87.3497 32.4706C87.3842 32.4735 87.417 32.4865 87.4441 32.508C87.4713 32.5295 87.4914 32.5586 87.5021 32.5915C87.5128 32.6244 87.5135 32.6597 87.5042 32.6931C87.4949 32.7264 87.476 32.7562 87.4498 32.7788L87.4504 32.7787Z" fill="white"/>
</g>
</g>
<g clip-path="url(#clip15_3003_889)">
<g clip-path="url(#clip16_3003_889)" filter="url(#filter9_f_3003_889)">
<path d="M131.2 114.81L130.72 115.225L130.866 115.845C130.874 115.879 130.872 115.914 130.86 115.946C130.848 115.979 130.827 116.007 130.799 116.028C130.771 116.048 130.737 116.06 130.703 116.061C130.668 116.062 130.634 116.053 130.605 116.035L130.065 115.703L129.525 116.035C129.496 116.053 129.462 116.062 129.427 116.061C129.393 116.059 129.359 116.048 129.331 116.027C129.303 116.007 129.282 115.979 129.27 115.946C129.258 115.914 129.256 115.879 129.264 115.845L129.411 115.225L128.93 114.81C128.904 114.787 128.885 114.758 128.876 114.724C128.867 114.691 128.867 114.656 128.878 114.623C128.889 114.59 128.909 114.561 128.936 114.539C128.963 114.518 128.995 114.505 129.03 114.502L129.66 114.451L129.903 113.863C129.916 113.831 129.939 113.803 129.968 113.784C129.996 113.765 130.03 113.754 130.065 113.754C130.1 113.754 130.133 113.765 130.162 113.784C130.191 113.803 130.213 113.831 130.227 113.863L130.47 114.451L131.1 114.502C131.134 114.505 131.167 114.518 131.194 114.539C131.221 114.561 131.241 114.59 131.252 114.623C131.263 114.656 131.264 114.691 131.254 114.724C131.245 114.758 131.226 114.787 131.2 114.81L131.2 114.81Z" fill="white"/>
</g>
</g>
<g opacity="0.3" clip-path="url(#clip17_3003_889)">
<g clip-path="url(#clip18_3003_889)" filter="url(#filter10_f_3003_889)">
<path d="M27.9737 28.5367L27.0124 29.3662L27.3053 30.6067C27.3215 30.6741 27.3173 30.7447 27.2933 30.8097C27.2694 30.8746 27.2267 30.9311 27.1707 30.9718C27.1147 31.0125 27.0479 31.0358 26.9787 31.0385C26.9095 31.0413 26.841 31.0235 26.7819 30.9874L25.7031 30.3235L24.6237 30.9874C24.5646 31.0233 24.4962 31.0409 24.4271 31.038C24.3581 31.0352 24.2914 31.0119 24.2355 30.9712C24.1796 30.9305 24.137 30.8742 24.1131 30.8093C24.0891 30.7445 24.0849 30.674 24.1009 30.6067L24.3949 29.3662L23.4336 28.5367C23.3813 28.4915 23.3435 28.432 23.3249 28.3654C23.3063 28.2989 23.3077 28.2283 23.3289 28.1626C23.3502 28.0968 23.3903 28.0388 23.4443 27.9957C23.4983 27.9527 23.5639 27.9265 23.6327 27.9204L24.8931 27.8187L25.3793 26.6421C25.4056 26.578 25.4504 26.5231 25.5079 26.4845C25.5655 26.4459 25.6333 26.4253 25.7026 26.4253C25.7719 26.4253 25.8397 26.4459 25.8972 26.4845C25.9548 26.5231 25.9996 26.578 26.0259 26.6421L26.5119 27.8187L27.7723 27.9204C27.8412 27.9262 27.9069 27.9523 27.9612 27.9953C28.0154 28.0383 28.0557 28.0964 28.0771 28.1622C28.0984 28.228 28.0999 28.2987 28.0813 28.3654C28.0627 28.432 28.0248 28.4917 27.9724 28.5369L27.9737 28.5367Z" fill="white"/>
</g>
</g>
<g clip-path="url(#clip19_3003_889)" filter="url(#filter11_f_3003_889)">
<g filter="url(#filter12_f_3003_889)">
<path d="M90.682 86.3232L89.7207 87.1527L90.0135 88.3932C90.0297 88.4606 90.0255 88.5312 90.0016 88.5962C89.9776 88.6611 89.935 88.7176 89.8789 88.7583C89.8229 88.799 89.7561 88.8223 89.6869 88.825C89.6177 88.8278 89.5493 88.81 89.4902 88.7739L88.4114 88.11L87.3319 88.7739C87.2729 88.8098 87.2045 88.8274 87.1354 88.8245C87.0663 88.8217 86.9996 88.7984 86.9437 88.7577C86.8878 88.717 86.8453 88.6607 86.8213 88.5958C86.7974 88.531 86.7932 88.4605 86.8092 88.3932L87.1031 87.1527L86.1418 86.3232C86.0896 86.278 86.0518 86.2185 86.0331 86.1519C86.0145 86.0854 86.0159 86.0148 86.0372 85.9491C86.0584 85.8833 86.0985 85.8253 86.1526 85.7822C86.2066 85.7392 86.2721 85.713 86.3409 85.7069L87.6013 85.6052L88.0875 84.4286C88.1138 84.3645 88.1586 84.3096 88.2162 84.271C88.2738 84.2324 88.3415 84.2118 88.4108 84.2118C88.4802 84.2118 88.5479 84.2324 88.6055 84.271C88.663 84.3096 88.7078 84.3645 88.7342 84.4286L89.2201 85.6052L90.4805 85.7069C90.5495 85.7127 90.6152 85.7388 90.6694 85.7818C90.7236 85.8248 90.764 85.8829 90.7853 85.9487C90.8067 86.0145 90.8082 86.0852 90.7896 86.1519C90.7709 86.2185 90.7331 86.2782 90.6807 86.3234L90.682 86.3232Z" fill="white"/>
</g>
</g>
<g clip-path="url(#clip20_3003_889)">
<g clip-path="url(#clip21_3003_889)" filter="url(#filter13_f_3003_889)">
<path d="M18.8591 75.9326L17.8978 76.7621L18.1907 78.0026C18.2068 78.0699 18.2027 78.1406 18.1787 78.2055C18.1548 78.2705 18.1121 78.3269 18.0561 78.3677C18.0001 78.4084 17.9332 78.4316 17.864 78.4344C17.7949 78.4372 17.7264 78.4194 17.6673 78.3833L16.5885 77.7193L15.5091 78.3833C15.45 78.4192 15.3816 78.4368 15.3125 78.4339C15.2434 78.431 15.1768 78.4078 15.1209 78.3671C15.065 78.3264 15.0224 78.2701 14.9984 78.2052C14.9745 78.1403 14.9703 78.0698 14.9863 78.0026L15.2803 76.7621L14.319 75.9326C14.2667 75.8874 14.2289 75.8278 14.2103 75.7613C14.1917 75.6948 14.1931 75.6242 14.2143 75.5585C14.2355 75.4927 14.2757 75.4347 14.3297 75.3916C14.3837 75.3485 14.4492 75.3223 14.5181 75.3163L15.7784 75.2146L16.2646 74.038C16.291 73.9738 16.3358 73.919 16.3933 73.8804C16.4509 73.8418 16.5186 73.8212 16.588 73.8212C16.6573 73.8212 16.725 73.8418 16.7826 73.8804C16.8402 73.919 16.885 73.9738 16.9113 74.038L17.3973 75.2146L18.6576 75.3163C18.7266 75.3221 18.7923 75.3482 18.8465 75.3912C18.9008 75.4342 18.9411 75.4922 18.9625 75.5581C18.9838 75.6239 18.9853 75.6946 18.9667 75.7612C18.9481 75.8279 18.9102 75.8876 18.8578 75.9328L18.8591 75.9326Z" fill="white"/>
</g>
</g>
<g opacity="0.3" clip-path="url(#clip22_3003_889)">
<g clip-path="url(#clip23_3003_889)" filter="url(#filter14_f_3003_889)">
<path d="M53.6491 98.8126L53.0083 99.3656L53.2035 100.193C53.2143 100.238 53.2115 100.285 53.1956 100.328C53.1796 100.371 53.1511 100.409 53.1138 100.436C53.0765 100.463 53.0319 100.479 52.9858 100.481C52.9396 100.482 52.894 100.471 52.8546 100.446L52.1354 100.004L51.4158 100.446C51.3764 100.47 51.3308 100.482 51.2848 100.48C51.2387 100.478 51.1943 100.463 51.157 100.436C51.1197 100.409 51.0913 100.371 51.0754 100.328C51.0594 100.284 51.0566 100.237 51.0673 100.193L51.2633 99.3656L50.6224 98.8126C50.5875 98.7825 50.5623 98.7428 50.5499 98.6984C50.5375 98.6541 50.5385 98.6071 50.5526 98.5632C50.5668 98.5194 50.5935 98.4807 50.6295 98.452C50.6656 98.4233 50.7092 98.4058 50.7551 98.4018L51.5954 98.334L51.9195 97.5496C51.9371 97.5068 51.9669 97.4702 52.0053 97.4445C52.0437 97.4188 52.0888 97.405 52.1351 97.405C52.1813 97.405 52.2264 97.4188 52.2648 97.4445C52.3032 97.4702 52.3331 97.5068 52.3506 97.5496L52.6746 98.334L53.5148 98.4018C53.5608 98.4057 53.6046 98.423 53.6408 98.4517C53.6769 98.4804 53.7038 98.5191 53.7181 98.563C53.7323 98.6069 53.7333 98.654 53.7209 98.6984C53.7085 98.7428 53.6832 98.7826 53.6483 98.8128L53.6491 98.8126Z" fill="white"/>
</g>
</g>
<g opacity="0.3" clip-path="url(#clip24_3003_889)">
<g clip-path="url(#clip25_3003_889)" filter="url(#filter15_f_3003_889)">
<path d="M130.212 80.5835L129.571 81.1365L129.766 81.9635C129.777 82.0084 129.774 82.0555 129.758 82.0988C129.742 82.1421 129.714 82.1797 129.676 82.2069C129.639 82.2341 129.594 82.2495 129.548 82.2514C129.502 82.2532 129.457 82.2414 129.417 82.2173L128.698 81.7747L127.978 82.2173C127.939 82.2412 127.893 82.253 127.847 82.2511C127.801 82.2492 127.757 82.2337 127.719 82.2065C127.682 82.1794 127.654 82.1418 127.638 82.0986C127.622 82.0554 127.619 82.0084 127.63 81.9635L127.826 81.1365L127.185 80.5835C127.15 80.5534 127.125 80.5137 127.112 80.4693C127.1 80.425 127.101 80.3779 127.115 80.3341C127.129 80.2903 127.156 80.2516 127.192 80.2229C127.228 80.1942 127.272 80.1767 127.318 80.1726L128.158 80.1049L128.482 79.3204C128.5 79.2777 128.529 79.2411 128.568 79.2154C128.606 79.1896 128.651 79.1759 128.698 79.1759C128.744 79.1759 128.789 79.1896 128.827 79.2154C128.866 79.2411 128.896 79.2777 128.913 79.3204L129.237 80.1049L130.077 80.1726C130.123 80.1765 130.167 80.1939 130.203 80.2226C130.239 80.2513 130.266 80.29 130.281 80.3338C130.295 80.3777 130.296 80.4248 130.283 80.4693C130.271 80.5137 130.246 80.5535 130.211 80.5837L130.212 80.5835Z" fill="white"/>
</g>
</g>
<g opacity="0.3" clip-path="url(#clip26_3003_889)">
<g clip-path="url(#clip27_3003_889)" filter="url(#filter16_f_3003_889)">
<path d="M228.649 60.5314L228.008 61.0844L228.204 61.9114C228.214 61.9563 228.212 62.0034 228.196 62.0467C228.18 62.09 228.151 62.1276 228.114 62.1548C228.076 62.1819 228.032 62.1974 227.986 62.1993C227.94 62.2011 227.894 62.1893 227.855 62.1652L227.135 61.7226L226.416 62.1652C226.376 62.1891 226.331 62.2009 226.285 62.199C226.239 62.197 226.194 62.1815 226.157 62.1544C226.12 62.1273 226.091 62.0897 226.075 62.0465C226.059 62.0032 226.057 61.9562 226.067 61.9114L226.263 61.0844L225.622 60.5314C225.588 60.5013 225.562 60.4616 225.55 60.4172C225.538 60.3728 225.538 60.3258 225.553 60.282C225.567 60.2381 225.594 60.1995 225.63 60.1707C225.666 60.142 225.709 60.1246 225.755 60.1205L226.595 60.0527L226.92 59.2683C226.937 59.2256 226.967 59.189 227.005 59.1633C227.044 59.1375 227.089 59.1238 227.135 59.1238C227.181 59.1238 227.226 59.1375 227.265 59.1633C227.303 59.189 227.333 59.2256 227.351 59.2683L227.675 60.0527L228.515 60.1205C228.561 60.1244 228.605 60.1418 228.641 60.1705C228.677 60.1991 228.704 60.2378 228.718 60.2817C228.732 60.3256 228.733 60.3727 228.721 60.4172C228.708 60.4616 228.683 60.5014 228.648 60.5315L228.649 60.5314Z" fill="white"/>
</g>
</g>
<g opacity="0.4" clip-path="url(#clip28_3003_889)">
<g clip-path="url(#clip29_3003_889)" filter="url(#filter17_f_3003_889)">
<path d="M343.493 102.459L342.852 103.012L343.047 103.839C343.058 103.883 343.055 103.93 343.039 103.974C343.023 104.017 342.995 104.055 342.958 104.082C342.92 104.109 342.876 104.125 342.83 104.126C342.783 104.128 342.738 104.116 342.698 104.092L341.979 103.65L341.26 104.092C341.22 104.116 341.175 104.128 341.129 104.126C341.082 104.124 341.038 104.109 341.001 104.082C340.963 104.054 340.935 104.017 340.919 103.974C340.903 103.93 340.9 103.883 340.911 103.839L341.107 103.012L340.466 102.459C340.431 102.428 340.406 102.389 340.394 102.344C340.381 102.3 340.382 102.253 340.396 102.209C340.411 102.165 340.437 102.127 340.473 102.098C340.509 102.069 340.553 102.052 340.599 102.048L341.439 101.98L341.763 101.195C341.781 101.153 341.811 101.116 341.849 101.09C341.887 101.065 341.933 101.051 341.979 101.051C342.025 101.051 342.07 101.065 342.109 101.09C342.147 101.116 342.177 101.153 342.194 101.195L342.518 101.98L343.359 102.048C343.405 102.052 343.448 102.069 343.485 102.098C343.521 102.126 343.548 102.165 343.562 102.209C343.576 102.253 343.577 102.3 343.565 102.344C343.552 102.389 343.527 102.429 343.492 102.459L343.493 102.459Z" fill="white"/>
</g>
</g>
<g clip-path="url(#clip30_3003_889)">
<g clip-path="url(#clip31_3003_889)" filter="url(#filter18_f_3003_889)">
<path d="M274.222 102.459L273.581 103.012L273.776 103.839C273.787 103.883 273.784 103.93 273.768 103.974C273.753 104.017 273.724 104.055 273.687 104.082C273.649 104.109 273.605 104.125 273.559 104.126C273.513 104.128 273.467 104.116 273.428 104.092L272.708 103.65L271.989 104.092C271.949 104.116 271.904 104.128 271.858 104.126C271.812 104.124 271.767 104.109 271.73 104.082C271.693 104.054 271.664 104.017 271.648 103.974C271.632 103.93 271.63 103.883 271.64 103.839L271.836 103.012L271.195 102.459C271.16 102.428 271.135 102.389 271.123 102.344C271.11 102.3 271.111 102.253 271.126 102.209C271.14 102.165 271.166 102.127 271.202 102.098C271.238 102.069 271.282 102.052 271.328 102.048L272.168 101.98L272.492 101.195C272.51 101.153 272.54 101.116 272.578 101.09C272.617 101.065 272.662 101.051 272.708 101.051C272.754 101.051 272.799 101.065 272.838 101.09C272.876 101.116 272.906 101.153 272.924 101.195L273.248 101.98L274.088 102.048C274.134 102.052 274.178 102.069 274.214 102.098C274.25 102.126 274.277 102.165 274.291 102.209C274.305 102.253 274.306 102.3 274.294 102.344C274.281 102.389 274.256 102.429 274.221 102.459L274.222 102.459Z" fill="white"/>
</g>
</g>
</g>
<g style="mix-blend-mode:darken" filter="url(#filter19_f_3003_889)">
<path d="M226.042 175.563C226.042 180.093 204.251 183.766 177.37 183.766C150.489 183.766 128.698 180.093 128.698 175.563C128.698 171.032 150.489 167.359 177.37 167.359C204.251 167.359 226.042 171.032 226.042 175.563Z" fill="url(#paint2_linear_3003_889)" fill-opacity="0.1"/>
</g>
<g clip-path="url(#clip32_3003_889)">
<path d="M192.076 128.184C191.587 127.623 190.694 127.597 190.008 127.892C189.326 128.187 188.791 128.735 188.23 129.224C187.669 129.713 187.029 130.179 186.287 130.245C185.388 130.323 184.562 129.805 183.784 129.352C183.006 128.899 182.091 128.476 181.231 128.752C182.058 128.932 182.678 129.992 182.973 130.783C183.269 131.573 183.472 132.446 184.066 133.047C185.06 134.051 186.694 133.906 188.082 133.637C189.47 133.372 191.049 133.093 192.174 133.946L192.072 128.184H192.076Z" fill="#FAAC22"/>
<path d="M192.427 127.255H191.774V137.489H192.427V127.255Z" fill="#1F141C"/>
<path d="M177.297 151.284L192.686 136.728L208.075 151.284L213.095 171.359H172.277L177.297 151.284Z" fill="#FFF2E3"/>
<path d="M192.686 136.728L199.508 152.685L212.917 171.357L214.102 175.823H192.686V136.728Z" fill="#1C2B41"/>
<path d="M171.135 175.929L172.277 171.359H192.682V175.929H171.135Z" fill="#3F71D1"/>
<path d="M177.297 151.284H150.276L165.665 136.728H192.686L177.297 151.284Z" fill="#417CEE"/>
<path d="M192.686 136.728L213.095 171.359C213.095 171.359 193.017 157.213 192.686 136.728Z" fill="#3F71D1"/>
<path d="M207.849 151.284L218.336 175.952H218.565L208.075 151.284" fill="#FDFBE2"/>
<path d="M177.297 151.284L166.81 175.952H166.584L177.07 151.284" fill="#F8DC56"/>
<path d="M145.255 171.359L150.276 151.284H177.297L172.277 171.359H145.255Z" fill="#B9A690"/>
<path d="M171.135 175.929H144.114L145.256 171.359H172.277L171.135 175.929Z" fill="#2E5193"/>
<path d="M159.381 165.134H155.188L157.098 157.505H161.291L159.381 165.134Z" fill="#1C2B41"/>
<path d="M162.643 157.505H167.364L165.458 165.134H160.736L162.643 157.505Z" fill="#1C2B41"/>
<path d="M177.297 151.284L166.81 175.952H166.584L177.07 151.284" fill="#FDFBE2"/>
<path d="M150.506 151.284L140.015 175.952H139.789L150.276 151.284" fill="#FDFBE2"/>
</g>
<g filter="url(#filter20_f_3003_889)">
<path d="M230.752 91.3948C225.436 93.1667 219.687 90.2937 217.915 84.9781C216.869 81.8427 217.441 78.5615 219.173 76.0312C214.703 77.4167 211.458 81.5839 211.458 86.5094C211.458 92.5651 216.369 97.476 222.425 97.476C227.052 97.476 231.007 94.6104 232.619 90.5563C232.039 90.8917 231.416 91.1724 230.752 91.3948Z" fill="#FFF496"/>
</g>
<g filter="url(#filter21_i_3003_889)">
<path d="M230.752 91.3948C225.436 93.1667 219.687 90.2937 217.915 84.9781C216.869 81.8427 217.441 78.5615 219.173 76.0312C214.703 77.4167 211.458 81.5839 211.458 86.5094C211.458 92.5651 216.369 97.476 222.425 97.476C227.052 97.476 231.007 94.6104 232.619 90.5563C232.039 90.8917 231.416 91.1724 230.752 91.3948Z" fill="url(#paint3_linear_3003_889)"/>
</g>
<g filter="url(#filter22_f_3003_889)">
<path d="M231.148 85.295L230.804 86.3314L231.684 86.9758C232.022 87.2236 231.843 87.7572 231.428 87.7559L230.337 87.7519L229.994 88.7883C229.862 89.1843 229.301 89.1846 229.174 88.7842L228.842 87.7451L227.751 87.7411C227.333 87.7377 227.162 87.2058 227.5 86.9607L228.385 86.3209L228.053 85.2818C227.923 84.8844 228.381 84.5555 228.72 84.8034L229.599 85.4478L230.484 84.808C230.821 84.5629 231.277 84.8969 231.145 85.2929L231.148 85.295Z" fill="white"/>
</g>
<g filter="url(#filter23_f_3003_889)">
<path d="M109.095 93.143C112.56 93.143 115.369 90.3342 115.369 86.8692C115.369 83.4042 112.56 80.5955 109.095 80.5955C107.783 80.5955 106.562 81.0024 105.556 81.6936C104.274 78.9417 101.491 77.0299 98.2582 77.0299C96.1801 77.0299 94.2901 77.8261 92.8638 79.1167C91.3195 75.5642 87.7845 73.0836 83.6632 73.0836C78.1201 73.088 73.6313 77.5767 73.6313 83.1155C73.6313 88.6542 78.1201 93.143 83.6588 93.143H109.095Z" fill="white"/>
</g>
<g filter="url(#filter24_f_3003_889)">
<path d="M121.144 79.1595C120.247 79.1595 119.412 79.4365 118.723 79.9105C117.848 78.0329 115.949 76.724 113.736 76.724C112.314 76.724 111.027 77.2673 110.05 78.1496C108.996 75.7251 106.579 74.0261 103.764 74.0261C100.549 74.0261 97.8579 76.2464 97.1178 79.2324C97.6865 79.0756 98.2845 78.9881 98.9006 78.9881C101.595 78.9881 103.914 80.5813 104.982 82.8746C105.82 82.2985 106.838 81.9595 107.931 81.9595C110.819 81.9595 113.159 84.3001 113.159 87.1876C113.159 87.3699 113.149 87.5522 113.13 87.7308H121.137C123.503 87.7308 125.424 85.8131 125.424 83.4433C125.424 81.0735 123.506 79.1558 121.137 79.1558L121.144 79.1595Z" fill="#E4F9FF"/>
</g>
<g opacity="0.8" filter="url(#filter25_f_3003_889)">
<path d="M269.566 116.953C271.414 116.953 272.913 115.688 272.913 114.129C272.913 112.569 271.414 111.305 269.566 111.305C268.866 111.305 268.213 111.486 267.677 111.797C266.995 110.56 265.511 109.699 263.783 109.699C262.675 109.699 261.669 110.056 260.907 110.637C260.083 109.041 258.198 107.921 255.999 107.921C253.046 107.921 250.651 109.942 250.651 112.434C250.651 114.925 253.046 116.946 255.999 116.946H269.566V116.953Z" fill="#E4F9FF"/>
</g>
<g style="mix-blend-mode:screen" opacity="0.8" filter="url(#filter26_f_3003_889)">
<path d="M61.9355 111.37C63.7839 111.37 65.2823 110.106 65.2823 108.546C65.2823 106.986 63.7839 105.722 61.9355 105.722C61.2355 105.722 60.5829 105.904 60.0469 106.214C59.3651 104.978 57.8813 104.116 56.1532 104.116C55.0448 104.116 54.0386 104.473 53.2766 105.055C52.4526 103.458 50.5677 102.338 48.3693 102.338C45.4162 102.338 43.0209 104.359 43.0209 106.851C43.0209 109.343 45.4162 111.364 48.3693 111.364H61.9355V111.37Z" fill="#E4F9FF"/>
</g>
<path d="M259.269 -9.45914C297.173 -5.99552 318.83 -17.9036 324.921 -24.2906L313.495 -104.878L-37.6416 -55.094L-24.8463 34.5049C3.12913 30.5385 15.3285 16.1005 51.3866 8.59921C87.5123 1.08386 118.623 14.1639 161.235 8.12233C190.294 4.00246 211.89 -13.7887 259.269 -9.45914Z" fill="white" fill-opacity="0.1"/>
<path d="M14.4666 186.571C14.7838 186.648 14.8932 186.724 14.9041 186.954C14.9041 187.085 14.8604 187.282 14.7401 187.315C14.6198 187.348 14.4776 187.348 14.3026 187.315C14.0291 187.282 13.7229 187.271 13.3838 187.271C12.3229 187.271 11.8198 188.026 11.8198 188.759C11.8198 189.393 12.0276 189.853 13.0338 189.853C13.5479 189.853 14.1057 189.699 14.576 189.426C14.6635 189.371 14.751 189.339 14.8385 189.339C14.8932 189.339 14.9369 189.349 14.9916 189.371C15.1119 189.426 15.1666 189.535 15.1666 189.721C15.1666 189.864 15.0573 189.995 14.8932 190.115C14.2807 190.498 13.6244 190.651 13.001 190.651C11.3057 190.651 10.8791 189.809 10.8791 188.726C10.8791 187.315 11.9948 186.473 13.3401 186.473C13.6901 186.473 14.1057 186.484 14.4666 186.571ZM16.1557 185.959C17.2932 185.959 18.1135 186.09 18.6276 186.254C19.1635 186.429 19.4479 186.79 19.4479 187.403V189.973C19.4479 190.312 19.2948 190.487 18.9776 190.487C18.6823 190.487 18.5182 190.345 18.5073 190.006C18.1682 190.126 17.8401 190.181 17.3916 190.181C16.2104 190.181 15.6307 189.94 15.6307 189.076C15.6307 187.906 16.2323 187.49 17.4901 187.49C17.851 187.49 18.1901 187.534 18.5073 187.621V187.512C18.5073 187.206 18.4088 187.031 18.026 186.91C17.4026 186.724 16.812 186.735 16.112 186.692C15.9041 186.681 15.7182 186.593 15.7182 186.32C15.7182 186.079 15.8604 185.959 16.1557 185.959ZM17.3588 189.382C17.6979 189.382 18.0807 189.328 18.5073 189.185V188.398C18.212 188.31 17.9385 188.256 17.5995 188.256C16.7573 188.256 16.5713 188.496 16.5713 188.934C16.5713 189.339 16.9541 189.382 17.3588 189.382ZM25.2282 189.973V187.949C25.2282 187.195 24.9985 186.965 24.5063 186.965C24.2766 186.965 24.0141 187.107 23.7626 187.326C23.8282 187.523 23.861 187.742 23.861 187.993V189.973C23.861 190.312 23.7079 190.487 23.3907 190.487C23.0735 190.487 22.9204 190.312 22.9204 189.973V188.059C22.9204 187.304 22.6907 187.085 22.1985 187.085C22.0126 187.085 21.8047 187.184 21.5969 187.326V189.973C21.5969 190.312 21.4438 190.487 21.1266 190.487C20.8094 190.487 20.6563 190.312 20.6563 189.973V187.643C20.6563 187.217 20.5469 186.921 20.1969 186.626C19.9891 186.462 19.8907 186.374 19.8907 186.21C19.8907 185.959 20.011 185.773 20.3282 185.773C20.6672 185.773 20.8969 185.97 21.1485 186.232C21.236 186.331 21.3344 186.462 21.4219 186.637C21.7282 186.418 22.0344 186.287 22.3297 186.287C22.8001 186.287 23.1719 186.44 23.4563 186.746C23.8829 186.364 24.3094 186.167 24.7141 186.167C25.6219 186.167 26.1688 186.757 26.1688 187.884V189.973C26.1688 190.312 26.0157 190.487 25.6985 190.487C25.3813 190.487 25.2282 190.312 25.2282 189.973ZM28.4863 190.115V191.614C28.4863 191.953 28.3332 192.128 28.016 192.128C27.6988 192.128 27.5457 191.953 27.5457 191.614V187.753C27.5457 187.326 27.4363 187.031 27.0863 186.735C26.8785 186.571 26.78 186.484 26.78 186.32C26.78 186.068 26.9003 185.882 27.2175 185.882C27.5566 185.882 27.7863 186.079 28.0378 186.342C28.0488 186.364 28.0816 186.396 28.1144 186.429C28.541 186.342 29.0003 186.254 29.4488 186.254C30.7285 186.254 31.6253 186.899 31.6253 188.376C31.6253 189.328 30.8925 190.181 29.416 190.181C29.055 190.181 28.7816 190.17 28.4863 190.115ZM28.4863 187.534V189.306C28.7816 189.36 29.066 189.382 29.3832 189.382C30.2144 189.382 30.7175 188.999 30.7175 188.299C30.7175 187.512 30.3128 187.053 29.4269 187.053C29.0878 187.053 28.7597 187.096 28.4535 187.173C28.4753 187.282 28.4863 187.403 28.4863 187.534ZM32.9336 188.081H35.1539C35.1539 187.195 34.8476 186.889 34.1039 186.889C33.3492 186.889 32.9336 187.195 32.9336 188.081ZM35.657 190.378C35.2304 190.476 34.8258 190.52 34.4211 190.52C32.5617 190.52 31.9929 190.093 31.9929 188.474C31.9929 186.889 32.6601 186.09 34.1914 186.09C35.3726 186.09 36.0945 186.648 36.0945 188.004C36.0945 188.639 35.9633 188.879 35.2523 188.879H32.9336C32.9336 189.514 33.1304 189.721 34.2898 189.721C34.7929 189.721 35.1976 189.678 35.5039 189.59C35.5586 189.579 35.6133 189.568 35.6679 189.568C35.7664 189.568 35.8429 189.59 35.9086 189.645C36.007 189.721 36.0617 189.842 36.0617 189.984V190.039C36.0508 190.224 35.9086 190.323 35.657 190.378ZM40.4114 187.195C39.6348 187.468 38.9895 187.774 38.377 188.168V190.301C38.377 190.64 38.2239 190.815 37.9067 190.815C37.5895 190.815 37.4364 190.64 37.4364 190.301V187.534C37.4364 187.107 37.327 186.812 36.977 186.517C36.7692 186.353 36.6708 186.265 36.6708 186.101C36.6708 185.849 36.7911 185.664 37.1083 185.664C37.4473 185.664 37.677 185.86 37.9286 186.123C38.1036 186.309 38.3223 186.659 38.3661 187.151C38.9348 186.812 39.5036 186.615 39.952 186.495C40.0833 186.462 40.1817 186.451 40.2583 186.451C40.2911 186.451 40.3348 186.451 40.3786 186.462C40.5427 186.495 40.663 186.615 40.663 186.834C40.663 187.02 40.5755 187.14 40.4114 187.195ZM41.0966 182.667C41.0966 182.284 41.3482 182.01 41.731 182.01C42.1138 182.01 42.3654 182.284 42.3654 182.667C42.3654 183.443 41.8294 184.001 41.4794 184.001C41.3154 184.001 41.2279 183.935 41.2279 183.804C41.2279 183.662 41.4794 183.542 41.5997 183.323C41.2935 183.29 41.0966 183.006 41.0966 182.667ZM42.9043 190.509C42.784 190.432 42.6965 190.323 42.6965 190.148C42.6965 189.853 42.9262 189.776 43.0574 189.776C43.1121 189.776 43.1559 189.787 43.2105 189.82C43.5715 190.006 43.9215 190.104 44.2605 190.104C44.8402 190.104 45.409 189.973 45.409 189.492C45.409 188.912 44.8621 188.912 44.1621 188.77C43.484 188.617 42.773 188.299 42.773 187.37C42.773 186.32 43.5715 185.795 44.698 185.795C44.9934 185.795 45.409 185.882 45.6715 185.959C45.9668 186.046 46.0215 186.21 46.0215 186.385V186.429C46.0105 186.659 45.8355 186.779 45.6934 186.779C45.6168 186.779 45.5293 186.757 45.4309 186.724C45.223 186.648 44.8949 186.593 44.6434 186.593C44.1293 186.604 43.7137 186.79 43.7137 187.348C43.7137 187.917 44.2387 187.949 44.9715 188.07C45.6387 188.157 46.3496 188.529 46.3496 189.382C46.3496 190.542 45.2777 190.903 44.4027 190.903H44.3152C43.7793 190.892 43.298 190.771 42.9043 190.509Z" fill="white"/>
<path d="M56.3566 189.818V190.258H52.7976V189.818H54.3015V188.95H54.8484V189.818H56.3566ZM56.0447 187.118V187.558H54.8612C54.9061 188.07 55.3889 188.547 56.2241 188.668L56.0105 189.1C55.329 188.98 54.8249 188.647 54.575 188.186C54.3271 188.656 53.8273 188.997 53.1565 189.121L52.9429 188.69C53.7504 188.56 54.2353 188.072 54.2802 187.558H53.0924V187.118H56.0447ZM59.8557 186.823V189.13H59.3131V188.211H58.7064V187.771H59.3131V186.823H59.8557ZM58.527 189.215C59.3558 189.22 59.8643 189.493 59.8685 189.967C59.8643 190.437 59.3558 190.715 58.527 190.715C57.6981 190.715 57.1897 190.437 57.1897 189.967C57.1897 189.493 57.6981 189.22 58.527 189.215ZM58.527 189.634C58.01 189.634 57.7323 189.741 57.7323 189.967C57.7323 190.189 58.01 190.301 58.527 190.301C59.0439 190.301 59.3259 190.189 59.3259 189.967C59.3259 189.741 59.0439 189.634 58.527 189.634ZM58.8218 187.058V187.494H58.0485C58.0613 187.946 58.3347 188.404 58.9414 188.604L58.6722 189.032C58.2429 188.893 57.9481 188.611 57.7793 188.258C57.6063 188.656 57.2965 188.976 56.8351 189.134L56.5531 188.703C57.1918 188.489 57.4781 187.981 57.493 187.494H56.7112V187.058H58.8218ZM63.6283 186.823V190.711H63.0857V186.823H63.6283ZM60.377 189.587C61.099 189.591 62.0389 189.596 62.8721 189.484L62.9105 189.882C62.0389 190.04 61.1503 190.04 60.4496 190.04L60.377 189.587ZM62.8165 187.297V187.724H60.4539V187.297H61.3596V186.865H61.9108V187.297H62.8165ZM61.6373 187.874C62.2056 187.874 62.5986 188.164 62.5986 188.617C62.5986 189.057 62.2056 189.356 61.6373 189.356C61.0734 189.356 60.676 189.057 60.6803 188.617C60.676 188.164 61.0734 187.874 61.6373 187.874ZM61.6373 188.288C61.3724 188.288 61.193 188.412 61.1973 188.617C61.193 188.822 61.3724 188.938 61.6373 188.942C61.8979 188.938 62.0774 188.822 62.0774 188.617C62.0774 188.412 61.8979 188.288 61.6373 188.288Z" fill="white"/>
<path d="M71.3102 188.925V189.51C71.6285 189.491 71.951 189.461 72.2544 189.416L72.2971 189.813C71.4341 189.98 70.5112 189.989 69.8319 189.989L69.7678 189.549C70.0605 189.546 70.4044 189.544 70.7676 189.531V188.925H71.3102ZM72.1134 187.28V187.72H71.3187C71.355 188.096 71.6477 188.448 72.233 188.592L71.9852 189.015C71.5302 188.899 71.2162 188.647 71.041 188.322C70.868 188.662 70.5582 188.927 70.1011 189.044L69.8447 188.634C70.4322 188.478 70.7163 188.113 70.7548 187.72H69.9686V187.28H70.7676V186.857H71.3102V187.28H72.1134ZM73.0192 186.823V190.719H72.4766V186.823H73.0192ZM77.0908 189.813V190.258H73.5319V189.813H75.0315V189.096H73.9078V187.071H74.4547V187.673H76.1509V187.071H76.6935V189.096H75.5741V189.813H77.0908ZM74.4547 188.66H76.1509V188.109H74.4547V188.66ZM80.3977 186.827V187.746H80.9232V188.198H80.3977V189.134H79.8508V186.827H80.3977ZM80.3977 189.297V190.668H77.8513V189.297H80.3977ZM78.3854 189.724V190.232H79.8636V189.724H78.3854ZM79.2356 187.015V188.198H77.9966V188.549C78.6396 188.545 79.0754 188.523 79.5688 188.438L79.6287 188.865C79.069 188.976 78.5691 188.993 77.783 188.993H77.454V187.788H78.7058V187.451H77.4497V187.015H79.2356Z" fill="white"/>
<path d="M88.2633 188.925V189.51C88.5816 189.491 88.9042 189.461 89.2075 189.416L89.2502 189.813C88.3872 189.98 87.4644 189.989 86.785 189.989L86.7209 189.549C87.0136 189.546 87.3575 189.544 87.7207 189.531V188.925H88.2633ZM89.0665 187.28V187.72H88.2719C88.3082 188.096 88.6008 188.448 89.1862 188.592L88.9384 189.015C88.4833 188.899 88.1693 188.647 87.9941 188.322C87.8211 188.662 87.5114 188.927 87.0542 189.044L86.7979 188.634C87.3853 188.478 87.6694 188.113 87.7079 187.72H86.9218V187.28H87.7207V186.857H88.2633V187.28H89.0665ZM89.9723 186.823V190.719H89.4297V186.823H89.9723ZM94.0397 188.66V189.087H90.485V188.66H91.9974V188.327H90.9165V186.994H93.6124V187.417H91.4591V187.899H93.6338V188.327H92.5315V188.66H94.0397ZM92.2538 189.284C93.0955 189.284 93.6039 189.54 93.6082 190.001C93.6039 190.454 93.0955 190.715 92.2538 190.715C91.4036 190.715 90.8909 190.454 90.8909 190.001C90.8909 189.54 91.4036 189.284 92.2538 189.284ZM92.2538 189.698C91.7155 189.698 91.442 189.801 91.4463 190.001C91.442 190.207 91.7155 190.301 92.2538 190.301C92.7793 190.301 93.057 190.207 93.0613 190.001C93.057 189.801 92.7793 189.698 92.2538 189.698ZM97.3551 187.036V187.297C97.3551 187.622 97.3551 188.07 97.2526 188.711H97.8123V189.151H96.9706V190.711H96.428V189.151H95.6205V190.711H95.0736V189.151H94.2661V188.711H96.7014C96.7997 188.186 96.8168 187.782 96.8253 187.476H94.6891V187.036H97.3551Z" fill="white"/>
<path d="M105.721 187.049C105.721 188.075 105.05 188.775 103.888 189.074L103.678 188.651C104.552 188.429 105.05 187.996 105.135 187.472H103.905V187.049H105.721ZM106.913 186.827V188.997H106.366V186.827H106.913ZM106.913 189.156V190.664H104.319V189.156H106.913ZM104.862 189.583V190.236H106.379V189.583H104.862ZM110.993 188.66V189.087H107.438V188.66H108.951V188.327H107.87V186.994H110.566V187.417H108.412V187.899H110.587V188.327H109.485V188.66H110.993ZM109.207 189.284C110.049 189.284 110.557 189.54 110.561 190.001C110.557 190.454 110.049 190.715 109.207 190.715C108.357 190.715 107.844 190.454 107.844 190.001C107.844 189.54 108.357 189.284 109.207 189.284ZM109.207 189.698C108.669 189.698 108.395 189.801 108.399 190.001C108.395 190.207 108.669 190.301 109.207 190.301C109.732 190.301 110.01 190.207 110.014 190.001C110.01 189.801 109.732 189.698 109.207 189.698ZM112.326 186.938C112.915 186.938 113.364 187.306 113.364 187.827C113.364 188.339 112.915 188.711 112.326 188.711C111.723 188.711 111.279 188.339 111.279 187.827C111.279 187.306 111.723 186.938 112.326 186.938ZM112.326 187.382C112.027 187.382 111.805 187.545 111.809 187.827C111.805 188.104 112.027 188.271 112.326 188.271C112.621 188.271 112.839 188.104 112.839 187.827C112.839 187.545 112.621 187.382 112.326 187.382ZM114.475 186.823V188.771H113.928V186.823H114.475ZM114.475 188.933V189.989H112.407V190.241H114.582V190.668H111.873V189.591H113.932V189.352H111.864V188.933H114.475Z" fill="white"/>
<path d="M121.234 187.169V188.045H121.764V187.169H122.268V189.788H120.721V187.169H121.234ZM121.234 189.352H121.764V188.472H121.234V189.352ZM123.981 186.823V190.711H123.46V188.75H123.109V190.531H122.593V186.878H123.109V188.305H123.46V186.823H123.981ZM126.609 187.288V187.72H125.823C125.825 188.154 126.107 188.596 126.737 188.775L126.468 189.211C126.034 189.085 125.733 188.82 125.562 188.485C125.387 188.846 125.079 189.132 124.635 189.275L124.361 188.844C124.992 188.651 125.278 188.188 125.28 187.72H124.498V187.288H125.28V186.848H125.831V187.288H126.609ZM127.476 186.823V187.976H128.001V188.416H127.476V189.698H126.929V186.823H127.476ZM127.617 190.207V190.642H124.955V189.446H125.498V190.207H127.617ZM129.689 187.592C129.689 188.057 129.975 188.532 130.616 188.724L130.339 189.151C129.903 189.015 129.595 188.735 129.42 188.382C129.243 188.765 128.926 189.072 128.471 189.224L128.189 188.797C128.835 188.587 129.134 188.083 129.134 187.592V187.536H128.335V187.1H130.471V187.536H129.689V187.592ZM131.428 186.827V189.638H130.881V186.827H131.428ZM131.531 190.207V190.642H128.822V189.382H129.373V190.207H131.531Z" fill="white"/>
<path d="M10.8987 17.9583V14.0917H13.4461V14.7539H11.6997V15.6938H13.2805V16.3561H11.6997V17.9583H10.8987ZM15.6357 16.7246V15.0583H16.4261V17.9583H15.6678V17.4349H15.6357C15.5022 17.7713 15.1925 17.9956 14.7545 17.9956C14.1724 17.9956 13.7772 17.5844 13.7772 16.9062V15.0583H14.5676V16.7673C14.5676 17.1091 14.7652 17.3281 15.075 17.3281C15.3634 17.3281 15.6357 17.1198 15.6357 16.7246ZM17.8307 14.0917V17.9583H17.0403V14.0917H17.8307ZM19.2353 14.0917V17.9583H18.4449V14.0917H19.2353ZM21.505 15.9182C21.473 15.7152 21.2914 15.5817 21.0297 15.5817C20.7734 15.5817 20.5758 15.7045 20.5811 15.8808C20.5758 16.0089 20.6826 16.1104 20.955 16.1692L21.473 16.276C22.0338 16.3935 22.3061 16.6445 22.3115 17.061C22.3061 17.6325 21.7934 18.017 21.0244 18.017C20.2393 18.017 19.78 17.6645 19.7159 17.0984H20.5117C20.5491 17.3281 20.736 17.4456 21.0244 17.4456C21.3128 17.4456 21.505 17.3281 21.505 17.1411C21.505 16.9916 21.3822 16.9008 21.1098 16.8421L20.6292 16.7459C20.0791 16.6391 19.7907 16.3507 19.7961 15.9235C19.7907 15.3681 20.2714 15.0209 21.019 15.0209C21.7507 15.0209 22.2047 15.3681 22.2474 15.9182H21.505ZM24.3249 15.0583V15.6511H23.7801V17.0664C23.7801 17.296 23.8923 17.3548 24.0525 17.3601C24.1326 17.3601 24.2715 17.3548 24.3676 17.3441V17.9689C24.2821 17.985 24.1433 17.9956 23.9457 17.9956C23.3742 17.9956 22.9844 17.7393 22.9897 17.1785V15.6511H22.5892V15.0583H22.9897V14.364H23.7801V15.0583H24.3249ZM24.6827 17.1465C24.6827 16.5003 25.2061 16.2867 25.7615 16.2546C25.9698 16.2413 26.3596 16.2226 26.4825 16.2172V15.9822C26.4771 15.7419 26.3116 15.5977 26.0178 15.5977C25.7508 15.5977 25.5799 15.7206 25.5372 15.9182H24.7841C24.8322 15.4161 25.2701 15.0209 26.0392 15.0209C26.6694 15.0209 27.2675 15.304 27.2675 16.0036V17.9583H26.5198V17.5577H26.4985C26.3543 17.8247 26.0819 18.0117 25.6493 18.0117C25.0939 18.0117 24.6827 17.7233 24.6827 17.1465ZM25.441 17.1251C25.441 17.3494 25.6226 17.4669 25.8736 17.4669C26.2314 17.4669 26.4878 17.2266 26.4825 16.9222V16.7086C26.3623 16.7139 26.0258 16.7326 25.8896 16.7459C25.6173 16.7726 25.441 16.9008 25.441 17.1251ZM29.1741 18.017C28.2876 18.017 27.7535 17.4028 27.7535 16.5163C27.7535 15.6298 28.2929 15.0209 29.1741 15.0209C29.9218 15.0209 30.4291 15.4589 30.4612 16.1211H29.7188C29.6708 15.8327 29.4839 15.6351 29.1848 15.6351C28.8056 15.6351 28.5546 15.9555 28.5546 16.5056C28.5546 17.0664 28.8003 17.3868 29.1848 17.3868C29.4625 17.3868 29.6708 17.2159 29.7188 16.9062H30.4612C30.4238 17.563 29.9431 18.017 29.1741 18.017ZM30.9525 17.9583V14.0917H31.7429V16.1692H31.7856L32.7256 15.0583H33.6335L32.5547 16.3134L33.6922 17.9583H32.763L31.9672 16.778L31.7429 17.029V17.9583H30.9525ZM36.6402 17.9583H35.2784V14.0917H36.6562C37.8205 14.0917 38.5308 14.818 38.5308 16.0196C38.5308 17.2319 37.8205 17.9583 36.6402 17.9583ZM36.0795 17.2693H36.6082C37.3452 17.2693 37.7297 16.8848 37.7297 16.0196C37.7297 15.1598 37.3452 14.7806 36.6135 14.7806H36.0795V17.2693ZM40.4107 18.017C39.5241 18.017 38.9794 17.4402 38.9794 16.5216C38.9794 15.6244 39.5295 15.0209 40.3786 15.0209C41.1423 15.0209 41.7405 15.5016 41.7405 16.4896V16.7139H39.7591C39.7591 17.1518 40.0208 17.4242 40.4267 17.4242C40.6937 17.4242 40.886 17.3067 40.9661 17.1305H41.7191C41.607 17.6645 41.1263 18.017 40.4107 18.017ZM39.7591 16.2172H40.9928C40.9928 15.8647 40.7471 15.6137 40.3947 15.6137C40.0315 15.6137 39.7725 15.8834 39.7591 16.2172ZM44.8487 15.0583L43.8286 17.9583H42.9421L41.9274 15.0583H42.7605L43.3694 17.1411H43.4014L44.0102 15.0583H44.8487ZM46.4509 18.017C45.5643 18.017 45.0196 17.4402 45.0196 16.5216C45.0196 15.6244 45.5697 15.0209 46.4188 15.0209C47.1825 15.0209 47.7807 15.5016 47.7807 16.4896V16.7139H45.7993C45.7993 17.1518 46.061 17.4242 46.4669 17.4242C46.7339 17.4242 46.9262 17.3067 47.0063 17.1305H47.7593C47.6472 17.6645 47.1665 18.017 46.4509 18.017ZM45.7993 16.2172H47.033C47.033 15.8647 46.7873 15.6137 46.4348 15.6137C46.0717 15.6137 45.8127 15.8834 45.7993 16.2172ZM49.0677 14.0917V17.9583H48.2773V14.0917H49.0677ZM50.985 18.017C50.1092 18.017 49.5644 17.4135 49.5644 16.5163C49.5644 15.6191 50.1092 15.0209 50.985 15.0209C51.8609 15.0209 52.4109 15.6191 52.4109 16.5163C52.4109 17.4135 51.8609 18.017 50.985 18.017ZM50.9904 17.4028C51.3962 17.4028 51.6045 17.0237 51.6045 16.5163C51.6045 16.0036 51.3962 15.6244 50.9904 15.6244C50.5791 15.6244 50.3655 16.0036 50.3655 16.5163C50.3655 17.0237 50.5791 17.4028 50.9904 17.4028ZM52.9076 19.0477V15.0583H53.6873V15.5443H53.7194C53.8262 15.3093 54.0612 15.0209 54.5472 15.0209C55.188 15.0209 55.7221 15.5176 55.7221 16.511C55.7221 17.4776 55.2094 18.0063 54.5472 18.0063C54.0719 18.0063 53.8315 17.7339 53.7194 17.4936H53.698V19.0477H52.9076ZM53.682 16.5056C53.682 17.029 53.9063 17.3761 54.2962 17.3761C54.7021 17.3761 54.9157 17.0183 54.9157 16.5056C54.9157 15.9983 54.7021 15.6511 54.2962 15.6511C53.901 15.6511 53.682 15.9822 53.682 16.5056ZM57.5486 18.017C56.662 18.017 56.1173 17.4402 56.1173 16.5216C56.1173 15.6244 56.6674 15.0209 57.5165 15.0209C58.2802 15.0209 58.8784 15.5016 58.8784 16.4896V16.7139H56.897C56.897 17.1518 57.1587 17.4242 57.5646 17.4242C57.8316 17.4242 58.0239 17.3067 58.104 17.1305H58.857C58.7449 17.6645 58.2642 18.017 57.5486 18.017ZM56.897 16.2172H58.1307C58.1307 15.8647 57.885 15.6137 57.5326 15.6137C57.1694 15.6137 56.9104 15.8834 56.897 16.2172ZM59.3751 17.9583V15.0583H60.1388V15.5603H60.1708C60.2776 15.2025 60.5446 15.0156 60.8704 15.0156C60.9505 15.0156 61.052 15.0263 61.1214 15.0423V15.7473C61.0467 15.7259 60.8971 15.7045 60.785 15.7045C60.4272 15.7045 60.1655 15.9555 60.1655 16.308V17.9583H59.3751ZM62.7823 17.9583V14.0917H64.2991C65.1803 14.0917 65.6823 14.6311 65.6823 15.3948C65.6823 16.1692 65.1696 16.6979 64.2777 16.6979H63.5834V17.9583H62.7823ZM63.5834 16.0517H64.1495C64.6248 16.0517 64.8545 15.7846 64.8545 15.3948C64.8545 15.0103 64.6248 14.7486 64.1495 14.7486H63.5834V16.0517ZM66.1736 17.9583V15.0583H66.9373V15.5603H66.9694C67.0762 15.2025 67.3432 15.0156 67.669 15.0156C67.7491 15.0156 67.8506 15.0263 67.92 15.0423V15.7473C67.8452 15.7259 67.6957 15.7045 67.5835 15.7045C67.2257 15.7045 66.964 15.9555 66.964 16.308V17.9583H66.1736ZM69.5168 18.017C68.641 18.017 68.0962 17.4135 68.0962 16.5163C68.0962 15.6191 68.641 15.0209 69.5168 15.0209C70.3927 15.0209 70.9427 15.6191 70.9427 16.5163C70.9427 17.4135 70.3927 18.017 69.5168 18.017ZM69.5222 17.4028C69.928 17.4028 70.1363 17.0237 70.1363 16.5163C70.1363 16.0036 69.928 15.6244 69.5222 15.6244C69.1109 15.6244 68.8973 16.0036 68.8973 16.5163C68.8973 17.0237 69.1109 17.4028 69.5222 17.4028ZM71.4394 15.0583H72.2298V18.1024C72.2298 18.77 71.8186 19.0477 71.1404 19.0477L70.9801 19.0424V18.4229C71.0229 18.4229 71.0496 18.4282 71.0869 18.4282C71.3433 18.4282 71.4394 18.3107 71.4394 18.0918V15.0583ZM71.8293 14.6791C71.589 14.6791 71.3967 14.4976 71.3967 14.2786C71.3967 14.0543 71.589 13.8727 71.8293 13.8727C72.0643 13.8727 72.2565 14.0543 72.2565 14.2786C72.2565 14.4976 72.0643 14.6791 71.8293 14.6791ZM74.1578 18.017C73.2712 18.017 72.7265 17.4402 72.7265 16.5216C72.7265 15.6244 73.2766 15.0209 74.1257 15.0209C74.8894 15.0209 75.4876 15.5016 75.4876 16.4896V16.7139H73.5062C73.5062 17.1518 73.7679 17.4242 74.1738 17.4242C74.4408 17.4242 74.6331 17.3067 74.7132 17.1305H75.4662C75.3541 17.6645 74.8734 18.017 74.1578 18.017ZM73.5062 16.2172H74.7399C74.7399 15.8647 74.4942 15.6137 74.1418 15.6137C73.7786 15.6137 73.5196 15.8834 73.5062 16.2172ZM77.2874 18.017C76.4008 18.017 75.8668 17.4028 75.8668 16.5163C75.8668 15.6298 76.4062 15.0209 77.2874 15.0209C78.035 15.0209 78.5424 15.4589 78.5744 16.1211H77.8321C77.784 15.8327 77.5971 15.6351 77.298 15.6351C76.9189 15.6351 76.6678 15.9555 76.6678 16.5056C76.6678 17.0664 76.9135 17.3868 77.298 17.3868C77.5757 17.3868 77.784 17.2159 77.8321 16.9062H78.5744C78.537 17.563 78.0564 18.017 77.2874 18.017ZM80.5932 15.0583V15.6511H80.0484V17.0664C80.0484 17.296 80.1606 17.3548 80.3208 17.3601C80.4009 17.3601 80.5398 17.3548 80.6359 17.3441V17.9689C80.5504 17.985 80.4116 17.9956 80.214 17.9956C79.6425 17.9956 79.2527 17.7393 79.258 17.1785V15.6511H78.8575V15.0583H79.258V14.364H80.0484V15.0583H80.5932Z" fill="white"/>
<path d="M167.197 111.066H172.25C172.797 111.066 173.235 110.956 173.694 110.628C173.869 110.497 174.044 110.431 174.241 110.431C174.438 110.431 174.985 110.519 174.985 111.197C174.985 111.875 174.241 112.181 173.781 112.356C173.06 112.641 172.556 112.641 171.944 112.641H166.519C165.294 112.641 164.791 112.137 164.791 110.912V109.25C164.463 109.053 164.266 108.791 164.266 108.375C164.266 107.697 164.813 107.609 165.01 107.609C165.206 107.609 165.381 107.675 165.556 107.806C166.016 108.134 166.453 108.244 167 108.244H171.835C172.25 108.244 172.36 108.134 172.36 107.719V107.522C172.36 107.106 172.25 106.997 171.835 106.997H167.569C166.956 106.997 166.431 106.997 165.71 106.712C165.25 106.537 164.528 106.275 164.528 105.553C164.528 104.875 165.075 104.787 165.272 104.787C165.469 104.787 165.644 104.853 165.819 104.984C166.278 105.312 166.716 105.422 167.263 105.422H172.71C173.935 105.422 174.241 105.925 174.241 107.15V108.091C174.241 109.316 173.935 109.819 172.71 109.819H166.672V110.519C166.672 110.934 166.781 111.066 167.197 111.066ZM168.028 97.9625V102.556C168.028 103.256 167.722 103.606 167.131 103.606C166.738 103.606 166.453 103.475 166.278 103.212L162.691 103.584C162.581 103.606 162.472 103.606 162.363 103.606C161.466 103.606 160.963 103.081 160.963 101.856V97.8968C160.963 97.2187 161.269 96.8687 161.903 96.8687C162.538 96.8687 162.844 97.2187 162.844 97.8968V98.75H166.147V97.9625C166.147 97.2843 166.453 96.9343 167.088 96.9343C167.722 96.9343 168.028 97.2843 168.028 97.9625ZM174.241 96.7156V103.234C174.241 103.912 173.935 104.262 173.3 104.262C172.666 104.262 172.36 103.912 172.36 103.234V102.534H169.975C169.385 102.534 169.035 102.337 169.035 101.747C169.035 101.156 169.385 100.959 169.975 100.959H172.36V99.8218H169.975C169.385 99.8218 169.035 99.625 169.035 99.0343C169.035 98.4437 169.385 98.2468 169.975 98.2468H172.36V96.9343C172.36 96.0812 172.031 95.4468 171.003 95.0968C170.5 94.9218 170.172 94.6812 170.172 94.1781C170.172 93.675 170.544 93.3031 171.047 93.3031C171.681 93.3031 172.819 93.9593 173.344 94.375C173.935 94.7906 174.241 95.5781 174.241 96.7156ZM162.844 100.347V101.462C162.844 101.878 162.975 102.009 163.238 102.009H163.369L166.147 101.747V100.347H162.844ZM178.763 106.778H182.329V104.984H179.507C178.894 104.984 177.975 104.962 177.254 104.678C176.794 104.503 176.072 104.241 176.072 103.519C176.072 102.841 176.619 102.753 176.816 102.753C177.013 102.753 177.188 102.819 177.363 102.95C177.822 103.278 178.26 103.387 178.807 103.387H188.716C189.307 103.387 189.657 103.584 189.657 104.175C189.657 104.766 189.307 104.984 188.716 104.984H184.21V106.778H187.666C188.257 106.778 188.607 106.975 188.607 107.566C188.607 108.156 188.257 108.353 187.666 108.353H186.594V111.153H187.666C188.257 111.153 188.607 111.35 188.607 111.941C188.607 112.531 188.257 112.728 187.666 112.728H178.763C178.172 112.728 177.822 112.531 177.822 111.941C177.822 111.35 178.172 111.153 178.763 111.153H179.682V108.353H178.763C178.172 108.353 177.822 108.156 177.822 107.566C177.822 106.975 178.172 106.778 178.763 106.778ZM179.507 100.347C181.279 99.3406 182.329 97.875 182.635 95.95C182.744 95.2499 183.072 94.9 183.619 94.9C184.21 94.9 184.494 95.2499 184.494 95.775C184.494 95.8843 184.472 96.0156 184.45 96.1687C184.341 96.8468 184.188 97.4812 183.947 98.0937C184.647 99.0343 185.916 99.9968 186.879 100.391C187.469 100.653 187.425 100.981 187.425 101.134C187.425 101.244 187.404 101.353 187.36 101.462C187.185 101.878 186.791 101.9 186.616 101.9C186.441 101.9 186.244 101.856 186.047 101.791C185.019 101.375 183.969 100.522 183.116 99.625C182.438 100.522 181.563 101.266 180.338 101.791C180.141 101.878 179.944 101.922 179.769 101.922C179.594 101.922 179.2 101.878 179.025 101.462C178.982 101.353 178.96 101.266 178.96 101.156C178.96 100.981 178.96 100.675 179.507 100.347ZM181.563 108.353V111.153H184.713V108.353H181.563Z" fill="white"/>
<path d="M168.686 86.2731L168.853 86.8694H169.398C169.608 86.8694 169.694 87.1769 169.526 87.3171L169.085 87.6853L169.252 88.2816C169.316 88.5096 169.09 88.7 168.921 88.5578L168.48 88.1895L168.038 88.5578C167.869 88.6979 167.643 88.5096 167.707 88.2816L167.874 87.6853L167.433 87.3171C167.264 87.1769 167.351 86.8694 167.561 86.8694H168.106L168.274 86.2731C168.337 86.045 168.62 86.045 168.684 86.2731H168.686Z" fill="white"/>
</g>
<defs>
<filter id="filter0_f_3003_889" x="70.2076" y="144.632" width="369.293" height="102.848" filterUnits="userSpaceOnUse" color-interpolation-filters="sRGB">
<feFlood flood-opacity="0" result="BackgroundImageFix"/>
<feBlend mode="normal" in="SourceGraphic" in2="BackgroundImageFix" result="shape"/>
<feGaussianBlur stdDeviation="0.546875" result="effect1_foregroundBlur_3003_889"/>
</filter>
<filter id="filter1_f_3003_889" x="231.51" y="41.0312" width="6.19792" height="6.19792" filterUnits="userSpaceOnUse" color-interpolation-filters="sRGB">
<feFlood flood-opacity="0" result="BackgroundImageFix"/>
<feBlend mode="normal" in="SourceGraphic" in2="BackgroundImageFix" result="shape"/>
<feGaussianBlur stdDeviation="0.182292" result="effect1_foregroundBlur_3003_889"/>
</filter>
<filter id="filter2_f_3003_889" x="275.625" y="31.1874" width="6.19792" height="6.19792" filterUnits="userSpaceOnUse" color-interpolation-filters="sRGB">
<feFlood flood-opacity="0" result="BackgroundImageFix"/>
<feBlend mode="normal" in="SourceGraphic" in2="BackgroundImageFix" result="shape"/>
<feGaussianBlur stdDeviation="0.182292" result="effect1_foregroundBlur_3003_889"/>
</filter>
<filter id="filter3_f_3003_889" x="133.255" y="45.224" width="7.29171" height="7.10933" filterUnits="userSpaceOnUse" color-interpolation-filters="sRGB">
<feFlood flood-opacity="0" result="BackgroundImageFix"/>
<feBlend mode="normal" in="SourceGraphic" in2="BackgroundImageFix" result="shape"/>
<feGaussianBlur stdDeviation="0.364583" result="effect1_foregroundBlur_3003_889"/>
</filter>
<filter id="filter4_f_3003_889" x="133.802" y="45.7708" width="6.19792" height="6.19792" filterUnits="userSpaceOnUse" color-interpolation-filters="sRGB">
<feFlood flood-opacity="0" result="BackgroundImageFix"/>
<feBlend mode="normal" in="SourceGraphic" in2="BackgroundImageFix" result="shape"/>
<feGaussianBlur stdDeviation="0.182292" result="effect1_foregroundBlur_3003_889"/>
</filter>
<filter id="filter5_f_3003_889" x="179.01" y="56.3437" width="4.19271" height="4.19271" filterUnits="userSpaceOnUse" color-interpolation-filters="sRGB">
<feFlood flood-opacity="0" result="BackgroundImageFix"/>
<feBlend mode="normal" in="SourceGraphic" in2="BackgroundImageFix" result="shape"/>
<feGaussianBlur stdDeviation="0.364583" result="effect1_foregroundBlur_3003_889"/>
</filter>
<filter id="filter6_f_3003_889" x="246.458" y="109.208" width="4.19271" height="4.19271" filterUnits="userSpaceOnUse" color-interpolation-filters="sRGB">
<feFlood flood-opacity="0" result="BackgroundImageFix"/>
<feBlend mode="normal" in="SourceGraphic" in2="BackgroundImageFix" result="shape"/>
<feGaussianBlur stdDeviation="0.364583" result="effect1_foregroundBlur_3003_889"/>
</filter>
<filter id="filter7_f_3003_889" x="323.021" y="58.1666" width="4.19271" height="4.19271" filterUnits="userSpaceOnUse" color-interpolation-filters="sRGB">
<feFlood flood-opacity="0" result="BackgroundImageFix"/>
<feBlend mode="normal" in="SourceGraphic" in2="BackgroundImageFix" result="shape"/>
<feGaussianBlur stdDeviation="0.364583" result="effect1_foregroundBlur_3003_889"/>
</filter>
<filter id="filter8_f_3003_889" x="84.2187" y="30.8228" width="4.19271" height="4.19271" filterUnits="userSpaceOnUse" color-interpolation-filters="sRGB">
<feFlood flood-opacity="0" result="BackgroundImageFix"/>
<feBlend mode="normal" in="SourceGraphic" in2="BackgroundImageFix" result="shape"/>
<feGaussianBlur stdDeviation="0.364583" result="effect1_foregroundBlur_3003_889"/>
</filter>
<filter id="filter9_f_3003_889" x="127.969" y="112.854" width="4.19271" height="4.19271" filterUnits="userSpaceOnUse" color-interpolation-filters="sRGB">
<feFlood flood-opacity="0" result="BackgroundImageFix"/>
<feBlend mode="normal" in="SourceGraphic" in2="BackgroundImageFix" result="shape"/>
<feGaussianBlur stdDeviation="0.364583" result="effect1_foregroundBlur_3003_889"/>
</filter>
<filter id="filter10_f_3003_889" x="22.6042" y="25.7187" width="6.19792" height="6.19792" filterUnits="userSpaceOnUse" color-interpolation-filters="sRGB">
<feFlood flood-opacity="0" result="BackgroundImageFix"/>
<feBlend mode="normal" in="SourceGraphic" in2="BackgroundImageFix" result="shape"/>
<feGaussianBlur stdDeviation="0.182292" result="effect1_foregroundBlur_3003_889"/>
</filter>
<filter id="filter11_f_3003_889" x="84.7656" y="82.9583" width="7.29171" height="7.10933" filterUnits="userSpaceOnUse" color-interpolation-filters="sRGB">
<feFlood flood-opacity="0" result="BackgroundImageFix"/>
<feBlend mode="normal" in="SourceGraphic" in2="BackgroundImageFix" result="shape"/>
<feGaussianBlur stdDeviation="0.364583" result="effect1_foregroundBlur_3003_889"/>
</filter>
<filter id="filter12_f_3003_889" x="85.3124" y="83.5052" width="6.19792" height="6.19792" filterUnits="userSpaceOnUse" color-interpolation-filters="sRGB">
<feFlood flood-opacity="0" result="BackgroundImageFix"/>
<feBlend mode="normal" in="SourceGraphic" in2="BackgroundImageFix" result="shape"/>
<feGaussianBlur stdDeviation="0.182292" result="effect1_foregroundBlur_3003_889"/>
</filter>
<filter id="filter13_f_3003_889" x="13.4895" y="73.1145" width="6.19792" height="6.19792" filterUnits="userSpaceOnUse" color-interpolation-filters="sRGB">
<feFlood flood-opacity="0" result="BackgroundImageFix"/>
<feBlend mode="normal" in="SourceGraphic" in2="BackgroundImageFix" result="shape"/>
<feGaussianBlur stdDeviation="0.182292" result="effect1_foregroundBlur_3003_889"/>
</filter>
<filter id="filter14_f_3003_889" x="49.9479" y="96.8124" width="4.37504" height="4.37504" filterUnits="userSpaceOnUse" color-interpolation-filters="sRGB">
<feFlood flood-opacity="0" result="BackgroundImageFix"/>
<feBlend mode="normal" in="SourceGraphic" in2="BackgroundImageFix" result="shape"/>
<feGaussianBlur stdDeviation="0.182292" result="effect1_foregroundBlur_3003_889"/>
</filter>
<filter id="filter15_f_3003_889" x="126.51" y="78.5833" width="4.37504" height="4.37504" filterUnits="userSpaceOnUse" color-interpolation-filters="sRGB">
<feFlood flood-opacity="0" result="BackgroundImageFix"/>
<feBlend mode="normal" in="SourceGraphic" in2="BackgroundImageFix" result="shape"/>
<feGaussianBlur stdDeviation="0.182292" result="effect1_foregroundBlur_3003_889"/>
</filter>
<filter id="filter16_f_3003_889" x="224.948" y="58.5312" width="4.37498" height="4.37504" filterUnits="userSpaceOnUse" color-interpolation-filters="sRGB">
<feFlood flood-opacity="0" result="BackgroundImageFix"/>
<feBlend mode="normal" in="SourceGraphic" in2="BackgroundImageFix" result="shape"/>
<feGaussianBlur stdDeviation="0.182292" result="effect1_foregroundBlur_3003_889"/>
</filter>
<filter id="filter17_f_3003_889" x="339.792" y="100.458" width="4.37498" height="4.37504" filterUnits="userSpaceOnUse" color-interpolation-filters="sRGB">
<feFlood flood-opacity="0" result="BackgroundImageFix"/>
<feBlend mode="normal" in="SourceGraphic" in2="BackgroundImageFix" result="shape"/>
<feGaussianBlur stdDeviation="0.182292" result="effect1_foregroundBlur_3003_889"/>
</filter>
<filter id="filter18_f_3003_889" x="270.521" y="100.458" width="4.37498" height="4.37504" filterUnits="userSpaceOnUse" color-interpolation-filters="sRGB">
<feFlood flood-opacity="0" result="BackgroundImageFix"/>
<feBlend mode="normal" in="SourceGraphic" in2="BackgroundImageFix" result="shape"/>
<feGaussianBlur stdDeviation="0.182292" result="effect1_foregroundBlur_3003_889"/>
</filter>
<filter id="filter19_f_3003_889" x="125.052" y="163.714" width="104.635" height="23.6979" filterUnits="userSpaceOnUse" color-interpolation-filters="sRGB">
<feFlood flood-opacity="0" result="BackgroundImageFix"/>
<feBlend mode="normal" in="SourceGraphic" in2="BackgroundImageFix" result="shape"/>
<feGaussianBlur stdDeviation="1.82292" result="effect1_foregroundBlur_3003_889"/>
</filter>
<filter id="filter20_f_3003_889" x="210.365" y="74.9375" width="23.3479" height="23.6323" filterUnits="userSpaceOnUse" color-interpolation-filters="sRGB">
<feFlood flood-opacity="0" result="BackgroundImageFix"/>
<feBlend mode="normal" in="SourceGraphic" in2="BackgroundImageFix" result="shape"/>
<feGaussianBlur stdDeviation="0.546875" result="effect1_foregroundBlur_3003_889"/>
</filter>
<filter id="filter21_i_3003_889" x="211.458" y="76.0312" width="21.1604" height="21.4448" filterUnits="userSpaceOnUse" color-interpolation-filters="sRGB">
<feFlood flood-opacity="0" result="BackgroundImageFix"/>
<feBlend mode="normal" in="SourceGraphic" in2="BackgroundImageFix" result="shape"/>
<feColorMatrix in="SourceAlpha" type="matrix" values="0 0 0 0 0 0 0 0 0 0 0 0 0 0 0 0 0 0 127 0" result="hardAlpha"/>
<feOffset/>
<feGaussianBlur stdDeviation="0.911458"/>
<feComposite in2="hardAlpha" operator="arithmetic" k2="-1" k3="1"/>
<feColorMatrix type="matrix" values="0 0 0 0 1 0 0 0 0 1 0 0 0 0 1 0 0 0 0.25 0"/>
<feBlend mode="normal" in2="shape" result="effect1_innerShadow_3003_889"/>
</filter>
<filter id="filter22_f_3003_889" x="226.956" y="84.3529" width="5.26963" height="5.09648" filterUnits="userSpaceOnUse" color-interpolation-filters="sRGB">
<feFlood flood-opacity="0" result="BackgroundImageFix"/>
<feBlend mode="normal" in="SourceGraphic" in2="BackgroundImageFix" result="shape"/>
<feGaussianBlur stdDeviation="0.182292" result="effect1_foregroundBlur_3003_889"/>
</filter>
<filter id="filter23_f_3003_889" x="72.7563" y="72.2086" width="43.4875" height="21.8093" filterUnits="userSpaceOnUse" color-interpolation-filters="sRGB">
<feFlood flood-opacity="0" result="BackgroundImageFix"/>
<feBlend mode="normal" in="SourceGraphic" in2="BackgroundImageFix" result="shape"/>
<feGaussianBlur stdDeviation="0.4375" result="effect1_foregroundBlur_3003_889"/>
</filter>
<filter id="filter24_f_3003_889" x="96.2063" y="73.1147" width="30.1292" height="15.5276" filterUnits="userSpaceOnUse" color-interpolation-filters="sRGB">
<feFlood flood-opacity="0" result="BackgroundImageFix"/>
<feBlend mode="normal" in="SourceGraphic" in2="BackgroundImageFix" result="shape"/>
<feGaussianBlur stdDeviation="0.455729" result="effect1_foregroundBlur_3003_889"/>
</filter>
<filter id="filter25_f_3003_889" x="249.922" y="107.192" width="23.7198" height="10.4899" filterUnits="userSpaceOnUse" color-interpolation-filters="sRGB">
<feFlood flood-opacity="0" result="BackgroundImageFix"/>
<feBlend mode="normal" in="SourceGraphic" in2="BackgroundImageFix" result="shape"/>
<feGaussianBlur stdDeviation="0.364583" result="effect1_foregroundBlur_3003_889"/>
</filter>
<filter id="filter26_f_3003_889" x="41.198" y="100.515" width="25.9073" height="12.6774" filterUnits="userSpaceOnUse" color-interpolation-filters="sRGB">
<feFlood flood-opacity="0" result="BackgroundImageFix"/>
<feBlend mode="normal" in="SourceGraphic" in2="BackgroundImageFix" result="shape"/>
<feGaussianBlur stdDeviation="0.911458" result="effect1_foregroundBlur_3003_889"/>
</filter>
<linearGradient id="paint0_linear_3003_889" x1="175" y1="0" x2="175" y2="196.875" gradientUnits="userSpaceOnUse">
<stop stop-color="#0B1F3E"/>
<stop offset="1" stop-color="#1971F4"/>
</linearGradient>
<linearGradient id="paint1_linear_3003_889" x1="175.547" y1="158.12" x2="175.547" y2="243.897" gradientUnits="userSpaceOnUse">
<stop stop-color="#C59762"/>
<stop offset="1" stop-color="#5F492F"/>
</linearGradient>
<linearGradient id="paint2_linear_3003_889" x1="177.37" y1="167.359" x2="177.37" y2="183.766" gradientUnits="userSpaceOnUse">
<stop/>
<stop offset="1" stop-opacity="0.3"/>
</linearGradient>
<linearGradient id="paint3_linear_3003_889" x1="222.039" y1="76.0312" x2="222.039" y2="97.476" gradientUnits="userSpaceOnUse">
<stop stop-color="#FFF496"/>
<stop offset="0.74" stop-color="#DA8547"/>
<stop offset="0.99" stop-color="#E37627"/>
</linearGradient>
<clipPath id="clip0_3003_889">
<rect width="350" height="196.875" fill="white" transform="translate(0 0.5625)"/>
</clipPath>
<clipPath id="clip1_3003_889">
<rect width="5.83333" height="5.65104" fill="white" transform="translate(231.693 41.2135)"/>
</clipPath>
<clipPath id="clip2_3003_889">
<rect width="5.46875" height="5.46875" fill="white" transform="translate(231.875 41.3958)"/>
</clipPath>
<clipPath id="clip3_3003_889">
<rect width="5.83333" height="5.65104" fill="white" transform="translate(275.807 31.3698)"/>
</clipPath>
<clipPath id="clip4_3003_889">
<rect width="5.46875" height="5.46875" fill="white" transform="translate(275.99 31.552)"/>
</clipPath>
<clipPath id="clip5_3003_889">
<rect width="5.83333" height="5.65104" fill="white" transform="translate(133.984 45.9531)"/>
</clipPath>
<clipPath id="clip6_3003_889">
<rect width="5.46875" height="5.46875" fill="white" transform="translate(134.167 46.1354)"/>
</clipPath>
<clipPath id="clip7_3003_889">
<rect width="4.19271" height="4.01042" fill="white" transform="translate(179.01 56.3438)"/>
</clipPath>
<clipPath id="clip8_3003_889">
<rect width="2.73438" height="2.73438" fill="white" transform="translate(179.74 57.0729)"/>
</clipPath>
<clipPath id="clip9_3003_889">
<rect width="4.19271" height="4.01042" fill="white" transform="translate(246.458 109.208)"/>
</clipPath>
<clipPath id="clip10_3003_889">
<rect width="2.73438" height="2.73438" fill="white" transform="translate(247.188 109.937)"/>
</clipPath>
<clipPath id="clip11_3003_889">
<rect width="4.19271" height="4.01042" fill="white" transform="translate(323.021 58.1666)"/>
</clipPath>
<clipPath id="clip12_3003_889">
<rect width="2.73438" height="2.73438" fill="white" transform="translate(323.75 58.8958)"/>
</clipPath>
<clipPath id="clip13_3003_889">
<rect width="4.19271" height="4.01042" fill="white" transform="translate(84.2188 30.8229)"/>
</clipPath>
<clipPath id="clip14_3003_889">
<rect width="2.73438" height="2.73438" fill="white" transform="translate(84.9479 31.552)"/>
</clipPath>
<clipPath id="clip15_3003_889">
<rect width="4.19271" height="4.01042" fill="white" transform="translate(127.969 112.854)"/>
</clipPath>
<clipPath id="clip16_3003_889">
<rect width="2.73438" height="2.73438" fill="white" transform="translate(128.698 113.583)"/>
</clipPath>
<clipPath id="clip17_3003_889">
<rect width="5.83333" height="5.65104" fill="white" transform="translate(22.7865 25.901)"/>
</clipPath>
<clipPath id="clip18_3003_889">
<rect width="5.46875" height="5.46875" fill="white" transform="translate(22.9688 26.0833)"/>
</clipPath>
<clipPath id="clip19_3003_889">
<rect width="5.83333" height="5.65104" fill="white" transform="translate(85.4948 83.6875)"/>
</clipPath>
<clipPath id="clip20_3003_889">
<rect width="5.83333" height="5.65104" fill="white" transform="translate(13.6719 73.2969)"/>
</clipPath>
<clipPath id="clip21_3003_889">
<rect width="5.46875" height="5.46875" fill="white" transform="translate(13.8541 73.4791)"/>
</clipPath>
<clipPath id="clip22_3003_889">
<rect width="4.01042" height="4.01042" fill="white" transform="translate(50.1302 96.9948)"/>
</clipPath>
<clipPath id="clip23_3003_889">
<rect width="3.64583" height="3.64583" fill="white" transform="translate(50.3125 97.177)"/>
</clipPath>
<clipPath id="clip24_3003_889">
<rect width="4.01042" height="4.01042" fill="white" transform="translate(126.693 78.7656)"/>
</clipPath>
<clipPath id="clip25_3003_889">
<rect width="3.64583" height="3.64583" fill="white" transform="translate(126.875 78.9479)"/>
</clipPath>
<clipPath id="clip26_3003_889">
<rect width="4.01042" height="4.01042" fill="white" transform="translate(225.13 58.7135)"/>
</clipPath>
<clipPath id="clip27_3003_889">
<rect width="3.64583" height="3.64583" fill="white" transform="translate(225.312 58.8958)"/>
</clipPath>
<clipPath id="clip28_3003_889">
<rect width="4.01042" height="4.01042" fill="white" transform="translate(339.974 100.641)"/>
</clipPath>
<clipPath id="clip29_3003_889">
<rect width="3.64583" height="3.64583" fill="white" transform="translate(340.156 100.823)"/>
</clipPath>
<clipPath id="clip30_3003_889">
<rect width="4.01042" height="4.01042" fill="white" transform="translate(270.703 100.641)"/>
</clipPath>
<clipPath id="clip31_3003_889">
<rect width="3.64583" height="3.64583" fill="white" transform="translate(270.885 100.823)"/>
</clipPath>
<clipPath id="clip32_3003_889">
<rect width="88.1639" height="49.5698" fill="white" transform="translate(130.703 127.255)"/>
</clipPath>
</defs>
</svg>
