<svg width="129" height="128" viewBox="0 0 129 128" fill="none" xmlns="http://www.w3.org/2000/svg">
<path d="M22.648 78.306C24.1841 80.1936 25.8047 82.0108 27.505 83.752C22.319 85.312 18.919 88.21 16.799 90.769C13.443 94.819 11.667 100.167 12.076 104.757H3.146C4.936 100.87 12.086 89.642 22.649 78.307L22.648 78.306ZM126.097 107.192H115.24C90.33 94.193 68.46 85.027 45.228 83.025C45.277 79.792 45.852 76.132 46.959 72.053L44.819 71.477C43.683 75.669 43.087 79.462 43.019 82.857C40.598 82.695 38.162 82.617 35.702 82.617C33.621 82.617 31.722 82.808 29.99 83.143C27.732 80.889 25.808 78.735 24.175 76.693C34.889 65.534 52.538 55.438 67.898 51.64C72.223 66.016 81.507 75.866 92.774 82.493C93.6003 82.0225 94.4124 81.5272 95.209 81.008L114.865 102.168L115.725 102.095C121.093 101.633 124.144 104.545 124.951 105.451C125.546 106.11 125.901 106.715 126.097 107.192Z" fill="#D1A41A"/>
<path d="M116.508 36.412C116.907 55.94 106.944 71.482 92.995 79.452C69.32 67.66 64.862 37.776 68.897 21.747C70.019 27.877 72.061 31.72 76.469 33.604C86.083 30.854 99.313 30.637 109.059 33.324C113.119 30.372 114.693 25.86 115.554 21.919C116.626 26.504 116.504 36.413 116.508 36.413V36.412Z" fill="#FFDC76"/>
<path d="M49.5961 58.246L56.9561 54.901L60.5671 65.603L49.5961 58.246ZM42.1041 62.126L46.3881 59.584L50.2651 66.272L42.1041 62.126ZM33.8091 67.61L37.5551 64.8L39.4281 71.492L33.8091 67.61ZM100.036 85.273L97.3591 82.73L93.8811 88.083L100.036 85.273ZM104.99 91.158L102.845 88.884L97.2271 93.164L104.99 91.158ZM96.0261 30.684L89.2021 30.818L93.3501 39.916L96.0261 30.684ZM68.8621 47.943L68.1931 44.063L74.7521 47.542L68.8621 47.943ZM70.4661 53.696L69.7971 51.155L73.8121 52.76L70.4661 53.696ZM115.691 49.55L116.631 46.606L111.278 48.88L115.691 49.55ZM113.684 55.57L114.486 53.162L110.338 54.366L113.684 55.57Z" fill="black"/>
<path d="M66.0381 63.203H78.9511V64.797H66.0381V63.203ZM66.0381 59.377H78.9511V60.971H66.0381V59.377ZM105.468 63.203H118.38V64.797H105.468V63.203ZM105.468 59.377H118.38V60.971H105.468V59.377ZM100.917 49.926H79.8741V48.49H86.4221C87.2291 45.037 87.3881 41.737 86.4161 40.064C86.0001 39.354 85.4261 39.021 84.6081 39.021C80.8641 39.021 79.3181 42.98 79.2531 43.148L79.2541 43.147L77.9111 42.643C77.9881 42.436 79.8611 37.586 84.6081 37.586C85.9331 37.586 86.9861 38.194 87.6541 39.343C88.8401 41.38 88.7011 44.905 87.8971 48.49H99.3871C100.914 44.005 104.101 41.89 109.427 41.89V43.325C103.655 43.325 102.037 45.772 100.883 48.49H107.153L107.138 49.918L100.916 49.925L100.917 49.926ZM101.861 57.011L101.871 57.01L101.861 57.011ZM101.861 57.011L101.871 57.01L101.861 57.011Z" fill="black"/>
<path d="M101.861 57.011L101.871 57.01C100.169 54.5 99.629 52.358 100.341 49.919L98.879 49.926C98.37 51.55 98.574 53.996 99.829 56.096H85.229C86.117 54.316 86.94 52.147 87.542 49.926H86.056C85.392 52.281 84.461 54.612 83.412 56.458L83.073 57.055L91.266 62.212L86.654 65.252L87.444 66.45L92.599 63.051L98.165 66.683L98.929 65.469L93.769 62.277C93.769 62.277 101.485 57.265 101.868 57.02C101.865 57.017 101.864 57.014 101.862 57.01L101.861 57.011ZM92.582 61.345L86.522 57.53L98.365 57.533L92.582 61.345Z" fill="black"/>
<path d="M118.914 34.682C118.905 32.187 118.128 21.644 116.7 18.741C112.828 20.212 105.783 24.98 104.188 29.854C96.5461 28.714 87.9311 28.848 80.3841 30.154C79.1241 24.909 72.7961 20.896 68.0221 18.634C66.0081 22.032 65.1161 29.911 65.3421 35.5L65.3161 35.518C66.2021 58.986 77.7151 73.598 92.7691 82.454C108.259 73.604 119.324 56.35 118.895 34.671L118.915 34.681L118.914 34.682ZM106.026 30.157L106.195 30.188L106.025 30.158L106.026 30.157ZM105.062 29.991C105.198 30.013 105.335 30.037 105.471 30.061L105.062 29.991ZM116.505 36.375C116.903 55.903 106.94 71.445 92.9921 79.415C69.3181 67.62 64.8581 37.739 68.8951 21.71C70.0181 27.837 72.0551 31.681 76.4691 33.566C86.0791 30.816 99.3091 30.599 109.055 33.286C113.116 30.333 114.691 25.823 115.551 21.882C116.626 26.468 116.501 36.374 116.505 36.376V36.375Z" fill="black"/>
<path d="M126.604 103.935C124.173 101.215 119.41 99.928 115.432 100.023C112.609 96.663 96.2421 79.427 96.2421 79.427L95.1081 80.856L114.868 102.129L115.725 102.055C121.094 101.595 124.145 104.507 124.954 105.41C125.546 106.073 125.904 106.677 126.098 107.152H115.238C90.3271 94.152 68.4581 84.987 45.2251 82.989C45.2751 79.756 45.8511 76.096 46.9551 72.019L44.8191 71.439C43.6841 75.631 43.0851 79.427 43.0181 82.821C40.5981 82.661 38.1611 82.577 35.7031 82.577C33.6181 82.577 31.7201 82.771 29.9891 83.107C27.7301 80.85 25.8071 78.699 24.1721 76.657C34.9621 65.416 52.7821 55.255 68.2201 51.519L67.7191 49.356C51.0941 53.366 32.8961 64.279 22.7561 74.823C18.0501 68.471 16.1831 63.259 15.6281 59.309C14.9281 54.32 16.1181 49.744 19.0721 46.074C23.6951 40.331 30.2641 39.926 37.0181 41.062C36.8871 42.129 37.0271 43.149 37.4541 43.779C39.2401 46.418 48.8411 47.345 54.5711 44.788C50.3421 38.862 41.7761 35.968 39.4031 37.128C38.6171 37.512 38.0231 38.218 37.6171 39.04C35.2821 38.622 32.9631 38.311 31.2691 38.324C25.3121 38.368 20.7581 40.449 17.3471 44.687C14.0001 48.844 12.6471 54.007 13.4351 59.617C14.1811 64.931 16.8121 70.583 21.2211 76.443C20.4891 77.229 19.7811 78.005 19.0991 78.767C8.35307 90.792 0.49707 103.687 0.49707 105.824V106.931H14.6741L14.4261 105.618C13.6261 101.386 15.2241 96.098 18.4991 92.144C20.5561 89.663 23.9611 86.83 29.3081 85.524C34.0621 90.164 40.1201 95.091 46.8621 99.845H57.3981V98.738C57.3981 97.489 56.7781 96.396 55.6541 95.66C53.9891 94.572 51.4201 94.422 49.0601 95.227C46.8101 92.721 45.5481 89.374 45.2761 85.216C68.1411 87.24 90.0121 96.474 114.688 109.366H128.266L128.444 108.476C128.698 107.209 128.007 105.511 126.598 103.935H126.604ZM16.8001 90.729C13.4461 94.777 11.6681 100.124 12.0761 104.714H3.14307C4.93807 100.831 12.0861 89.604 22.6481 78.264C24.1841 80.1526 25.8051 81.9705 27.5061 83.712C22.3201 85.271 18.9201 88.169 16.7991 90.729H16.8001Z" fill="black"/>
</svg>
